<svg xmlns="http://www.w3.org/2000/svg" xmlns:xlink="http://www.w3.org/1999/xlink" xmlns:lucid="lucid" width="1681.5" height="2062.5"><g transform="translate(-94.58267716537034 1201.5000968400907)" lucid:page-tab-id="nB7bf.fuEu3k"><path d="M0-1258.83h1870.87v2581.66H0z" fill="#fff"/><path d="M1014.58-1100c0 44.18-35.8 80-80 80-44.18 0-80-35.82-80-80s35.82-80 80-80c44.2 0 80 35.82 80 80z" stroke="#5e5e5e" stroke-width="3" fill="#fff"/><use xlink:href="#a" transform="matrix(1,0,0,1,859.5826771653706,-1175) translate(49.1358024691358 78.71527777777777)"/><path d="M1007.13 759.5c0 44.18-35.8 80-80 80-44.18 0-80-35.82-80-80s35.82-80 80-80c44.2 0 80 35.82 80 80z" stroke="#5e5e5e" stroke-width="3" fill="#fff"/><use xlink:href="#b" transform="matrix(1,0,0,1,852.1338582676835,684.5) translate(59.62962962962963 78.71527777777777)"/><path d="M1183.04-665.8a4.6 4.6 0 0 1-4.46 5.8h-488a4.6 4.6 0 0 1-4.45-5.8l23.57-88.4a7.8 7.8 0 0 1 7.55-5.8h434.67a7.8 7.8 0 0 1 7.54 5.8z" stroke="#5e5e5e" stroke-width="3" fill="#fff"/><path d="M754.58-749a6 6 0 0 1 6-6h348a6 6 0 0 1 6 6v78a6 6 0 0 1-6 6h-348a6 6 0 0 1-6-6z" stroke="#000" stroke-opacity="0" stroke-width="3" fill="#fff" fill-opacity="0"/><use xlink:href="#c" transform="matrix(1,0,0,1,759.5826771653706,-750.0000000000001) translate(94.41358024691358 45.27777777777778)"/><use xlink:href="#d" transform="matrix(1,0,0,1,759.5826771653706,-750.0000000000001) translate(182.43827160493828 45.27777777777778)"/><use xlink:href="#e" transform="matrix(1,0,0,1,759.5826771653706,-750.0000000000001) translate(205.83333333333331 45.27777777777778)"/><path d="M711.4-934.2a7.8 7.8 0 0 1 7.55-5.8h461.33a4.6 4.6 0 0 1 4.46 5.8l-23.58 88.4a7.8 7.8 0 0 1-7.54 5.8H692.28a4.6 4.6 0 0 1-4.45-5.8z" stroke="#5e5e5e" stroke-width="3" fill="#fff"/><use xlink:href="#f" transform="matrix(1,0,0,1,691.2834645669125,-935) translate(163.6161111111111 48.71527777777778)"/><use xlink:href="#g" transform="matrix(1,0,0,1,691.2834645669125,-935) translate(193.184012345679 48.71527777777778)"/><use xlink:href="#h" transform="matrix(1,0,0,1,691.2834645669125,-935) translate(247.44327160493827 48.71527777777778)"/><use xlink:href="#i" transform="matrix(1,0,0,1,691.2834645669125,-935) translate(277.0111728395062 48.71527777777778)"/><path d="M686.13-574.2a4.6 4.6 0 0 1 4.45-5.8h488a4.6 4.6 0 0 1 4.46 5.8l-23.58 88.4a7.8 7.8 0 0 1-7.54 5.8H717.25a7.8 7.8 0 0 1-7.55-5.8z" stroke="#5e5e5e" stroke-width="3" fill="#fff"/><use xlink:href="#j" transform="matrix(1,0,0,1,689.5826771653706,-575) translate(220.31364197530863 48.71527777777778)"/><path d="M934.58-1017.5v57.52" stroke="#5e5e5e" stroke-width="2" fill="none"/><path d="M934.56-1018.5h1.01v1.03h-2v-1.06z" stroke="#5e5e5e" stroke-width=".05" fill="#5e5e5e"/><path d="M934.58-944.7l-4.63-14.27h9.27z" stroke="#5e5e5e" stroke-width="2" fill="#5e5e5e"/><path d="M936.28-837.54v57.57" stroke="#5e5e5e" stroke-width="2" fill="none"/><path d="M937.28-837.5h-2v-1.04h2z" stroke="#5e5e5e" stroke-width=".05" fill="#5e5e5e"/><path d="M936.28-764.7l-4.63-14.27h9.27z" stroke="#5e5e5e" stroke-width="2" fill="#5e5e5e"/><path d="M934.58-657.54v57.58" stroke="#5e5e5e" stroke-width="2" fill="none"/><path d="M935.58-657.5h-2v-1.04h2z" stroke="#5e5e5e" stroke-width=".05" fill="#5e5e5e"/><path d="M934.58-584.7l-4.63-14.26h9.27z" stroke="#5e5e5e" stroke-width="2" fill="#5e5e5e"/><path d="M927.13 601v58.5M927.13 601.03V600" stroke="#5e5e5e" stroke-width="2" fill="none"/><path d="M927.13 674.76l-4.63-14.26h9.27z" stroke="#5e5e5e" stroke-width="2" fill="#5e5e5e"/><path d="M937.13-479v60.45M937.13-478.97V-480" stroke="#5e5e5e" stroke-width="2" fill="none"/><path d="M937.13-403.28l-4.63-14.27h9.27z" stroke="#5e5e5e" stroke-width="2" fill="#5e5e5e"/><path d="M1183.9-305.8a4.6 4.6 0 0 1-4.47 5.8h-488a4.6 4.6 0 0 1-4.45-5.8l23.57-88.4a7.8 7.8 0 0 1 7.55-5.8h434.67a7.8 7.8 0 0 1 7.54 5.8z" stroke="#5e5e5e" stroke-width="3" fill="#fff"/><path d="M755.43-389a6 6 0 0 1 6-6h348a6 6 0 0 1 6 6v78a6 6 0 0 1-6 6h-348a6 6 0 0 1-6-6z" stroke="#000" stroke-opacity="0" stroke-width="3" fill="#fff" fill-opacity="0"/><use xlink:href="#c" transform="matrix(1,0,0,1,760.4330708661414,-390.0000000000001) translate(94.41358024691358 45.27777777777778)"/><use xlink:href="#d" transform="matrix(1,0,0,1,760.4330708661414,-390.0000000000001) translate(182.43827160493828 45.27777777777778)"/><use xlink:href="#k" transform="matrix(1,0,0,1,760.4330708661414,-390.0000000000001) translate(205.83333333333331 45.27777777777778)"/><path d="M686.98-214.2a4.6 4.6 0 0 1 4.45-5.8h488a4.6 4.6 0 0 1 4.46 5.8l-23.6 88.4a7.8 7.8 0 0 1-7.53 5.8H718.1a7.8 7.8 0 0 1-7.55-5.8z" stroke="#5e5e5e" stroke-width="3" fill="#fff"/><use xlink:href="#l" transform="matrix(1,0,0,1,690.4330708661414,-215) translate(224.0482098765432 48.71527777777778)"/><path d="M935.43-297.54v57.58" stroke="#5e5e5e" stroke-width="2" fill="none"/><path d="M936.43-297.5h-2v-1.04h2z" stroke="#5e5e5e" stroke-width=".05" fill="#5e5e5e"/><path d="M935.43-224.7l-4.63-14.26h9.27z" stroke="#5e5e5e" stroke-width="2" fill="#5e5e5e"/><path d="M114.58 57.43a6 6 0 0 1 6-6h1628a6 6 0 0 1 6 6V594a6 6 0 0 1-6 6h-1628a6 6 0 0 1-6-6z" stroke="#5e5e5e" stroke-width="3" fill="#fff"/><path d="M120.55 50.76a.33.33 0 0 0 .03.67h1628a.33.33 0 0 0 .04-.67l-808.07-90.1a53.8 53.8 0 0 0-11.93 0z" stroke="#5e5e5e" stroke-width="3" fill="#fff"/><use xlink:href="#m" transform="matrix(1,0,0,1,119.58267716537034,-35.00000000000024) translate(815.005 33.15277777777778)"/><use xlink:href="#n" transform="matrix(1,0,0,1,119.58267716537034,-35.00000000000024) translate(794.0482098765432 59.81944444444445)"/><path d="M114.58 57.43a6 6 0 0 1 6-6h303.85a6 6 0 0 1 6 6v79.9a6 6 0 0 1-6 6H120.58a6 6 0 0 1-6-6z" stroke="#5e5e5e" stroke-width="3" fill="#fff"/><use xlink:href="#o" transform="matrix(1,0,0,1,119.58267716537057,56.42857142857129) translate(60.407407407407405 45.96527777777778)"/><use xlink:href="#p" transform="matrix(1,0,0,1,119.58267716537057,56.42857142857129) translate(85.09876543209876 45.96527777777778)"/><use xlink:href="#q" transform="matrix(1,0,0,1,119.58267716537057,56.42857142857129) translate(109.79012345679013 45.96527777777778)"/><use xlink:href="#r" transform="matrix(1,0,0,1,119.58267716537057,56.42857142857129) translate(134.48148148148147 45.96527777777778)"/><use xlink:href="#s" transform="matrix(1,0,0,1,119.58267716537057,56.42857142857129) translate(159.17283950617283 45.96527777777778)"/><use xlink:href="#t" transform="matrix(1,0,0,1,119.58267716537057,56.42857142857129) translate(183.8641975308642 45.96527777777778)"/><use xlink:href="#u" transform="matrix(1,0,0,1,119.58267716537057,56.42857142857129) translate(220.9012345679012 45.96527777777778)"/><path d="M430.43 57.43a6 6 0 0 1 6-6h292.15a6 6 0 0 1 6 6v79.9a6 6 0 0 1-6 6H436.43a6 6 0 0 1-6-6z" stroke="#5e5e5e" stroke-width="3" fill="#fff"/><use xlink:href="#v" transform="matrix(1,0,0,1,435.4317337691442,56.428571428571274) translate(98.95061728395062 45.96527777777778)"/><use xlink:href="#w" transform="matrix(1,0,0,1,435.4317337691442,56.428571428571274) translate(123.64197530864197 45.96527777777778)"/><use xlink:href="#x" transform="matrix(1,0,0,1,435.4317337691442,56.428571428571274) translate(148.33333333333334 45.96527777777778)"/><use xlink:href="#y" transform="matrix(1,0,0,1,435.4317337691442,56.428571428571274) translate(173.0246913580247 45.96527777777778)"/><path d="M114.58 149.33a6 6 0 0 1 6-6h303.85a6 6 0 0 1 6 6V594a6 6 0 0 1-6 6H120.58a6 6 0 0 1-6-6zM430.43 149.33a6 6 0 0 1 6-6h292.15a6 6 0 0 1 6 6V594a6 6 0 0 1-6 6H436.43a6 6 0 0 1-6-6zM789.8 326.08a6 6 0 0 1 6-6h592.8a6 6 0 0 1 6 6v207.9a6 6 0 0 1-6 6H795.8a6 6 0 0 1-6-6z" stroke="#5e5e5e" stroke-width="3" fill="#fff"/><path d="M795.87 317.56a1.32 1.32 0 0 0 .56 2.52h592.8a1.32 1.32 0 0 0 .54-2.52l-291.5-135.06a12.95 12.95 0 0 0-10.9 0z" stroke="#5e5e5e" stroke-width="3" fill="#fff"/><use xlink:href="#z" transform="matrix(1,0,0,1,795.4257510070536,184.97270704396817) translate(297.005 46.97222222222222)"/><use xlink:href="#A" transform="matrix(1,0,0,1,795.4257510070536,184.97270704396817) translate(223.97413580246916 68.30555555555554)"/><use xlink:href="#B" transform="matrix(1,0,0,1,795.4257510070536,184.97270704396817) translate(274.2951234567902 68.30555555555554)"/><use xlink:href="#C" transform="matrix(1,0,0,1,795.4257510070536,184.97270704396817) translate(295.0358641975309 68.30555555555554)"/><use xlink:href="#D" transform="matrix(1,0,0,1,795.4257510070536,184.97270704396817) translate(329.6037654320988 68.30555555555554)"/><use xlink:href="#E" transform="matrix(1,0,0,1,795.4257510070536,184.97270704396817) translate(355.28277777777777 68.30555555555554)"/><use xlink:href="#F" transform="matrix(1,0,0,1,795.4257510070536,184.97270704396817) translate(133.30746913580248 89.63888888888889)"/><use xlink:href="#G" transform="matrix(1,0,0,1,795.4257510070536,184.97270704396817) translate(147.43092592592595 89.63888888888889)"/><use xlink:href="#B" transform="matrix(1,0,0,1,795.4257510070536,184.97270704396817) translate(203.62845679012347 89.63888888888889)"/><use xlink:href="#H" transform="matrix(1,0,0,1,795.4257510070536,184.97270704396817) translate(224.3691975308642 89.63888888888889)"/><use xlink:href="#I" transform="matrix(1,0,0,1,795.4257510070536,184.97270704396817) translate(258.9370987654321 89.63888888888889)"/><use xlink:href="#J" transform="matrix(1,0,0,1,795.4257510070536,184.97270704396817) translate(279.18401234567904 89.63888888888889)"/><use xlink:href="#K" transform="matrix(1,0,0,1,795.4257510070536,184.97270704396817) translate(299.8753703703704 89.63888888888889)"/><use xlink:href="#L" transform="matrix(1,0,0,1,795.4257510070536,184.97270704396817) translate(328.51734567901235 89.63888888888889)"/><use xlink:href="#B" transform="matrix(1,0,0,1,795.4257510070536,184.97270704396817) translate(378.8383333333333 89.63888888888889)"/><use xlink:href="#M" transform="matrix(1,0,0,1,795.4257510070536,184.97270704396817) translate(399.5790740740741 89.63888888888889)"/><use xlink:href="#D" transform="matrix(1,0,0,1,795.4257510070536,184.97270704396817) translate(414.3938888888889 89.63888888888889)"/><use xlink:href="#N" transform="matrix(1,0,0,1,795.4257510070536,184.97270704396817) translate(440.0729012345679 89.63888888888889)"/><g><path d="M1102.7 320.78a.75.75 0 0 1 .76.75v217a.75.75 0 0 1-.75.75.75.75 0 0 1-.74-.75v-217a.75.75 0 0 1 .75-.75z" stroke="#5e5e5e" stroke-width="1.5" fill="none"/></g><g><path d="M1050.4 471.38a4.6 4.6 0 0 1-4.46 5.8H836.67a4.6 4.6 0 0 1-4.45-5.8l22.05-82.7a7.8 7.8 0 0 1 7.55-5.8h158.97a7.8 7.8 0 0 1 7.53 5.8z" stroke="#5e5e5e" stroke-width="3" fill="#fff"/></g><path d="M861.65 386.05a6 6 0 0 1 6-6h147.3a6 6 0 0 1 6 6V474a6 6 0 0 1-6 6h-147.3a6 6 0 0 1-6-6z" stroke="#000" stroke-opacity="0" stroke-width="3" fill="#fff" fill-opacity="0"/><g><use xlink:href="#O" transform="matrix(1,0,0,1,866.6485854714468,385.05210473424154) translate(15.543209876543237 47.972222222222214)"/><use xlink:href="#P" transform="matrix(1,0,0,1,866.6485854714468,385.05210473424154) translate(70.95061728395062 47.972222222222214)"/><use xlink:href="#Q" transform="matrix(1,0,0,1,866.6485854714468,385.05210473424154) translate(95.64197530864197 47.972222222222214)"/></g><g><path d="M1354.68 467.88a4.6 4.6 0 0 1-4.46 5.8h-209.26a4.6 4.6 0 0 1-4.45-5.8l22.06-82.7a7.8 7.8 0 0 1 7.55-5.8h158.98a7.8 7.8 0 0 1 7.54 5.8z" stroke="#5e5e5e" stroke-width="3" fill="#fff"/></g><path d="M1165.94 382.55a6 6 0 0 1 6-6h147.3a6 6 0 0 1 6 6v87.95a6 6 0 0 1-6 6h-147.3a6 6 0 0 1-6-6z" stroke="#000" stroke-opacity="0" stroke-width="3" fill="#fff" fill-opacity="0"/><g><use xlink:href="#O" transform="matrix(1,0,0,1,1170.9368792252,381.55252987398615) translate(15.543209876543237 47.972222222222214)"/><use xlink:href="#R" transform="matrix(1,0,0,1,1170.9368792252,381.55252987398615) translate(70.95061728395062 47.972222222222214)"/><use xlink:href="#Q" transform="matrix(1,0,0,1,1170.9368792252,381.55252987398615) translate(95.64197530864197 47.972222222222214)"/></g><path d="M1450.43 57.43a6 6 0 0 1 6-6h292.15a6 6 0 0 1 6 6v79.9a6 6 0 0 1-6 6h-292.15a6 6 0 0 1-6-6z" stroke="#5e5e5e" stroke-width="3" fill="#fff"/><g><use xlink:href="#S" transform="matrix(1,0,0,1,1455.4317337691446,56.42857142857129) translate(114.19753086419753 45.96527777777778)"/></g><path d="M1450.43 149.33a6 6 0 0 1 6-6h292.15a6 6 0 0 1 6 6V594a6 6 0 0 1-6 6h-292.15a6 6 0 0 1-6-6zM734.58 57.43a6 6 0 0 1 6-6h703.85a6 6 0 0 1 6 6v79.9a6 6 0 0 1-6 6H740.58a6 6 0 0 1-6-6z" stroke="#5e5e5e" stroke-width="3" fill="#fff"/><g><use xlink:href="#T" transform="matrix(1,0,0,1,739.5826771653707,56.42857142857116) translate(346.82716049382714 45.96527777777778)"/></g><path d="M935.43-117.53V-59.65" stroke="#5e5e5e" stroke-width="2" fill="none"/><path d="M936.43-117.5h-2v-1.03h2z" stroke="#5e5e5e" stroke-width=".05" fill="#5e5e5e"/><path d="M935.44-44.4l-4.64-14.26h9.27z" stroke="#5e5e5e" stroke-width="2" fill="#5e5e5e"/><g><path d="M691.6 433.4a4.6 4.6 0 0 1-4.46 5.8H477.87a4.6 4.6 0 0 1-4.45-5.8l22.07-82.76a7.8 7.8 0 0 1 7.54-5.8h158.94a7.8 7.8 0 0 1 7.55 5.8z" stroke="#5e5e5e" stroke-width="3" fill="#fff"/></g><path d="M502.85 348.02a6 6 0 0 1 6-6h147.3a6 6 0 0 1 6 6v88a6 6 0 0 1-6 6h-147.3a6 6 0 0 1-6-6z" stroke="#000" stroke-opacity="0" stroke-width="3" fill="#fff" fill-opacity="0"/><g><use xlink:href="#O" transform="matrix(1,0,0,1,507.8519219126582,347.02244283832647) translate(15.543209876543237 47.972222222222214)"/><use xlink:href="#U" transform="matrix(1,0,0,1,507.8519219126582,347.02244283832647) translate(70.95061728395062 47.972222222222214)"/><use xlink:href="#Q" transform="matrix(1,0,0,1,507.8519219126582,347.02244283832647) translate(95.64197530864197 47.972222222222214)"/></g><g><path d="M381.6 433.4a4.6 4.6 0 0 1-4.46 5.8H167.87a4.6 4.6 0 0 1-4.45-5.8l22.07-82.76a7.8 7.8 0 0 1 7.54-5.8h158.94a7.8 7.8 0 0 1 7.55 5.8z" stroke="#5e5e5e" stroke-width="3" fill="#fff"/></g><path d="M192.85 348.02a6 6 0 0 1 6-6h147.3a6 6 0 0 1 6 6v88a6 6 0 0 1-6 6h-147.3a6 6 0 0 1-6-6z" stroke="#000" stroke-opacity="0" stroke-width="3" fill="#fff" fill-opacity="0"/><g><use xlink:href="#O" transform="matrix(1,0,0,1,197.85192191265796,347.02244283832647) translate(15.543209876543237 47.972222222222214)"/><use xlink:href="#V" transform="matrix(1,0,0,1,197.85192191265796,347.02244283832647) translate(70.95061728395062 47.972222222222214)"/><use xlink:href="#Q" transform="matrix(1,0,0,1,197.85192191265796,347.02244283832647) translate(95.64197530864197 47.972222222222214)"/></g><g><path d="M1711.6 433.4a4.6 4.6 0 0 1-4.46 5.8h-209.27a4.6 4.6 0 0 1-4.45-5.8l22.07-82.76a7.8 7.8 0 0 1 7.54-5.8h158.94a7.8 7.8 0 0 1 7.55 5.8z" stroke="#5e5e5e" stroke-width="3" fill="#fff"/></g><path d="M1522.85 348.02a6 6 0 0 1 6-6h147.3a6 6 0 0 1 6 6v88a6 6 0 0 1-6 6h-147.3a6 6 0 0 1-6-6z" stroke="#000" stroke-opacity="0" stroke-width="3" fill="#fff" fill-opacity="0"/><g><use xlink:href="#W" transform="matrix(1,0,0,1,1527.8519219126583,347.0224428383267) translate(19.098765432098794 28.284722222222218)"/><use xlink:href="#X" transform="matrix(1,0,0,1,1527.8519219126583,347.0224428383267) translate(46.06172839506175 28.284722222222218)"/><use xlink:href="#Y" transform="matrix(1,0,0,1,1527.8519219126583,347.0224428383267) translate(111.14814814814812 28.284722222222218)"/><use xlink:href="#Z" transform="matrix(1,0,0,1,1527.8519219126583,347.0224428383267) translate(18.259259259259274 49.61805555555554)"/><use xlink:href="#aa" transform="matrix(1,0,0,1,1527.8519219126583,347.0224428383267) translate(121.86419753086417 49.61805555555554)"/><use xlink:href="#ab" transform="matrix(1,0,0,1,1527.8519219126583,347.0224428383267) translate(25.987654320987673 70.95138888888887)"/><use xlink:href="#ac" transform="matrix(1,0,0,1,1527.8519219126583,347.0224428383267) translate(84.20987654320987 70.95138888888887)"/></g><defs><path fill="#333" d="M33 0v-248h34V0H33" id="ad"/><path fill="#333" d="M117-194c89-4 53 116 60 194h-32v-121c0-31-8-49-39-48C34-167 62-67 57 0H25l-1-190h30c1 10-1 24 2 32 11-22 29-35 61-36" id="ae"/><path fill="#333" d="M24-231v-30h32v30H24zM24 0v-190h32V0H24" id="af"/><path fill="#333" d="M96-169c-40 0-48 33-48 73s9 75 48 75c24 0 41-14 43-38l32 2c-6 37-31 61-74 61-59 0-76-41-82-99-10-93 101-131 147-64 4 7 5 14 7 22l-32 3c-4-21-16-35-41-35" id="ag"/><path fill="#333" d="M100-194c62-1 85 37 85 99 1 63-27 99-86 99S16-35 15-95c0-66 28-99 85-99zM99-20c44 1 53-31 53-75 0-43-8-75-51-75s-53 32-53 75 10 74 51 75" id="ah"/><g id="a"><use transform="matrix(0.06172839506172839,0,0,0.06172839506172839,0,0)" xlink:href="#ad"/><use transform="matrix(0.06172839506172839,0,0,0.06172839506172839,6.172839506172839,0)" xlink:href="#ae"/><use transform="matrix(0.06172839506172839,0,0,0.06172839506172839,18.51851851851852,0)" xlink:href="#af"/><use transform="matrix(0.06172839506172839,0,0,0.06172839506172839,23.395061728395063,0)" xlink:href="#ag"/><use transform="matrix(0.06172839506172839,0,0,0.06172839506172839,34.50617283950618,0)" xlink:href="#af"/><use transform="matrix(0.06172839506172839,0,0,0.06172839506172839,39.38271604938272,0)" xlink:href="#ah"/></g><path fill="#333" d="M63-220v92h138v28H63V0H30v-248h175v28H63" id="ai"/><g id="b"><use transform="matrix(0.06172839506172839,0,0,0.06172839506172839,0,0)" xlink:href="#ai"/><use transform="matrix(0.06172839506172839,0,0,0.06172839506172839,13.518518518518517,0)" xlink:href="#af"/><use transform="matrix(0.06172839506172839,0,0,0.06172839506172839,18.39506172839506,0)" xlink:href="#ae"/></g><path fill="#333" d="M123-170H98l11-78h32zm-65 0H33l11-78h32" id="aj"/><path fill="#333" d="M14 0l48-248h34L48 0H14" id="ak"/><path fill="#333" d="M67-158c22-48 132-52 116 29L158 0h-32l25-140c3-38-53-32-70-12C52-117 51-52 38 0H6l36-190h30" id="al"/><path fill="#333" d="M103-194c29 0 47 14 56 36 2-11 5-23 8-32h30L160-5C157 61 82 97 21 62 9 55 4 45 1 30l28-7c7 42 83 31 92-3 4-16 9-38 13-55-13 20-29 36-62 36-40 0-60-25-60-64 0-71 23-131 91-131zm4 24c-53 0-58 54-61 104-2 27 10 44 36 44 49 0 65-50 67-102 1-29-15-46-42-46" id="am"/><path fill="#333" d="M66-151c12-25 30-51 66-40l-6 26C45-176 58-65 38 0H6l36-190h30" id="an"/><path fill="#333" d="M111-194c62-3 86 47 72 106H45c-7 38 6 69 45 68 27-1 43-14 53-32l24 11C152-15 129 4 87 4 38 3 12-23 12-71c0-70 32-119 99-123zm44 81c14-66-71-72-95-28-4 8-8 17-11 28h106" id="ao"/><path fill="#333" d="M55-144c13 50 104 24 104 88C159 21 15 23 1-39l26-10c6 40 102 42 102-4-13-50-104-23-104-87 0-71 143-71 148-8l-29 4c-5-35-85-37-89 0" id="ap"/><g id="c"><use transform="matrix(0.06172839506172839,0,0,0.06172839506172839,0,0)" xlink:href="#aj"/><use transform="matrix(0.06172839506172839,0,0,0.06172839506172839,7.8395061728395055,0)" xlink:href="#ak"/><use transform="matrix(0.06172839506172839,0,0,0.06172839506172839,14.012345679012345,0)" xlink:href="#al"/><use transform="matrix(0.06172839506172839,0,0,0.06172839506172839,26.358024691358025,0)" xlink:href="#am"/><use transform="matrix(0.06172839506172839,0,0,0.06172839506172839,38.7037037037037,0)" xlink:href="#an"/><use transform="matrix(0.06172839506172839,0,0,0.06172839506172839,46.04938271604938,0)" xlink:href="#ao"/><use transform="matrix(0.06172839506172839,0,0,0.06172839506172839,58.395061728395056,0)" xlink:href="#ap"/><use transform="matrix(0.06172839506172839,0,0,0.06172839506172839,69.50617283950616,0)" xlink:href="#ao"/></g><path fill="#333" d="M6 0l50-261h32L37 0H6" id="aq"/><g id="d"><use transform="matrix(0.06172839506172839,0,0,0.06172839506172839,0,0)" xlink:href="#ao"/><use transform="matrix(0.06172839506172839,0,0,0.06172839506172839,12.345679012345679,0)" xlink:href="#aq"/></g><path fill="#333" d="M165-48c-4 18 1 34 23 27l-3 20c-29 8-62 0-52-35h-2C116-14 99 4 63 4 30 4 8-16 8-49c0-68 71-67 138-67 10-26 0-56-31-54-26 1-42 9-47 31l-32-5c8-67 160-71 144 15-5 28-9 54-15 81zM42-50c3 52 80 24 89-6 7-12 7-24 11-38-47 1-103-4-100 44" id="ar"/><path fill="#333" d="M50-231l6-30h32l-6 30H50zM6 0l37-190h31L37 0H6" id="as"/><path fill="#333" d="M30-147c31-64 166-65 159 27C183-49 158 1 86 4 9 8 1-88 30-147zM88-20c53 0 68-48 68-100 0-31-11-51-44-50-52 1-68 46-68 97 0 32 13 53 44 53" id="at"/><g id="e"><use transform="matrix(0.06172839506172839,0,0,0.06172839506172839,0,0)" xlink:href="#ar"/><use transform="matrix(0.06172839506172839,0,0,0.06172839506172839,12.345679012345679,0)" xlink:href="#al"/><use transform="matrix(0.06172839506172839,0,0,0.06172839506172839,24.691358024691358,0)" xlink:href="#as"/><use transform="matrix(0.06172839506172839,0,0,0.06172839506172839,29.5679012345679,0)" xlink:href="#at"/><use transform="matrix(0.06172839506172839,0,0,0.06172839506172839,41.913580246913575,0)" xlink:href="#aj"/></g><path fill="#333" d="M59-47c-2 24 18 29 38 22v24C64 9 27 4 27-40v-127H5v-23h24l9-43h21v43h35v23H59v120" id="au"/><g id="f"><use transform="matrix(0.06172839506172839,0,0,0.06172839506172839,0,0)" xlink:href="#af"/><use transform="matrix(0.06172839506172839,0,0,0.06172839506172839,4.876543209876543,0)" xlink:href="#ae"/><use transform="matrix(0.06172839506172839,0,0,0.06172839506172839,17.22222222222222,0)" xlink:href="#au"/></g><path fill="#333" d="M210-169c-67 3-38 105-44 169h-31v-121c0-29-5-50-35-48C34-165 62-65 56 0H25l-1-190h30c1 10-1 24 2 32 10-44 99-50 107 0 11-21 27-35 58-36 85-2 47 119 55 194h-31v-121c0-29-5-49-35-48" id="av"/><path fill="#333" d="M100-194c63 0 86 42 84 106H49c0 40 14 67 53 68 26 1 43-12 49-29l28 8c-11 28-37 45-77 45C44 4 14-33 15-96c1-61 26-98 85-98zm52 81c6-60-76-77-97-28-3 7-6 17-6 28h103" id="aw"/><path fill="#333" d="M135-143c-3-34-86-38-87 0 15 53 115 12 119 90S17 21 10-45l28-5c4 36 97 45 98 0-10-56-113-15-118-90-4-57 82-63 122-42 12 7 21 19 24 35" id="ax"/><path fill="#333" d="M68-38c1 34 0 65-14 84H32c9-13 17-26 17-46H33v-38h35" id="ay"/><g id="g"><use transform="matrix(0.06172839506172839,0,0,0.06172839506172839,0,0)" xlink:href="#av"/><use transform="matrix(0.06172839506172839,0,0,0.06172839506172839,18.456790123456788,0)" xlink:href="#aw"/><use transform="matrix(0.06172839506172839,0,0,0.06172839506172839,30.80246913580247,0)" xlink:href="#ax"/><use transform="matrix(0.06172839506172839,0,0,0.06172839506172839,41.91358024691358,0)" xlink:href="#ay"/></g><g id="h"><use transform="matrix(0.06172839506172839,0,0,0.06172839506172839,0,0)" xlink:href="#af"/><use transform="matrix(0.06172839506172839,0,0,0.06172839506172839,4.876543209876543,0)" xlink:href="#ae"/><use transform="matrix(0.06172839506172839,0,0,0.06172839506172839,17.22222222222222,0)" xlink:href="#au"/></g><path fill="#333" d="M141-36C126-15 110 5 73 4 37 3 15-17 15-53c-1-64 63-63 125-63 3-35-9-54-41-54-24 1-41 7-42 31l-33-3c5-37 33-52 76-52 45 0 72 20 72 64v82c-1 20 7 32 28 27v20c-31 9-61-2-59-35zM48-53c0 20 12 33 32 33 41-3 63-29 60-74-43 2-92-5-92 41" id="az"/><path fill="#333" d="M177-190C167-65 218 103 67 71c-23-6-38-20-44-43l32-5c15 47 100 32 89-28v-30C133-14 115 1 83 1 29 1 15-40 15-95c0-56 16-97 71-98 29-1 48 16 59 35 1-10 0-23 2-32h30zM94-22c36 0 50-32 50-73 0-42-14-75-50-75-39 0-46 34-46 75s6 73 46 73" id="aA"/><g id="i"><use transform="matrix(0.06172839506172839,0,0,0.06172839506172839,0,0)" xlink:href="#az"/><use transform="matrix(0.06172839506172839,0,0,0.06172839506172839,12.345679012345679,0)" xlink:href="#aA"/><use transform="matrix(0.06172839506172839,0,0,0.06172839506172839,24.691358024691358,0)" xlink:href="#ae"/><use transform="matrix(0.06172839506172839,0,0,0.06172839506172839,37.03703703703704,0)" xlink:href="#ah"/></g><g id="j"><use transform="matrix(0.06172839506172839,0,0,0.06172839506172839,0,0)" xlink:href="#az"/><use transform="matrix(0.06172839506172839,0,0,0.06172839506172839,12.345679012345679,0)" xlink:href="#aA"/><use transform="matrix(0.06172839506172839,0,0,0.06172839506172839,24.691358024691358,0)" xlink:href="#ae"/><use transform="matrix(0.06172839506172839,0,0,0.06172839506172839,37.03703703703704,0)" xlink:href="#ah"/></g><path fill="#333" d="M248-111c6-24 9-61-24-58-72 9-57 108-77 169h-31l26-142c3-37-50-30-64-10C52-115 50-51 37 0H6l36-190h30c-1 10-6 24-4 32 13-43 101-52 105 5 13-22 29-41 61-41 90 0 28 129 23 194h-31" id="aB"/><g id="k"><use transform="matrix(0.06172839506172839,0,0,0.06172839506172839,0,0)" xlink:href="#aB"/><use transform="matrix(0.06172839506172839,0,0,0.06172839506172839,18.456790123456788,0)" xlink:href="#ao"/><use transform="matrix(0.06172839506172839,0,0,0.06172839506172839,30.80246913580247,0)" xlink:href="#ap"/><use transform="matrix(0.06172839506172839,0,0,0.06172839506172839,41.91358024691358,0)" xlink:href="#aj"/></g><g id="l"><use transform="matrix(0.06172839506172839,0,0,0.06172839506172839,0,0)" xlink:href="#av"/><use transform="matrix(0.06172839506172839,0,0,0.06172839506172839,18.456790123456788,0)" xlink:href="#aw"/><use transform="matrix(0.06172839506172839,0,0,0.06172839506172839,30.80246913580247,0)" xlink:href="#ax"/></g><g id="n"><use transform="matrix(0.06172839506172839,0,0,0.06172839506172839,0,0)" xlink:href="#av"/><use transform="matrix(0.06172839506172839,0,0,0.06172839506172839,18.456790123456788,0)" xlink:href="#aw"/><use transform="matrix(0.06172839506172839,0,0,0.06172839506172839,30.80246913580247,0)" xlink:href="#ax"/></g><path fill="#333" d="M27 0v-27h64v-190l-56 39v-29l58-41h29v221h61V0H27" id="aC"/><g id="o"><use transform="matrix(0.06172839506172839,0,0,0.06172839506172839,0,0)" xlink:href="#aC"/><use transform="matrix(0.06172839506172839,0,0,0.06172839506172839,12.345679012345679,0)" xlink:href="#ay"/></g><path fill="#333" d="M126-127c33 6 58 20 58 59 0 88-139 92-164 29-3-8-5-16-6-25l32-3c6 27 21 44 54 44 32 0 52-15 52-46 0-38-36-46-79-43v-28c39 1 72-4 72-42 0-27-17-43-46-43-28 0-47 15-49 41l-32-3c6-42 35-63 81-64 48-1 79 21 79 65 0 36-21 52-52 59" id="aD"/><g id="p"><use transform="matrix(0.06172839506172839,0,0,0.06172839506172839,0,0)" xlink:href="#aD"/><use transform="matrix(0.06172839506172839,0,0,0.06172839506172839,12.345679012345679,0)" xlink:href="#ay"/></g><path fill="#333" d="M54-142c48-35 137-8 131 61C196 18 31 33 14-55l32-4c7 23 22 37 52 37 35-1 51-22 54-58 4-55-73-65-99-34H22l8-134h141v27H59" id="aE"/><g id="q"><use transform="matrix(0.06172839506172839,0,0,0.06172839506172839,0,0)" xlink:href="#aE"/><use transform="matrix(0.06172839506172839,0,0,0.06172839506172839,12.345679012345679,0)" xlink:href="#ay"/></g><path fill="#333" d="M64 0c3-98 48-159 88-221H18v-27h164v26C143-157 98-101 97 0H64" id="aF"/><g id="r"><use transform="matrix(0.06172839506172839,0,0,0.06172839506172839,0,0)" xlink:href="#aF"/><use transform="matrix(0.06172839506172839,0,0,0.06172839506172839,12.345679012345679,0)" xlink:href="#ay"/></g><path fill="#333" d="M134-131c28 9 52 24 51 62-1 50-34 73-85 73S17-19 16-69c0-36 21-54 49-61-75-25-45-126 34-121 46 3 78 18 79 63 0 33-17 51-44 57zm-34-11c31 1 46-15 46-44 0-28-17-43-47-42-29 0-46 13-45 42 1 28 16 44 46 44zm1 122c35 0 51-18 51-52 0-30-18-46-53-46-33 0-51 17-51 47 0 34 19 51 53 51" id="aG"/><g id="s"><use transform="matrix(0.06172839506172839,0,0,0.06172839506172839,0,0)" xlink:href="#aG"/><use transform="matrix(0.06172839506172839,0,0,0.06172839506172839,12.345679012345679,0)" xlink:href="#ay"/></g><path fill="#333" d="M101-251c68 0 85 55 85 127S166 4 100 4C33 4 14-52 14-124c0-73 17-127 87-127zm-1 229c47 0 54-49 54-102s-4-102-53-102c-51 0-55 48-55 102 0 53 5 102 54 102" id="aH"/><g id="t"><use transform="matrix(0.06172839506172839,0,0,0.06172839506172839,0,0)" xlink:href="#aC"/><use transform="matrix(0.06172839506172839,0,0,0.06172839506172839,12.345679012345679,0)" xlink:href="#aH"/><use transform="matrix(0.06172839506172839,0,0,0.06172839506172839,24.691358024691358,0)" xlink:href="#ay"/></g><path fill="#333" d="M101-251c82-7 93 87 43 132L82-64C71-53 59-42 53-27h129V0H18c2-99 128-94 128-182 0-28-16-43-45-43s-46 15-49 41l-32-3c6-41 34-60 81-64" id="aI"/><g id="u"><use transform="matrix(0.06172839506172839,0,0,0.06172839506172839,0,0)" xlink:href="#aC"/><use transform="matrix(0.06172839506172839,0,0,0.06172839506172839,12.345679012345679,0)" xlink:href="#aI"/></g><path fill="#333" d="M155-56V0h-30v-56H8v-25l114-167h33v167h35v25h-35zm-30-156c-27 46-58 90-88 131h88v-131" id="aJ"/><g id="v"><use transform="matrix(0.06172839506172839,0,0,0.06172839506172839,0,0)" xlink:href="#aJ"/><use transform="matrix(0.06172839506172839,0,0,0.06172839506172839,12.345679012345679,0)" xlink:href="#ay"/></g><path fill="#333" d="M110-160c48 1 74 30 74 79 0 53-28 85-80 85-65 0-83-55-86-122-5-90 50-162 133-122 14 7 22 21 27 39l-31 6c-5-40-67-38-82-6-9 19-15 44-15 74 11-20 30-34 60-33zm-7 138c34 0 49-23 49-58s-16-56-50-56c-29 0-50 16-49 49 1 36 15 65 50 65" id="aK"/><g id="w"><use transform="matrix(0.06172839506172839,0,0,0.06172839506172839,0,0)" xlink:href="#aK"/><use transform="matrix(0.06172839506172839,0,0,0.06172839506172839,12.345679012345679,0)" xlink:href="#ay"/></g><path fill="#333" d="M99-251c64 0 84 50 84 122C183-37 130 33 47-8c-14-7-20-23-25-40l30-5c6 39 69 39 84 7 9-19 16-44 16-74-10 22-31 35-62 35-49 0-73-33-73-83 0-54 28-83 82-83zm-1 141c31-1 51-18 51-49 0-36-14-67-51-67-34 0-49 23-49 58 0 34 15 58 49 58" id="aL"/><g id="x"><use transform="matrix(0.06172839506172839,0,0,0.06172839506172839,0,0)" xlink:href="#aL"/><use transform="matrix(0.06172839506172839,0,0,0.06172839506172839,12.345679012345679,0)" xlink:href="#ay"/></g><g id="y"><use transform="matrix(0.06172839506172839,0,0,0.06172839506172839,0,0)" xlink:href="#aC"/><use transform="matrix(0.06172839506172839,0,0,0.06172839506172839,10.679012345679013,0)" xlink:href="#aC"/></g><path fill="#333" d="M87 75C49 33 22-17 22-94c0-76 28-126 65-167h31c-38 41-64 92-64 168S80 34 118 75H87" id="aM"/><g id="A"><use transform="matrix(0.049382716049382706,0,0,0.049382716049382706,0,0)" xlink:href="#aM"/><use transform="matrix(0.049382716049382706,0,0,0.049382716049382706,5.876543209876542,0)" xlink:href="#az"/><use transform="matrix(0.049382716049382706,0,0,0.049382716049382706,15.75308641975308,0)" xlink:href="#aA"/><use transform="matrix(0.049382716049382706,0,0,0.049382716049382706,25.629629629629626,0)" xlink:href="#ae"/><use transform="matrix(0.049382716049382706,0,0,0.049382716049382706,35.50617283950616,0)" xlink:href="#ah"/></g><path fill="#333" d="M252-156c43 0 55 33 55 80 0 46-13 78-56 78-42 0-55-33-55-78 0-48 12-80 56-80zM93 0H65l162-248h28zM13-171c-1-47 13-79 56-79s55 33 55 79-13 79-55 79c-43 0-56-33-56-79zM251-17c28 0 30-29 30-59 0-31-1-60-29-60-29 0-31 29-31 60 0 29 2 59 30 59zM69-112c27 0 28-30 29-59 0-31-1-60-29-60-29 0-30 30-30 60s2 59 30 59" id="aN"/><use transform="matrix(0.049382716049382706,0,0,0.049382716049382706,0,0)" xlink:href="#aN" id="B"/><g id="C"><use transform="matrix(0.049382716049382706,0,0,0.049382716049382706,0,0)" xlink:href="#aJ"/><use transform="matrix(0.049382716049382706,0,0,0.049382716049382706,9.87654320987654,0)" xlink:href="#aH"/><use transform="matrix(0.049382716049382706,0,0,0.049382716049382706,19.75308641975308,0)" xlink:href="#aH"/></g><path fill="#333" d="M18-150v-26h174v26H18zm0 90v-26h174v26H18" id="aO"/><g id="D"><use transform="matrix(0.049382716049382706,0,0,0.049382716049382706,0,0)" xlink:href="#aO"/><use transform="matrix(0.049382716049382706,0,0,0.049382716049382706,10.370370370370368,0)" xlink:href="#aO"/></g><path fill="#333" d="M33-261c38 41 65 92 65 168S71 34 33 75H2C39 34 66-17 66-93S39-220 2-261h31" id="aP"/><g id="E"><use transform="matrix(0.049382716049382706,0,0,0.049382716049382706,0,0)" xlink:href="#aH"/><use transform="matrix(0.049382716049382706,0,0,0.049382716049382706,9.87654320987654,0)" xlink:href="#aP"/></g><path fill="#333" d="M32 76v-337h29V76H32" id="aQ"/><g id="F"><use transform="matrix(0.049382716049382706,0,0,0.049382716049382706,0,0)" xlink:href="#aQ"/><use transform="matrix(0.049382716049382706,0,0,0.049382716049382706,4.592592592592592,0)" xlink:href="#aQ"/></g><g id="G"><use transform="matrix(0.049382716049382706,0,0,0.049382716049382706,0,0)" xlink:href="#aM"/><use transform="matrix(0.049382716049382706,0,0,0.049382716049382706,5.876543209876542,0)" xlink:href="#aM"/><use transform="matrix(0.049382716049382706,0,0,0.049382716049382706,11.753086419753084,0)" xlink:href="#az"/><use transform="matrix(0.049382716049382706,0,0,0.049382716049382706,21.629629629629626,0)" xlink:href="#aA"/><use transform="matrix(0.049382716049382706,0,0,0.049382716049382706,31.506172839506167,0)" xlink:href="#ae"/><use transform="matrix(0.049382716049382706,0,0,0.049382716049382706,41.38271604938271,0)" xlink:href="#ah"/></g><g id="H"><use transform="matrix(0.049382716049382706,0,0,0.049382716049382706,0,0)" xlink:href="#aC"/><use transform="matrix(0.049382716049382706,0,0,0.049382716049382706,9.87654320987654,0)" xlink:href="#aH"/><use transform="matrix(0.049382716049382706,0,0,0.049382716049382706,19.75308641975308,0)" xlink:href="#aH"/></g><path fill="#333" d="M63-70H37l-4-178h34zM33 0v-35h34V0H33" id="aR"/><g id="I"><use transform="matrix(0.049382716049382706,0,0,0.049382716049382706,0,0)" xlink:href="#aR"/><use transform="matrix(0.049382716049382706,0,0,0.049382716049382706,4.93827160493827,0)" xlink:href="#aO"/></g><g id="J"><use transform="matrix(0.049382716049382706,0,0,0.049382716049382706,0,0)" xlink:href="#aH"/><use transform="matrix(0.049382716049382706,0,0,0.049382716049382706,9.87654320987654,0)" xlink:href="#aP"/></g><path fill="#333" d="M234-2c-28 10-62 0-77-18C117 19 8 12 13-65c3-43 29-61 60-76-25-40-17-114 47-108 35 3 59 15 59 50 0 44-40 53-71 69 14 26 32 50 51 72 14-21 24-43 30-72l26 8c-9 33-21 57-38 82 13 13 33 22 57 15v23zM97-151c25-10 52-18 56-48-1-18-13-29-33-29-42 0-39 50-23 77zM42-66c-3 51 71 58 98 28-20-24-41-51-56-80-23 10-40 24-42 52" id="aS"/><g id="K"><use transform="matrix(0.049382716049382706,0,0,0.049382716049382706,0,0)" xlink:href="#aS"/><use transform="matrix(0.049382716049382706,0,0,0.049382716049382706,11.85185185185185,0)" xlink:href="#aS"/></g><g id="L"><use transform="matrix(0.049382716049382706,0,0,0.049382716049382706,0,0)" xlink:href="#aM"/><use transform="matrix(0.049382716049382706,0,0,0.049382716049382706,5.876543209876542,0)" xlink:href="#az"/><use transform="matrix(0.049382716049382706,0,0,0.049382716049382706,15.75308641975308,0)" xlink:href="#aA"/><use transform="matrix(0.049382716049382706,0,0,0.049382716049382706,25.629629629629626,0)" xlink:href="#ae"/><use transform="matrix(0.049382716049382706,0,0,0.049382716049382706,35.50617283950616,0)" xlink:href="#ah"/></g><use transform="matrix(0.049382716049382706,0,0,0.049382716049382706,0,0)" xlink:href="#aJ" id="M"/><g id="N"><use transform="matrix(0.049382716049382706,0,0,0.049382716049382706,0,0)" xlink:href="#aH"/><use transform="matrix(0.049382716049382706,0,0,0.049382716049382706,9.87654320987654,0)" xlink:href="#aP"/><use transform="matrix(0.049382716049382706,0,0,0.049382716049382706,15.75308641975308,0)" xlink:href="#aP"/></g><path fill="#333" d="M151-220L108 0H75l42-220H32l6-28h203l-5 28h-85" id="aT"/><g id="O"><use transform="matrix(0.0493827160493827,0,0,0.0493827160493827,0,0)" xlink:href="#aj"/><use transform="matrix(0.0493827160493827,0,0,0.0493827160493827,6.271604938271603,0)" xlink:href="#aT"/><use transform="matrix(0.0493827160493827,0,0,0.0493827160493827,16.938271604938265,0)" xlink:href="#as"/><use transform="matrix(0.0493827160493827,0,0,0.0493827160493827,20.8395061728395,0)" xlink:href="#ao"/><use transform="matrix(0.0493827160493827,0,0,0.0493827160493827,30.71604938271604,0)" xlink:href="#al"/><use transform="matrix(0.0493827160493827,0,0,0.0493827160493827,40.592592592592574,0)" xlink:href="#ao"/></g><path fill="#333" d="M123-251c66 0 92 69 53 113C138-94 73-75 39-27h128l-5 27H-2c17-92 123-93 159-163 14-28-1-64-36-62-29 2-46 17-54 41l-30-6c13-36 37-61 86-61" id="aU"/><path fill="#333" d="M40-53c7 41 73 38 88 5 14-18 25-43 30-72-13 20-31 35-60 35-44 0-69-27-69-70 0-57 32-96 91-96 58 0 76 44 72 106C186-56 125 37 35-9c-12-6-19-20-23-36zm62-57c67 0 87-116 17-116-39 0-58 29-58 71 1 27 12 45 41 45" id="aV"/><g id="P"><use transform="matrix(0.0493827160493827,0,0,0.0493827160493827,0,0)" xlink:href="#aU"/><use transform="matrix(0.0493827160493827,0,0,0.0493827160493827,9.876543209876539,0)" xlink:href="#aV"/></g><path fill="#333" d="M133-28C103 26-5 8 13-77c13-62 24-115 90-117 29-1 46 15 56 35l19-102h32L160 0h-30zM45-64c-2 27 10 43 35 43 54-1 69-50 69-103 0-29-15-46-42-46-53-1-58 58-62 106" id="aW"/><g id="Q"><use transform="matrix(0.0493827160493827,0,0,0.0493827160493827,0,0)" xlink:href="#aW"/><use transform="matrix(0.0493827160493827,0,0,0.0493827160493827,9.876543209876539,0)" xlink:href="#as"/><use transform="matrix(0.0493827160493827,0,0,0.0493827160493827,13.77777777777777,0)" xlink:href="#ar"/><use transform="matrix(0.0493827160493827,0,0,0.0493827160493827,23.65432098765431,0)" xlink:href="#ap"/><use transform="matrix(0.0493827160493827,0,0,0.0493827160493827,32.543209876543195,0)" xlink:href="#aj"/></g><path fill="#333" d="M39-185c1-48 36-66 85-66 42 0 74 18 74 59 0 38-25 57-56 64 23 7 40 22 40 52 0 55-39 80-94 80C40 4 10-17 9-63c-1-44 31-60 63-71-20-7-33-25-33-51zm31 3c0 26 17 39 46 39 34 0 48-18 49-48 0-25-18-36-45-36-32 0-50 15-50 45zm79 105c0-29-19-41-50-41-37 0-57 20-57 55 0 29 19 42 49 42 36 0 58-19 58-56" id="aX"/><g id="R"><use transform="matrix(0.0493827160493827,0,0,0.0493827160493827,0,0)" xlink:href="#aU"/><use transform="matrix(0.0493827160493827,0,0,0.0493827160493827,9.876543209876539,0)" xlink:href="#aX"/></g><path fill="#333" d="M85-194c31 0 48 13 60 33l-1-100h32l1 261h-30c-2-10 0-23-3-31C134-8 116 4 85 4 32 4 16-35 15-94c0-66 23-100 70-100zm9 24c-40 0-46 34-46 75 0 40 6 74 45 74 42 0 51-32 51-76 0-42-9-74-50-73" id="aY"/><path fill="#333" d="M101-234c-31-9-42 10-38 44h38v23H63V0H32v-167H5v-23h27c-7-52 17-82 69-68v24" id="aZ"/><path fill="#333" d="M84 4C-5 8 30-112 23-190h32v120c0 31 7 50 39 49 72-2 45-101 50-169h31l1 190h-30c-1-10 1-25-2-33-11 22-28 36-60 37" id="ba"/><path fill="#333" d="M24 0v-261h32V0H24" id="bb"/><g id="S"><use transform="matrix(0.06172839506172839,0,0,0.06172839506172839,0,0)" xlink:href="#aY"/><use transform="matrix(0.06172839506172839,0,0,0.06172839506172839,12.345679012345679,0)" xlink:href="#aw"/><use transform="matrix(0.06172839506172839,0,0,0.06172839506172839,24.691358024691358,0)" xlink:href="#aZ"/><use transform="matrix(0.06172839506172839,0,0,0.06172839506172839,30.864197530864196,0)" xlink:href="#az"/><use transform="matrix(0.06172839506172839,0,0,0.06172839506172839,43.20987654320987,0)" xlink:href="#ba"/><use transform="matrix(0.06172839506172839,0,0,0.06172839506172839,55.55555555555555,0)" xlink:href="#bb"/><use transform="matrix(0.06172839506172839,0,0,0.06172839506172839,60.432098765432094,0)" xlink:href="#au"/></g><use transform="matrix(0.06172839506172839,0,0,0.06172839506172839,0,0)" xlink:href="#aI" id="T"/><path fill="#333" d="M148-71c0-36-31-44-71-41l5-28c46 3 81-6 81-50 0-23-15-35-39-35-30 0-49 17-56 41l-32-3c12-39 42-63 90-64 43 0 69 19 71 60 1 43-30 58-65 66 27 5 49 22 49 53 0 85-133 99-164 35-4-7-7-15-9-22l29-9c8 25 25 45 58 45 34 1 53-17 53-48" id="bc"/><path fill="#333" d="M16-82c0-90 25-169 113-169 48 0 68 33 68 82C197-79 170 4 84 4 37 4 16-31 16-82zm30 5c0 32 11 55 40 55 69 0 76-79 80-149 2-32-10-55-39-55-69 0-81 81-81 149" id="bd"/><g id="U"><use transform="matrix(0.0493827160493827,0,0,0.0493827160493827,0,0)" xlink:href="#bc"/><use transform="matrix(0.0493827160493827,0,0,0.0493827160493827,9.876543209876539,0)" xlink:href="#bd"/></g><path fill="#333" d="M9 0l6-27h63l36-188-63 39 6-31 66-41h29L110-27h60l-5 27H9" id="be"/><g id="V"><use transform="matrix(0.0493827160493827,0,0,0.0493827160493827,0,0)" xlink:href="#bc"/><use transform="matrix(0.0493827160493827,0,0,0.0493827160493827,9.876543209876539,0)" xlink:href="#be"/></g><path fill="#333" d="M11 0l48-248h184l-5 28H87l-15 79h140l-5 27H67L50-27h158l-5 27H11" id="bf"/><g id="W"><use transform="matrix(0.0493827160493827,0,0,0.0493827160493827,0,0)" xlink:href="#aj"/><use transform="matrix(0.0493827160493827,0,0,0.0493827160493827,6.271604938271603,0)" xlink:href="#bf"/><use transform="matrix(0.0493827160493827,0,0,0.0493827160493827,18.12345679012345,0)" xlink:href="#aq"/></g><path fill="#333" d="M67 3c-93-2-31-127-26-193h32L48-50c-3 39 53 32 70 12 30-34 30-101 43-152h32L157 0h-30c1-10 6-24 4-33-14 20-29 37-64 36" id="bg"/><g id="X"><use transform="matrix(0.0493827160493827,0,0,0.0493827160493827,0,0)" xlink:href="#al"/><use transform="matrix(0.0493827160493827,0,0,0.0493827160493827,9.876543209876539,0)" xlink:href="#bg"/><use transform="matrix(0.0493827160493827,0,0,0.0493827160493827,19.753086419753078,0)" xlink:href="#aB"/><use transform="matrix(0.0493827160493827,0,0,0.0493827160493827,34.518518518518505,0)" xlink:href="#ao"/><use transform="matrix(0.0493827160493827,0,0,0.0493827160493827,44.39506172839504,0)" xlink:href="#an"/><use transform="matrix(0.0493827160493827,0,0,0.0493827160493827,50.27160493827158,0)" xlink:href="#at"/></g><g id="Y"><use transform="matrix(0.0493827160493827,0,0,0.0493827160493827,0,0)" xlink:href="#al"/><use transform="matrix(0.0493827160493827,0,0,0.0493827160493827,9.876543209876539,0)" xlink:href="#at"/></g><path fill="#333" d="M44-68c0 29 11 47 38 47 30 0 42-19 51-41l28 9C148-21 126 4 82 4 31 4 10-29 12-85c3-77 74-140 146-93 12 8 15 23 18 40l-31 5c-1-22-13-36-36-36-52 0-65 49-65 101" id="bh"/><path fill="#333" d="M67-162c32-53 139-36 121 50C175-51 163 2 97 4 68 4 52-11 42-31 38 6 28 39 22 75H-9l50-265h29c-1 10 0 20-3 28zm89 36c0-26-10-43-35-43-54 0-67 50-69 103-1 29 14 45 42 46 53 0 62-58 62-106" id="bi"/><g id="Z"><use transform="matrix(0.0493827160493827,0,0,0.0493827160493827,0,0)" xlink:href="#bh"/><use transform="matrix(0.0493827160493827,0,0,0.0493827160493827,8.888888888888886,0)" xlink:href="#at"/><use transform="matrix(0.0493827160493827,0,0,0.0493827160493827,18.765432098765423,0)" xlink:href="#an"/><use transform="matrix(0.0493827160493827,0,0,0.0493827160493827,24.641975308641964,0)" xlink:href="#an"/><use transform="matrix(0.0493827160493827,0,0,0.0493827160493827,30.5185185185185,0)" xlink:href="#ao"/><use transform="matrix(0.0493827160493827,0,0,0.0493827160493827,40.39506172839504,0)" xlink:href="#ap"/><use transform="matrix(0.0493827160493827,0,0,0.0493827160493827,49.28395061728393,0)" xlink:href="#bi"/><use transform="matrix(0.0493827160493827,0,0,0.0493827160493827,59.160493827160465,0)" xlink:href="#at"/><use transform="matrix(0.0493827160493827,0,0,0.0493827160493827,69.03703703703701,0)" xlink:href="#al"/><use transform="matrix(0.0493827160493827,0,0,0.0493827160493827,78.91358024691355,0)" xlink:href="#aW"/><use transform="matrix(0.0493827160493827,0,0,0.0493827160493827,88.7901234567901,0)" xlink:href="#ao"/></g><use transform="matrix(0.0493827160493827,0,0,0.0493827160493827,0,0)" xlink:href="#ar" id="aa"/><g id="ab"><use transform="matrix(0.0493827160493827,0,0,0.0493827160493827,0,0)" xlink:href="#al"/><use transform="matrix(0.0493827160493827,0,0,0.0493827160493827,9.876543209876539,0)" xlink:href="#as"/><use transform="matrix(0.0493827160493827,0,0,0.0493827160493827,13.77777777777777,0)" xlink:href="#al"/><use transform="matrix(0.0493827160493827,0,0,0.0493827160493827,23.65432098765431,0)" xlink:href="#am"/><use transform="matrix(0.0493827160493827,0,0,0.0493827160493827,33.530864197530846,0)" xlink:href="#bg"/><use transform="matrix(0.0493827160493827,0,0,0.0493827160493827,43.40740740740738,0)" xlink:href="#al"/></g><g id="ac"><use transform="matrix(0.0493827160493827,0,0,0.0493827160493827,0,0)" xlink:href="#aB"/><use transform="matrix(0.0493827160493827,0,0,0.0493827160493827,14.765432098765427,0)" xlink:href="#ao"/><use transform="matrix(0.0493827160493827,0,0,0.0493827160493827,24.641975308641968,0)" xlink:href="#ap"/><use transform="matrix(0.0493827160493827,0,0,0.0493827160493827,33.53086419753085,0)" xlink:href="#aj"/></g></defs></g></svg>