<svg xmlns="http://www.w3.org/2000/svg" xmlns:xlink="http://www.w3.org/1999/xlink" xmlns:lucid="lucid" width="1820" height="3042.5"><g transform="translate(-27.133858267683536 1201.5000968400907)" lucid:page-tab-id="mqq~0e8~QhKL"><path d="M0-1258.83h1870.87v3840.5H0z" fill="#fff"/><path d="M1014.58-1100c0 44.18-35.8 80-80 80-44.18 0-80-35.82-80-80s35.82-80 80-80c44.2 0 80 35.82 80 80z" stroke="#5e5e5e" stroke-width="3" fill="#fff"/><use xlink:href="#a" transform="matrix(1,0,0,1,859.5826771653706,-1175) translate(49.1358024691358 78.71527777777777)"/><path d="M1007.13 1739.5c0 44.18-35.8 80-80 80-44.18 0-80-35.82-80-80s35.82-80 80-80c44.2 0 80 35.82 80 80z" stroke="#5e5e5e" stroke-width="3" fill="#fff"/><use xlink:href="#b" transform="matrix(1,0,0,1,852.1338582676835,1664.5) translate(59.62962962962963 78.71527777777777)"/><path d="M1183.04-665.8a4.6 4.6 0 0 1-4.46 5.8h-488a4.6 4.6 0 0 1-4.45-5.8l23.57-88.4a7.8 7.8 0 0 1 7.55-5.8h434.67a7.8 7.8 0 0 1 7.54 5.8z" stroke="#5e5e5e" stroke-width="3" fill="#fff"/><path d="M754.58-749a6 6 0 0 1 6-6h348a6 6 0 0 1 6 6v78a6 6 0 0 1-6 6h-348a6 6 0 0 1-6-6z" stroke="#000" stroke-opacity="0" stroke-width="3" fill="#fff" fill-opacity="0"/><use xlink:href="#c" transform="matrix(1,0,0,1,759.5826771653706,-750.0000000000001) translate(42.25308641975312 17.77777777777778)"/><use xlink:href="#d" transform="matrix(1,0,0,1,759.5826771653706,-750.0000000000001) translate(130.2777777777778 17.77777777777778)"/><use xlink:href="#e" transform="matrix(1,0,0,1,759.5826771653706,-750.0000000000001) translate(153.67283950617286 17.77777777777778)"/><use xlink:href="#f" transform="matrix(1,0,0,1,759.5826771653706,-750.0000000000001) translate(222.56172839506172 17.77777777777778)"/><use xlink:href="#g" transform="matrix(1,0,0,1,759.5826771653706,-750.0000000000001) translate(283.05555555555554 17.77777777777778)"/><use xlink:href="#h" transform="matrix(1,0,0,1,759.5826771653706,-750.0000000000001) translate(15.40123456790127 44.44444444444444)"/><use xlink:href="#i" transform="matrix(1,0,0,1,759.5826771653706,-750.0000000000001) translate(107.8703703703704 44.44444444444444)"/><use xlink:href="#j" transform="matrix(1,0,0,1,759.5826771653706,-750.0000000000001) translate(194.2283950617284 44.44444444444444)"/><use xlink:href="#k" transform="matrix(1,0,0,1,759.5826771653706,-750.0000000000001) translate(275.46296296296293 44.44444444444444)"/><use xlink:href="#l" transform="matrix(1,0,0,1,759.5826771653706,-750.0000000000001) translate(298.85802469135797 44.44444444444444)"/><use xlink:href="#m" transform="matrix(1,0,0,1,759.5826771653706,-750.0000000000001) translate(36.049382716049394 71.11111111111111)"/><use xlink:href="#k" transform="matrix(1,0,0,1,759.5826771653706,-750.0000000000001) translate(96.4814814814815 71.11111111111111)"/><use xlink:href="#n" transform="matrix(1,0,0,1,759.5826771653706,-750.0000000000001) translate(119.87654320987654 71.11111111111111)"/><use xlink:href="#o" transform="matrix(1,0,0,1,759.5826771653706,-750.0000000000001) translate(167.96296296296296 71.11111111111111)"/><use xlink:href="#m" transform="matrix(1,0,0,1,759.5826771653706,-750.0000000000001) translate(185.2469135802469 71.11111111111111)"/><use xlink:href="#k" transform="matrix(1,0,0,1,759.5826771653706,-750.0000000000001) translate(245.679012345679 71.11111111111111)"/><use xlink:href="#p" transform="matrix(1,0,0,1,759.5826771653706,-750.0000000000001) translate(269.0740740740741 71.11111111111111)"/><path d="M711.4-934.2a7.8 7.8 0 0 1 7.55-5.8h461.33a4.6 4.6 0 0 1 4.46 5.8l-23.58 88.4a7.8 7.8 0 0 1-7.54 5.8H692.28a4.6 4.6 0 0 1-4.45-5.8z" stroke="#5e5e5e" stroke-width="3" fill="#fff"/><use xlink:href="#q" transform="matrix(1,0,0,1,691.2834645669125,-935) translate(109.27043209876545 37.46527777777778)"/><use xlink:href="#r" transform="matrix(1,0,0,1,691.2834645669125,-935) translate(138.83833333333334 37.46527777777778)"/><use xlink:href="#s" transform="matrix(1,0,0,1,691.2834645669125,-935) translate(193.0975925925926 37.46527777777778)"/><use xlink:href="#t" transform="matrix(1,0,0,1,691.2834645669125,-935) translate(222.6654938271605 37.46527777777778)"/><use xlink:href="#s" transform="matrix(1,0,0,1,691.2834645669125,-935) translate(289.27043209876547 37.46527777777778)"/><use xlink:href="#u" transform="matrix(1,0,0,1,691.2834645669125,-935) translate(318.83833333333337 37.46527777777778)"/><use xlink:href="#v" transform="matrix(1,0,0,1,691.2834645669125,-935) translate(105.35685185185186 64.13194444444446)"/><use xlink:href="#w" transform="matrix(1,0,0,1,691.2834645669125,-935) translate(134.92475308641974 64.13194444444446)"/><use xlink:href="#s" transform="matrix(1,0,0,1,691.2834645669125,-935) translate(189.184012345679 64.13194444444446)"/><use xlink:href="#x" transform="matrix(1,0,0,1,691.2834645669125,-935) translate(218.7519135802469 64.13194444444446)"/><use xlink:href="#s" transform="matrix(1,0,0,1,691.2834645669125,-935) translate(285.35685185185184 64.13194444444446)"/><use xlink:href="#y" transform="matrix(1,0,0,1,691.2834645669125,-935) translate(314.92475308641974 64.13194444444446)"/><path d="M686.13-574.2a4.6 4.6 0 0 1 4.45-5.8h488a4.6 4.6 0 0 1 4.46 5.8l-23.58 88.4a7.8 7.8 0 0 1-7.54 5.8H717.25a7.8 7.8 0 0 1-7.55-5.8z" stroke="#5e5e5e" stroke-width="3" fill="#fff"/><use xlink:href="#z" transform="matrix(1,0,0,1,689.5826771653706,-575) translate(224.0482098765432 48.71527777777778)"/><path d="M934.58-1017.5v57.52" stroke="#5e5e5e" stroke-width="2" fill="none"/><path d="M934.56-1018.5h1.01v1.03h-2v-1.06z" stroke="#5e5e5e" stroke-width=".05" fill="#5e5e5e"/><path d="M934.58-944.7l-4.63-14.27h9.27z" stroke="#5e5e5e" stroke-width="2" fill="#5e5e5e"/><path d="M936.28-837.54v57.57" stroke="#5e5e5e" stroke-width="2" fill="none"/><path d="M937.28-837.5h-2v-1.04h2z" stroke="#5e5e5e" stroke-width=".05" fill="#5e5e5e"/><path d="M936.28-764.7l-4.63-14.27h9.27z" stroke="#5e5e5e" stroke-width="2" fill="#5e5e5e"/><path d="M934.58-657.54v57.58" stroke="#5e5e5e" stroke-width="2" fill="none"/><path d="M935.58-657.5h-2v-1.04h2z" stroke="#5e5e5e" stroke-width=".05" fill="#5e5e5e"/><path d="M934.58-584.7l-4.63-14.26h9.27z" stroke="#5e5e5e" stroke-width="2" fill="#5e5e5e"/><path d="M935.43-479V-419.96M935.43-478.97V-480" stroke="#5e5e5e" stroke-width="2" fill="none"/><path d="M935.43-404.7l-4.63-14.26h9.27z" stroke="#5e5e5e" stroke-width="2" fill="#5e5e5e"/><path d="M927.13 1581v58.5M927.13 1581.03V1580" stroke="#5e5e5e" stroke-width="2" fill="none"/><path d="M927.13 1654.76l-4.63-14.26h9.27z" stroke="#5e5e5e" stroke-width="2" fill="#5e5e5e"/><path d="M686.98-394.2a4.6 4.6 0 0 1 4.45-5.8h488a4.6 4.6 0 0 1 4.46 5.8l-23.6 88.4a7.8 7.8 0 0 1-7.53 5.8H718.1a7.8 7.8 0 0 1-7.55-5.8z" stroke="#5e5e5e" stroke-width="3" fill="#fff"/><use xlink:href="#A" transform="matrix(1,0,0,1,690.4330708661416,-395) translate(217.87537037037038 48.71527777777778)"/><path d="M936.28-299V-239.96M936.28-298.97V-300" stroke="#5e5e5e" stroke-width="2" fill="none"/><path d="M936.28-224.7l-4.63-14.26h9.27z" stroke="#5e5e5e" stroke-width="2" fill="#5e5e5e"/><path d="M47.13 842.25a6 6 0 0 1 6-6h1768a6 6 0 0 1 6 6V1574a6 6 0 0 1-6 6h-1768a6 6 0 0 1-6-6z" stroke="#5e5e5e" stroke-width="3" fill="#fff"/><path d="M53.04 835.2a.52.52 0 0 0 .1 1.05h1768a.52.52 0 0 0 .08-1.04L943.04 681.05a34.18 34.18 0 0 0-11.82 0z" stroke="#5e5e5e" stroke-width="3" fill="#fff"/><use xlink:href="#B" transform="matrix(1,0,0,1,52.133858267683536,685) translate(885.005 63.71527777777778)"/><use xlink:href="#C" transform="matrix(1,0,0,1,52.133858267683536,685) translate(804.1408024691358 90.38194444444446)"/><use xlink:href="#D" transform="matrix(1,0,0,1,52.133858267683536,685) translate(872.0420370370371 90.38194444444446)"/><use xlink:href="#E" transform="matrix(1,0,0,1,52.133858267683536,685) translate(904.1408024691358 90.38194444444446)"/><path d="M1407.13 1209.5a6 6 0 0 1 6-6h361.72a6 6 0 0 1 6 6v125.75a6 6 0 0 1-6 6h-361.72a6 6 0 0 1-6-6z" stroke="#5e5e5e" stroke-width="3" fill="#fff"/><path d="M1412.8 1202.44a1 1 0 0 0 .33 1.96h361.72a1 1 0 0 0 .33-1.96l-175.52-60.48a17.4 17.4 0 0 0-11.34 0z" stroke="#5e5e5e" stroke-width="3" fill="#fff"/><use xlink:href="#F" transform="matrix(1,0,0,1,1412.133858267684,1145) translate(182.005 21.09722222222222)"/><use xlink:href="#G" transform="matrix(1,0,0,1,1412.133858267684,1145) translate(121.99882716049385 42.43055555555556)"/><use xlink:href="#H" transform="matrix(1,0,0,1,1412.133858267684,1145) translate(176.31981481481483 42.43055555555556)"/><use xlink:href="#I" transform="matrix(1,0,0,1,1412.133858267684,1145) translate(191.62845679012344 42.43055555555556)"/><path d="M1569.15 1300.43a4.6 4.6 0 0 1-4.46 5.8h-131.57a4.6 4.6 0 0 1-4.45-5.8l14.96-56.1a7.8 7.8 0 0 1 7.55-5.8h95.44a7.8 7.8 0 0 1 7.55 5.8z" stroke="#5e5e5e" stroke-width="3" fill="#fff"/><path d="M1447.23 1241.38a6 6 0 0 1 6-6h91.37a6 6 0 0 1 6 6v62a6 6 0 0 1-6 6h-91.37a6 6 0 0 1-6-6z" stroke="#000" stroke-opacity="0" stroke-width="3" fill="#fff" fill-opacity="0"/><use xlink:href="#J" transform="matrix(1,0,0,1,1452.2323303865098,1240.377777777778) translate(9.83333333333335 18.666666666666664)"/><use xlink:href="#K" transform="matrix(1,0,0,1,1452.2323303865098,1240.377777777778) translate(33.05555555555556 18.666666666666664)"/><use xlink:href="#L" transform="matrix(1,0,0,1,1452.2323303865098,1240.377777777778) translate(0.370370370370388 34.66666666666666)"/><use xlink:href="#M" transform="matrix(1,0,0,1,1452.2323303865098,1240.377777777778) translate(36.666666666666664 34.66666666666666)"/><use xlink:href="#N" transform="matrix(1,0,0,1,1452.2323303865098,1240.377777777778) translate(54.444444444444436 34.66666666666666)"/><use xlink:href="#O" transform="matrix(1,0,0,1,1452.2323303865098,1240.377777777778) translate(68.48148148148147 34.66666666666666)"/><use xlink:href="#P" transform="matrix(1,0,0,1,1452.2323303865098,1240.377777777778) translate(20.98148148148149 50.66666666666665)"/><path d="M1759.3 1300.43a4.6 4.6 0 0 1-4.45 5.8H1623.3a4.6 4.6 0 0 1-4.46-5.8l14.96-56.1a7.8 7.8 0 0 1 7.54-5.8h95.46a7.8 7.8 0 0 1 7.54 5.8z" stroke="#5e5e5e" stroke-width="3" fill="#fff"/><path d="M1637.4 1241.38a6 6 0 0 1 6-6h91.35a6 6 0 0 1 6 6v62a6 6 0 0 1-6 6h-91.36a6 6 0 0 1-6-6z" stroke="#000" stroke-opacity="0" stroke-width="3" fill="#fff" fill-opacity="0"/><use xlink:href="#J" transform="matrix(1,0,0,1,1642.3883506851168,1240.377777777778) translate(16.57407407407409 18.666666666666664)"/><use xlink:href="#Q" transform="matrix(1,0,0,1,1642.3883506851168,1240.377777777778) translate(39.796296296296305 18.666666666666664)"/><use xlink:href="#L" transform="matrix(1,0,0,1,1642.3883506851168,1240.377777777778) translate(0.370370370370388 34.66666666666666)"/><use xlink:href="#M" transform="matrix(1,0,0,1,1642.3883506851168,1240.377777777778) translate(36.666666666666664 34.66666666666666)"/><use xlink:href="#N" transform="matrix(1,0,0,1,1642.3883506851168,1240.377777777778) translate(54.444444444444436 34.66666666666666)"/><use xlink:href="#O" transform="matrix(1,0,0,1,1642.3883506851168,1240.377777777778) translate(68.48148148148147 34.66666666666666)"/><use xlink:href="#R" transform="matrix(1,0,0,1,1642.3883506851168,1240.377777777778) translate(20.98148148148149 50.66666666666665)"/><path d="M687.83-214.2a4.6 4.6 0 0 1 4.45-5.8h488a4.6 4.6 0 0 1 4.46 5.8l-23.58 88.4a7.8 7.8 0 0 1-7.54 5.8H718.95a7.8 7.8 0 0 1-7.55-5.8z" stroke="#5e5e5e" stroke-width="3" fill="#fff"/><use xlink:href="#S" transform="matrix(1,0,0,1,691.2834645669125,-215) translate(214.1408024691358 48.71527777777778)"/><path d="M937.13-119v60.45M937.13-118.97V-120" stroke="#5e5e5e" stroke-width="2" fill="none"/><path d="M937.13-43.28l-4.63-14.27h9.27z" stroke="#5e5e5e" stroke-width="2" fill="#5e5e5e"/><path d="M1183.9 54.2a4.6 4.6 0 0 1-4.47 5.8h-488a4.6 4.6 0 0 1-4.45-5.8l23.57-88.4a7.8 7.8 0 0 1 7.55-5.8h434.67a7.8 7.8 0 0 1 7.54 5.8z" stroke="#5e5e5e" stroke-width="3" fill="#fff"/><path d="M755.43-29a6 6 0 0 1 6-6h348a6 6 0 0 1 6 6v78a6 6 0 0 1-6 6h-348a6 6 0 0 1-6-6z" stroke="#000" stroke-opacity="0" stroke-width="3" fill="#fff" fill-opacity="0"/><use xlink:href="#c" transform="matrix(1,0,0,1,760.4330708661414,-30.000000000000114) translate(31.018518518518533 17.77777777777778)"/><use xlink:href="#d" transform="matrix(1,0,0,1,760.4330708661414,-30.000000000000114) translate(119.04320987654322 17.77777777777778)"/><use xlink:href="#T" transform="matrix(1,0,0,1,760.4330708661414,-30.000000000000114) translate(142.43827160493828 17.77777777777778)"/><use xlink:href="#f" transform="matrix(1,0,0,1,760.4330708661414,-30.000000000000114) translate(233.7962962962963 17.77777777777778)"/><use xlink:href="#g" transform="matrix(1,0,0,1,760.4330708661414,-30.000000000000114) translate(294.2901234567901 17.77777777777778)"/><use xlink:href="#h" transform="matrix(1,0,0,1,760.4330708661414,-30.000000000000114) translate(15.40123456790127 44.44444444444444)"/><use xlink:href="#i" transform="matrix(1,0,0,1,760.4330708661414,-30.000000000000114) translate(107.8703703703704 44.44444444444444)"/><use xlink:href="#j" transform="matrix(1,0,0,1,760.4330708661414,-30.000000000000114) translate(194.2283950617284 44.44444444444444)"/><use xlink:href="#k" transform="matrix(1,0,0,1,760.4330708661414,-30.000000000000114) translate(275.46296296296293 44.44444444444444)"/><use xlink:href="#l" transform="matrix(1,0,0,1,760.4330708661414,-30.000000000000114) translate(298.85802469135797 44.44444444444444)"/><use xlink:href="#m" transform="matrix(1,0,0,1,760.4330708661414,-30.000000000000114) translate(36.049382716049394 71.11111111111111)"/><use xlink:href="#k" transform="matrix(1,0,0,1,760.4330708661414,-30.000000000000114) translate(96.4814814814815 71.11111111111111)"/><use xlink:href="#n" transform="matrix(1,0,0,1,760.4330708661414,-30.000000000000114) translate(119.87654320987654 71.11111111111111)"/><use xlink:href="#o" transform="matrix(1,0,0,1,760.4330708661414,-30.000000000000114) translate(167.96296296296296 71.11111111111111)"/><use xlink:href="#m" transform="matrix(1,0,0,1,760.4330708661414,-30.000000000000114) translate(185.2469135802469 71.11111111111111)"/><use xlink:href="#k" transform="matrix(1,0,0,1,760.4330708661414,-30.000000000000114) translate(245.679012345679 71.11111111111111)"/><use xlink:href="#p" transform="matrix(1,0,0,1,760.4330708661414,-30.000000000000114) translate(269.0740740740741 71.11111111111111)"/><path d="M686.98 145.8a4.6 4.6 0 0 1 4.45-5.8h488a4.6 4.6 0 0 1 4.46 5.8l-23.6 88.4a7.8 7.8 0 0 1-7.53 5.8H718.1a7.8 7.8 0 0 1-7.55-5.8z" stroke="#5e5e5e" stroke-width="3" fill="#fff"/><g><use xlink:href="#U" transform="matrix(1,0,0,1,690.4330708661414,144.99999999999997) translate(224.0482098765432 48.71527777777778)"/></g><path d="M935.43 62.46v57.58" stroke="#5e5e5e" stroke-width="2" fill="none"/><path d="M936.43 62.5h-2v-1.04h2z" stroke="#5e5e5e" stroke-width=".05" fill="#5e5e5e"/><path d="M935.43 135.3l-4.63-14.26h9.27z" stroke="#5e5e5e" stroke-width="2" fill="#5e5e5e"/><path d="M936.28 241V300.04M936.28 241.03V240" stroke="#5e5e5e" stroke-width="2" fill="none"/><path d="M936.28 315.3l-4.63-14.26h9.27z" stroke="#5e5e5e" stroke-width="2" fill="#5e5e5e"/><path d="M687.83 325.8a4.6 4.6 0 0 1 4.45-5.8h488a4.6 4.6 0 0 1 4.46 5.8l-23.58 88.4a7.8 7.8 0 0 1-7.54 5.8H718.95a7.8 7.8 0 0 1-7.55-5.8z" stroke="#5e5e5e" stroke-width="3" fill="#fff"/><g><use xlink:href="#V" transform="matrix(1,0,0,1,691.2834645669127,325) translate(217.87537037037038 48.71527777777778)"/></g><path d="M937.13 421v59.04M937.13 421.03V420" stroke="#5e5e5e" stroke-width="2" fill="none"/><path d="M937.13 495.3l-4.63-14.26h9.27z" stroke="#5e5e5e" stroke-width="2" fill="#5e5e5e"/><path d="M688.68 505.8a4.6 4.6 0 0 1 4.45-5.8h488a4.6 4.6 0 0 1 4.46 5.8l-23.6 88.4a7.8 7.8 0 0 1-7.53 5.8H719.8a7.8 7.8 0 0 1-7.55-5.8z" stroke="#5e5e5e" stroke-width="3" fill="#fff"/><g><use xlink:href="#W" transform="matrix(1,0,0,1,692.1338582676835,505) translate(214.1408024691358 48.71527777777778)"/></g><path d="M937.98 601v60.45M937.98 601.03V600" stroke="#5e5e5e" stroke-width="2" fill="none"/><path d="M937.98 676.72l-4.63-14.27h9.27z" stroke="#5e5e5e" stroke-width="2" fill="#5e5e5e"/><path d="M87.13 1039.23a6 6 0 0 1 6-6h1236.3a6 6 0 0 1 6 6v486.64a6 6 0 0 1-6 6H93.13a6 6 0 0 1-6-6zM92.96 1031.8a.73.73 0 0 0 .17 1.43h1236.3a.73.73 0 0 0 .18-1.43L717.1 881.43a24.44 24.44 0 0 0-11.64 0z" stroke="#5e5e5e" stroke-width="3" fill="#fff"/><g><use xlink:href="#B" transform="matrix(1,0,0,1,92.13385826768354,885) translate(619.505 62.77777777777778)"/><use xlink:href="#X" transform="matrix(1,0,0,1,92.13385826768354,885) translate(546.109938271605 89.44444444444446)"/><use xlink:href="#D" transform="matrix(1,0,0,1,92.13385826768354,885) translate(606.5420370370371 89.44444444444446)"/><use xlink:href="#Y" transform="matrix(1,0,0,1,92.13385826768354,885) translate(638.6408024691358 89.44444444444446)"/></g><path d="M927.13 1239.12a6 6 0 0 1 6-6h361.72a6 6 0 0 1 6 6v171.43a6 6 0 0 1-6 6H933.13a6 6 0 0 1-6-6z" stroke="#5e5e5e" stroke-width="3" fill="#fff"/><path d="M932.6 1231.8a1.3 1.3 0 0 0 .53 2.5h361.72a1.3 1.3 0 0 0 .55-2.5l-175.95-80.75a13.07 13.07 0 0 0-10.9 0z" stroke="#5e5e5e" stroke-width="3" fill="#fff"/><g><use xlink:href="#F" transform="matrix(1,0,0,1,932.1338582676836,1153.5493793076441) translate(182.005 30.84722222222222)"/><use xlink:href="#Z" transform="matrix(1,0,0,1,932.1338582676836,1153.5493793076441) translate(127.97413580246916 52.18055555555555)"/><use xlink:href="#H" transform="matrix(1,0,0,1,932.1338582676836,1153.5493793076441) translate(176.31981481481483 52.18055555555555)"/><use xlink:href="#aa" transform="matrix(1,0,0,1,932.1338582676836,1153.5493793076441) translate(191.62845679012344 52.18055555555555)"/></g><g><path d="M1089.15 1364.1a4.6 4.6 0 0 1-4.46 5.8H953.12a4.6 4.6 0 0 1-4.45-5.8l20.95-78.54a7.8 7.8 0 0 1 7.54-5.8h83.48a7.8 7.8 0 0 1 7.55 5.8z" stroke="#5e5e5e" stroke-width="3" fill="#fff"/></g><path d="M967.23 1281.56a6 6 0 0 1 6-6h91.37a6 6 0 0 1 6 6v86.55a6 6 0 0 1-6 6h-91.37a6 6 0 0 1-6-6z" stroke="#000" stroke-opacity="0" stroke-width="3" fill="#fff" fill-opacity="0"/><g><use xlink:href="#J" transform="matrix(1,0,0,1,972.2323303865093,1280.5634555230274) translate(9.83333333333335 30.135416666666664)"/><use xlink:href="#K" transform="matrix(1,0,0,1,972.2323303865093,1280.5634555230274) translate(33.05555555555556 30.135416666666664)"/><use xlink:href="#L" transform="matrix(1,0,0,1,972.2323303865093,1280.5634555230274) translate(0.370370370370388 46.13541666666666)"/><use xlink:href="#M" transform="matrix(1,0,0,1,972.2323303865093,1280.5634555230274) translate(36.666666666666664 46.13541666666666)"/><use xlink:href="#N" transform="matrix(1,0,0,1,972.2323303865093,1280.5634555230274) translate(54.444444444444436 46.13541666666666)"/><use xlink:href="#O" transform="matrix(1,0,0,1,972.2323303865093,1280.5634555230274) translate(68.48148148148147 46.13541666666666)"/><use xlink:href="#P" transform="matrix(1,0,0,1,972.2323303865093,1280.5634555230274) translate(20.98148148148149 62.13541666666665)"/></g><g><path d="M1279.3 1364.1a4.6 4.6 0 0 1-4.45 5.8H1143.3a4.6 4.6 0 0 1-4.46-5.8l20.94-78.54a7.8 7.8 0 0 1 7.55-5.8h83.48a7.8 7.8 0 0 1 7.56 5.8z" stroke="#5e5e5e" stroke-width="3" fill="#fff"/></g><path d="M1157.4 1281.56a6 6 0 0 1 6-6h91.35a6 6 0 0 1 6 6v86.55a6 6 0 0 1-6 6h-91.36a6 6 0 0 1-6-6z" stroke="#000" stroke-opacity="0" stroke-width="3" fill="#fff" fill-opacity="0"/><g><use xlink:href="#J" transform="matrix(1,0,0,1,1162.3883506851164,1280.5634555230274) translate(16.57407407407409 30.135416666666664)"/><use xlink:href="#Q" transform="matrix(1,0,0,1,1162.3883506851164,1280.5634555230274) translate(39.796296296296305 30.135416666666664)"/><use xlink:href="#L" transform="matrix(1,0,0,1,1162.3883506851164,1280.5634555230274) translate(0.370370370370388 46.13541666666666)"/><use xlink:href="#M" transform="matrix(1,0,0,1,1162.3883506851164,1280.5634555230274) translate(36.666666666666664 46.13541666666666)"/><use xlink:href="#N" transform="matrix(1,0,0,1,1162.3883506851164,1280.5634555230274) translate(54.444444444444436 46.13541666666666)"/><use xlink:href="#O" transform="matrix(1,0,0,1,1162.3883506851164,1280.5634555230274) translate(68.48148148148147 46.13541666666666)"/><use xlink:href="#R" transform="matrix(1,0,0,1,1162.3883506851164,1280.5634555230274) translate(20.98148148148149 62.13541666666665)"/></g><path d="M127 1234.12a6 6 0 0 1 6-6h721.73a6 6 0 0 1 6 6v251.75a6 6 0 0 1-6 6H133a6 6 0 0 1-6-6z" stroke="#5e5e5e" stroke-width="3" fill="#fff"/><path d="M132.53 1225.77a1.22 1.22 0 0 0 .48 2.35h721.73a1.22 1.22 0 0 0 .48-2.35l-355.8-151.54a14.1 14.1 0 0 0-11.05 0z" stroke="#5e5e5e" stroke-width="3" fill="#fff"/><g><use xlink:href="#B" transform="matrix(1,0,0,1,132.0094488188526,1076.8749999999998) translate(362.005 63.71527777777778)"/><use xlink:href="#ab" transform="matrix(1,0,0,1,132.0094488188526,1076.8749999999998) translate(300.9556172839506 90.38194444444446)"/><use xlink:href="#D" transform="matrix(1,0,0,1,132.0094488188526,1076.8749999999998) translate(349.04203703703706 90.38194444444446)"/><use xlink:href="#ac" transform="matrix(1,0,0,1,132.0094488188526,1076.8749999999998) translate(381.1408024691358 90.38194444444446)"/></g><path d="M459.3 1320.13a6 6 0 0 1 6-6H827a6 6 0 0 1 6 6v125.74a6 6 0 0 1-6 6H465.3a6 6 0 0 1-6-6z" stroke="#5e5e5e" stroke-width="3" fill="#fff"/><path d="M464.96 1313.07a1 1 0 0 0 .33 1.95H827a1 1 0 0 0 .33-1.95l-175.5-60.5a17.4 17.4 0 0 0-11.36 0z" stroke="#5e5e5e" stroke-width="3" fill="#fff"/><g><use xlink:href="#F" transform="matrix(1,0,0,1,464.28503937002176,1255.6249999999998) translate(182.005 21.09722222222222)"/><use xlink:href="#ad" transform="matrix(1,0,0,1,464.28503937002176,1255.6249999999998) translate(137.8506790123457 42.43055555555556)"/><use xlink:href="#H" transform="matrix(1,0,0,1,464.28503937002176,1255.6249999999998) translate(176.31981481481483 42.43055555555556)"/><use xlink:href="#ae" transform="matrix(1,0,0,1,464.28503937002176,1255.6249999999998) translate(191.62845679012344 42.43055555555556)"/></g><g><path d="M621.3 1411.05a4.6 4.6 0 0 1-4.45 5.8H485.3a4.6 4.6 0 0 1-4.47-5.8l14.96-56.1a7.8 7.8 0 0 1 7.54-5.8h95.45a7.8 7.8 0 0 1 7.54 5.8z" stroke="#5e5e5e" stroke-width="3" fill="#fff"/></g><path d="M499.38 1352a6 6 0 0 1 6-6h91.37a6 6 0 0 1 6 6v62a6 6 0 0 1-6 6h-91.37a6 6 0 0 1-6-6z" stroke="#000" stroke-opacity="0" stroke-width="3" fill="#fff" fill-opacity="0"/><g><use xlink:href="#J" transform="matrix(1,0,0,1,504.3835114888469,1351.0027777777775) translate(9.83333333333335 18.666666666666664)"/><use xlink:href="#K" transform="matrix(1,0,0,1,504.3835114888469,1351.0027777777775) translate(33.05555555555556 18.666666666666664)"/><use xlink:href="#L" transform="matrix(1,0,0,1,504.3835114888469,1351.0027777777775) translate(0.370370370370388 34.66666666666666)"/><use xlink:href="#M" transform="matrix(1,0,0,1,504.3835114888469,1351.0027777777775) translate(36.666666666666664 34.66666666666666)"/><use xlink:href="#N" transform="matrix(1,0,0,1,504.3835114888469,1351.0027777777775) translate(54.444444444444436 34.66666666666666)"/><use xlink:href="#O" transform="matrix(1,0,0,1,504.3835114888469,1351.0027777777775) translate(68.48148148148147 34.66666666666666)"/><use xlink:href="#P" transform="matrix(1,0,0,1,504.3835114888469,1351.0027777777775) translate(20.98148148148149 50.66666666666665)"/></g><g><path d="M426.3 1228.87a.75.75 0 0 1 .74.75v260.75a.75.75 0 0 1-.75.75.75.75 0 0 1-.76-.75v-260.75a.75.75 0 0 1 .75-.75z" stroke="#5e5e5e" stroke-width="1.5" fill="none"/></g><g><path d="M646.14 1315.78a.75.75 0 0 1 .75.75v133.85a.75.75 0 0 1-.76.75.75.75 0 0 1-.75-.75v-133.85a.75.75 0 0 1 .74-.75z" stroke="#5e5e5e" stroke-width="1.5" fill="none"/></g><g><path d="M811.46 1411.05a4.6 4.6 0 0 1-4.46 5.8H675.44a4.6 4.6 0 0 1-4.45-5.8l14.95-56.1a7.8 7.8 0 0 1 7.54-5.8h95.45a7.8 7.8 0 0 1 7.54 5.8z" stroke="#5e5e5e" stroke-width="3" fill="#fff"/></g><path d="M689.54 1352a6 6 0 0 1 6-6h91.36a6 6 0 0 1 6 6v62a6 6 0 0 1-6 6h-91.36a6 6 0 0 1-6-6z" stroke="#000" stroke-opacity="0" stroke-width="3" fill="#fff" fill-opacity="0"/><g><use xlink:href="#J" transform="matrix(1,0,0,1,694.5395317874546,1351.0027777777775) translate(16.57407407407409 18.666666666666664)"/><use xlink:href="#Q" transform="matrix(1,0,0,1,694.5395317874546,1351.0027777777775) translate(39.796296296296305 18.666666666666664)"/><use xlink:href="#L" transform="matrix(1,0,0,1,694.5395317874546,1351.0027777777775) translate(0.370370370370388 34.66666666666666)"/><use xlink:href="#M" transform="matrix(1,0,0,1,694.5395317874546,1351.0027777777775) translate(36.666666666666664 34.66666666666666)"/><use xlink:href="#N" transform="matrix(1,0,0,1,694.5395317874546,1351.0027777777775) translate(54.444444444444436 34.66666666666666)"/><use xlink:href="#O" transform="matrix(1,0,0,1,694.5395317874546,1351.0027777777775) translate(68.48148148148147 34.66666666666666)"/><use xlink:href="#R" transform="matrix(1,0,0,1,694.5395317874546,1351.0027777777775) translate(20.98148148148149 50.66666666666665)"/></g><g><path d="M391.74 1392.9a4.6 4.6 0 0 1-4.45 5.78h-228a4.6 4.6 0 0 1-4.47-5.8l17.54-65.77a7.8 7.8 0 0 1 7.55-5.78h186.73a7.8 7.8 0 0 1 7.55 5.8z" stroke="#5e5e5e" stroke-width="3" fill="#fff"/></g><path d="M186.9 1325a6 6 0 0 1 6-6h160.8a6 6 0 0 1 6 6v70a6 6 0 0 1-6 6H192.9a6 6 0 0 1-6-6z" stroke="#000" stroke-opacity="0" stroke-width="3" fill="#fff" fill-opacity="0"/><g><use xlink:href="#af" transform="matrix(1,0,0,1,191.8850393700218,1323.9999999999998) translate(22.09259259259261 29.97222222222222)"/><use xlink:href="#ag" transform="matrix(1,0,0,1,191.8850393700218,1323.9999999999998) translate(88.56172839506172 29.97222222222222)"/><use xlink:href="#ah" transform="matrix(1,0,0,1,191.8850393700218,1323.9999999999998) translate(33.47530864197532 51.30555555555555)"/><use xlink:href="#ai" transform="matrix(1,0,0,1,191.8850393700218,1323.9999999999998) translate(67.05555555555556 51.30555555555555)"/></g><g><path d="M1114 1235.06a.75.75 0 0 1 .74.75v182.7a.75.75 0 0 1-.75.75.75.75 0 0 1-.76-.75v-182.7a.75.75 0 0 1 .75-.74z" stroke="#5e5e5e" stroke-width="1.5" fill="none"/></g><g><path d="M1594 1205.15a.75.75 0 0 1 .74.75v132.6a.75.75 0 0 1-.75.75.75.75 0 0 1-.76-.75v-132.6a.75.75 0 0 1 .75-.75z" stroke="#5e5e5e" stroke-width="1.5" fill="none"/></g><g><path d="M893.93 1033.98a.75.75 0 0 1 .75.75v493.77a.75.75 0 0 1-.75.75.75.75 0 0 1-.75-.75v-493.77a.75.75 0 0 1 .75-.75z" stroke="#5e5e5e" stroke-width="1.5" fill="none"/></g><g><path d="M1371.28 840.75a.75.75 0 0 1 .75.75v737a.75.75 0 0 1-.75.75.75.75 0 0 1-.75-.75v-737a.75.75 0 0 1 .75-.75z" stroke="#5e5e5e" stroke-width="1.5" fill="none"/></g><defs><path fill="#333" d="M33 0v-248h34V0H33" id="aj"/><path fill="#333" d="M117-194c89-4 53 116 60 194h-32v-121c0-31-8-49-39-48C34-167 62-67 57 0H25l-1-190h30c1 10-1 24 2 32 11-22 29-35 61-36" id="ak"/><path fill="#333" d="M24-231v-30h32v30H24zM24 0v-190h32V0H24" id="al"/><path fill="#333" d="M96-169c-40 0-48 33-48 73s9 75 48 75c24 0 41-14 43-38l32 2c-6 37-31 61-74 61-59 0-76-41-82-99-10-93 101-131 147-64 4 7 5 14 7 22l-32 3c-4-21-16-35-41-35" id="am"/><path fill="#333" d="M100-194c62-1 85 37 85 99 1 63-27 99-86 99S16-35 15-95c0-66 28-99 85-99zM99-20c44 1 53-31 53-75 0-43-8-75-51-75s-53 32-53 75 10 74 51 75" id="an"/><g id="a"><use transform="matrix(0.06172839506172839,0,0,0.06172839506172839,0,0)" xlink:href="#aj"/><use transform="matrix(0.06172839506172839,0,0,0.06172839506172839,6.172839506172839,0)" xlink:href="#ak"/><use transform="matrix(0.06172839506172839,0,0,0.06172839506172839,18.51851851851852,0)" xlink:href="#al"/><use transform="matrix(0.06172839506172839,0,0,0.06172839506172839,23.395061728395063,0)" xlink:href="#am"/><use transform="matrix(0.06172839506172839,0,0,0.06172839506172839,34.50617283950618,0)" xlink:href="#al"/><use transform="matrix(0.06172839506172839,0,0,0.06172839506172839,39.38271604938272,0)" xlink:href="#an"/></g><path fill="#333" d="M63-220v92h138v28H63V0H30v-248h175v28H63" id="ao"/><g id="b"><use transform="matrix(0.06172839506172839,0,0,0.06172839506172839,0,0)" xlink:href="#ao"/><use transform="matrix(0.06172839506172839,0,0,0.06172839506172839,13.518518518518517,0)" xlink:href="#al"/><use transform="matrix(0.06172839506172839,0,0,0.06172839506172839,18.39506172839506,0)" xlink:href="#ak"/></g><path fill="#333" d="M123-170H98l11-78h32zm-65 0H33l11-78h32" id="ap"/><path fill="#333" d="M14 0l48-248h34L48 0H14" id="aq"/><path fill="#333" d="M67-158c22-48 132-52 116 29L158 0h-32l25-140c3-38-53-32-70-12C52-117 51-52 38 0H6l36-190h30" id="ar"/><path fill="#333" d="M103-194c29 0 47 14 56 36 2-11 5-23 8-32h30L160-5C157 61 82 97 21 62 9 55 4 45 1 30l28-7c7 42 83 31 92-3 4-16 9-38 13-55-13 20-29 36-62 36-40 0-60-25-60-64 0-71 23-131 91-131zm4 24c-53 0-58 54-61 104-2 27 10 44 36 44 49 0 65-50 67-102 1-29-15-46-42-46" id="as"/><path fill="#333" d="M66-151c12-25 30-51 66-40l-6 26C45-176 58-65 38 0H6l36-190h30" id="at"/><path fill="#333" d="M111-194c62-3 86 47 72 106H45c-7 38 6 69 45 68 27-1 43-14 53-32l24 11C152-15 129 4 87 4 38 3 12-23 12-71c0-70 32-119 99-123zm44 81c14-66-71-72-95-28-4 8-8 17-11 28h106" id="au"/><path fill="#333" d="M55-144c13 50 104 24 104 88C159 21 15 23 1-39l26-10c6 40 102 42 102-4-13-50-104-23-104-87 0-71 143-71 148-8l-29 4c-5-35-85-37-89 0" id="av"/><g id="c"><use transform="matrix(0.06172839506172839,0,0,0.06172839506172839,0,0)" xlink:href="#ap"/><use transform="matrix(0.06172839506172839,0,0,0.06172839506172839,7.8395061728395055,0)" xlink:href="#aq"/><use transform="matrix(0.06172839506172839,0,0,0.06172839506172839,14.012345679012345,0)" xlink:href="#ar"/><use transform="matrix(0.06172839506172839,0,0,0.06172839506172839,26.358024691358025,0)" xlink:href="#as"/><use transform="matrix(0.06172839506172839,0,0,0.06172839506172839,38.7037037037037,0)" xlink:href="#at"/><use transform="matrix(0.06172839506172839,0,0,0.06172839506172839,46.04938271604938,0)" xlink:href="#au"/><use transform="matrix(0.06172839506172839,0,0,0.06172839506172839,58.395061728395056,0)" xlink:href="#av"/><use transform="matrix(0.06172839506172839,0,0,0.06172839506172839,69.50617283950616,0)" xlink:href="#au"/></g><path fill="#333" d="M6 0l50-261h32L37 0H6" id="aw"/><path fill="#333" d="M165-48c-4 18 1 34 23 27l-3 20c-29 8-62 0-52-35h-2C116-14 99 4 63 4 30 4 8-16 8-49c0-68 71-67 138-67 10-26 0-56-31-54-26 1-42 9-47 31l-32-5c8-67 160-71 144 15-5 28-9 54-15 81zM42-50c3 52 80 24 89-6 7-12 7-24 11-38-47 1-103-4-100 44" id="ax"/><g id="d"><use transform="matrix(0.06172839506172839,0,0,0.06172839506172839,0,0)" xlink:href="#aw"/><use transform="matrix(0.06172839506172839,0,0,0.06172839506172839,4.876543209876543,0)" xlink:href="#ax"/></g><path fill="#333" d="M67-162c32-53 139-36 121 50C175-51 163 2 97 4 68 4 52-11 42-31 38 6 28 39 22 75H-9l50-265h29c-1 10 0 20-3 28zm89 36c0-26-10-43-35-43-54 0-67 50-69 103-1 29 14 45 42 46 53 0 62-58 62-106" id="ay"/><path fill="#333" d="M50-231l6-30h32l-6 30H50zM6 0l37-190h31L37 0H6" id="az"/><path fill="#333" d="M248-111c6-24 9-61-24-58-72 9-57 108-77 169h-31l26-142c3-37-50-30-64-10C52-115 50-51 37 0H6l36-190h30c-1 10-6 24-4 32 13-43 101-52 105 5 13-22 29-41 61-41 90 0 28 129 23 194h-31" id="aA"/><g id="e"><use transform="matrix(0.06172839506172839,0,0,0.06172839506172839,0,0)" xlink:href="#ay"/><use transform="matrix(0.06172839506172839,0,0,0.06172839506172839,12.345679012345679,0)" xlink:href="#at"/><use transform="matrix(0.06172839506172839,0,0,0.06172839506172839,19.691358024691358,0)" xlink:href="#az"/><use transform="matrix(0.06172839506172839,0,0,0.06172839506172839,24.5679012345679,0)" xlink:href="#aA"/><use transform="matrix(0.06172839506172839,0,0,0.06172839506172839,43.02469135802468,0)" xlink:href="#au"/><use transform="matrix(0.06172839506172839,0,0,0.06172839506172839,55.37037037037036,0)" xlink:href="#at"/></g><path fill="#333" d="M76-167L44 0H12l33-167H18l4-23h27c3-47 25-81 82-69l-4 24c-35-8-44 15-46 45h37l-5 23H76" id="aB"/><path fill="#333" d="M44-68c0 29 11 47 38 47 30 0 42-19 51-41l28 9C148-21 126 4 82 4 31 4 10-29 12-85c3-77 74-140 146-93 12 8 15 23 18 40l-31 5c-1-22-13-36-36-36-52 0-65 49-65 101" id="aC"/><path fill="#333" d="M67-158c15-20 31-36 64-36 94 0 33 127 27 194h-32l25-140c3-38-53-32-70-12C52-117 51-51 37 0H6l51-261h31" id="aD"/><g id="f"><use transform="matrix(0.06172839506172839,0,0,0.06172839506172839,0,0)" xlink:href="#aB"/><use transform="matrix(0.06172839506172839,0,0,0.06172839506172839,6.172839506172839,0)" xlink:href="#au"/><use transform="matrix(0.06172839506172839,0,0,0.06172839506172839,18.51851851851852,0)" xlink:href="#aC"/><use transform="matrix(0.06172839506172839,0,0,0.06172839506172839,29.62962962962963,0)" xlink:href="#aD"/><use transform="matrix(0.06172839506172839,0,0,0.06172839506172839,41.97530864197531,0)" xlink:href="#ax"/></g><g id="g"><use transform="matrix(0.06172839506172839,0,0,0.06172839506172839,0,0)" xlink:href="#au"/><use transform="matrix(0.06172839506172839,0,0,0.06172839506172839,12.345679012345679,0)" xlink:href="#ar"/></g><path fill="#333" d="M67 3c-93-2-31-127-26-193h32L48-50c-3 39 53 32 70 12 30-34 30-101 43-152h32L157 0h-30c1-10 6-24 4-33-14 20-29 37-64 36" id="aE"/><path fill="#333" d="M30-147c31-64 166-65 159 27C183-49 158 1 86 4 9 8 1-88 30-147zM88-20c53 0 68-48 68-100 0-31-11-51-44-50-52 1-68 46-68 97 0 32 13 53 44 53" id="aF"/><g id="h"><use transform="matrix(0.06172839506172839,0,0,0.06172839506172839,0,0)" xlink:href="#ar"/><use transform="matrix(0.06172839506172839,0,0,0.06172839506172839,12.345679012345679,0)" xlink:href="#aE"/><use transform="matrix(0.06172839506172839,0,0,0.06172839506172839,24.691358024691358,0)" xlink:href="#aA"/><use transform="matrix(0.06172839506172839,0,0,0.06172839506172839,43.148148148148145,0)" xlink:href="#au"/><use transform="matrix(0.06172839506172839,0,0,0.06172839506172839,55.49382716049382,0)" xlink:href="#at"/><use transform="matrix(0.06172839506172839,0,0,0.06172839506172839,62.8395061728395,0)" xlink:href="#aF"/><use transform="matrix(0.06172839506172839,0,0,0.06172839506172839,75.18518518518518,0)" xlink:href="#av"/></g><path fill="#333" d="M51-54c-9 22 5 41 31 30L79-1C43 14 10-4 19-52l22-115H19l5-23h22l19-43h21l-9 43h35l-4 23H73" id="aG"/><path fill="#333" d="M44-154l7-36h35l-8 36H44zM14 0l7-36h35L49 0H14" id="aH"/><g id="i"><use transform="matrix(0.06172839506172839,0,0,0.06172839506172839,0,0)" xlink:href="#au"/><use transform="matrix(0.06172839506172839,0,0,0.06172839506172839,12.345679012345679,0)" xlink:href="#ar"/><use transform="matrix(0.06172839506172839,0,0,0.06172839506172839,24.691358024691358,0)" xlink:href="#aG"/><use transform="matrix(0.06172839506172839,0,0,0.06172839506172839,30.864197530864196,0)" xlink:href="#au"/><use transform="matrix(0.06172839506172839,0,0,0.06172839506172839,43.20987654320987,0)" xlink:href="#at"/><use transform="matrix(0.06172839506172839,0,0,0.06172839506172839,50.55555555555555,0)" xlink:href="#aF"/><use transform="matrix(0.06172839506172839,0,0,0.06172839506172839,62.90123456790123,0)" xlink:href="#av"/><use transform="matrix(0.06172839506172839,0,0,0.06172839506172839,74.01234567901234,0)" xlink:href="#aH"/></g><g id="j"><use transform="matrix(0.06172839506172839,0,0,0.06172839506172839,0,0)" xlink:href="#ay"/><use transform="matrix(0.06172839506172839,0,0,0.06172839506172839,12.345679012345679,0)" xlink:href="#at"/><use transform="matrix(0.06172839506172839,0,0,0.06172839506172839,19.691358024691358,0)" xlink:href="#az"/><use transform="matrix(0.06172839506172839,0,0,0.06172839506172839,24.5679012345679,0)" xlink:href="#aA"/><use transform="matrix(0.06172839506172839,0,0,0.06172839506172839,43.02469135802468,0)" xlink:href="#au"/><use transform="matrix(0.06172839506172839,0,0,0.06172839506172839,55.37037037037036,0)" xlink:href="#at"/><use transform="matrix(0.06172839506172839,0,0,0.06172839506172839,62.71604938271604,0)" xlink:href="#aF"/></g><g id="k"><use transform="matrix(0.06172839506172839,0,0,0.06172839506172839,0,0)" xlink:href="#au"/><use transform="matrix(0.06172839506172839,0,0,0.06172839506172839,12.345679012345679,0)" xlink:href="#aw"/></g><path fill="#333" d="M133-28C103 26-5 8 13-77c13-62 24-115 90-117 29-1 46 15 56 35l19-102h32L160 0h-30zM45-64c-2 27 10 43 35 43 54-1 69-50 69-103 0-29-15-46-42-46-53-1-58 58-62 106" id="aI"/><path fill="#333" d="M58-38C53-5 46 26 28 46H7C19 32 27 18 32 0H17l7-38h34" id="aJ"/><g id="l"><use transform="matrix(0.06172839506172839,0,0,0.06172839506172839,0,0)" xlink:href="#aI"/><use transform="matrix(0.06172839506172839,0,0,0.06172839506172839,12.345679012345679,0)" xlink:href="#az"/><use transform="matrix(0.06172839506172839,0,0,0.06172839506172839,17.22222222222222,0)" xlink:href="#ax"/><use transform="matrix(0.06172839506172839,0,0,0.06172839506172839,29.5679012345679,0)" xlink:href="#aJ"/></g><g id="m"><use transform="matrix(0.06172839506172839,0,0,0.06172839506172839,0,0)" xlink:href="#aw"/><use transform="matrix(0.06172839506172839,0,0,0.06172839506172839,4.876543209876543,0)" xlink:href="#aE"/><use transform="matrix(0.06172839506172839,0,0,0.06172839506172839,17.22222222222222,0)" xlink:href="#au"/><use transform="matrix(0.06172839506172839,0,0,0.06172839506172839,29.5679012345679,0)" xlink:href="#as"/><use transform="matrix(0.06172839506172839,0,0,0.06172839506172839,41.913580246913575,0)" xlink:href="#aF"/></g><g id="n"><use transform="matrix(0.06172839506172839,0,0,0.06172839506172839,0,0)" xlink:href="#aA"/><use transform="matrix(0.06172839506172839,0,0,0.06172839506172839,18.456790123456788,0)" xlink:href="#au"/><use transform="matrix(0.06172839506172839,0,0,0.06172839506172839,30.80246913580247,0)" xlink:href="#av"/></g><path fill="#333" d="M198-190L69 30C53 58 25 83-20 72c4-11-1-27 19-22 33-1 43-29 59-52L20-190h32L79-34l84-156h35" id="aK"/><use transform="matrix(0.06172839506172839,0,0,0.06172839506172839,0,0)" xlink:href="#aK" id="o"/><path fill="#333" d="M67-158c22-48 132-52 116 29L158 0h-32l25-140c3-38-53-32-70-12C52-117 51-52 38 0H6l36-190h30zm126-100c-8 21-15 46-44 47-22 0-30-19-50-21-14 0-21 10-25 21H58c8-21 14-47 44-47 22 0 32 18 50 21 13-1 21-10 25-21h16" id="aL"/><g id="p"><use transform="matrix(0.06172839506172839,0,0,0.06172839506172839,0,0)" xlink:href="#ax"/><use transform="matrix(0.06172839506172839,0,0,0.06172839506172839,12.345679012345679,0)" xlink:href="#aL"/><use transform="matrix(0.06172839506172839,0,0,0.06172839506172839,24.691358024691358,0)" xlink:href="#aF"/><use transform="matrix(0.06172839506172839,0,0,0.06172839506172839,37.03703703703704,0)" xlink:href="#ap"/></g><path fill="#333" d="M59-47c-2 24 18 29 38 22v24C64 9 27 4 27-40v-127H5v-23h24l9-43h21v43h35v23H59v120" id="aM"/><g id="q"><use transform="matrix(0.06172839506172839,0,0,0.06172839506172839,0,0)" xlink:href="#al"/><use transform="matrix(0.06172839506172839,0,0,0.06172839506172839,4.876543209876543,0)" xlink:href="#ak"/><use transform="matrix(0.06172839506172839,0,0,0.06172839506172839,17.22222222222222,0)" xlink:href="#aM"/></g><path fill="#333" d="M85-194c31 0 48 13 60 33l-1-100h32l1 261h-30c-2-10 0-23-3-31C134-8 116 4 85 4 32 4 16-35 15-94c0-66 23-100 70-100zm9 24c-40 0-46 34-46 75 0 40 6 74 45 74 42 0 51-32 51-76 0-42-9-74-50-73" id="aN"/><path fill="#333" d="M141-36C126-15 110 5 73 4 37 3 15-17 15-53c-1-64 63-63 125-63 3-35-9-54-41-54-24 1-41 7-42 31l-33-3c5-37 33-52 76-52 45 0 72 20 72 64v82c-1 20 7 32 28 27v20c-31 9-61-2-59-35zM48-53c0 20 12 33 32 33 41-3 63-29 60-74-43 2-92-5-92 41" id="aO"/><path fill="#333" d="M27 0v-27h64v-190l-56 39v-29l58-41h29v221h61V0H27" id="aP"/><path fill="#333" d="M68-38c1 34 0 65-14 84H32c9-13 17-26 17-46H33v-38h35" id="aQ"/><g id="r"><use transform="matrix(0.06172839506172839,0,0,0.06172839506172839,0,0)" xlink:href="#aN"/><use transform="matrix(0.06172839506172839,0,0,0.06172839506172839,12.345679012345679,0)" xlink:href="#al"/><use transform="matrix(0.06172839506172839,0,0,0.06172839506172839,17.22222222222222,0)" xlink:href="#aO"/><use transform="matrix(0.06172839506172839,0,0,0.06172839506172839,29.5679012345679,0)" xlink:href="#aP"/><use transform="matrix(0.06172839506172839,0,0,0.06172839506172839,41.913580246913575,0)" xlink:href="#aQ"/></g><g id="s"><use transform="matrix(0.06172839506172839,0,0,0.06172839506172839,0,0)" xlink:href="#al"/><use transform="matrix(0.06172839506172839,0,0,0.06172839506172839,4.876543209876543,0)" xlink:href="#ak"/><use transform="matrix(0.06172839506172839,0,0,0.06172839506172839,17.22222222222222,0)" xlink:href="#aM"/></g><path fill="#333" d="M210-169c-67 3-38 105-44 169h-31v-121c0-29-5-50-35-48C34-165 62-65 56 0H25l-1-190h30c1 10-1 24 2 32 10-44 99-50 107 0 11-21 27-35 58-36 85-2 47 119 55 194h-31v-121c0-29-5-49-35-48" id="aR"/><path fill="#333" d="M100-194c63 0 86 42 84 106H49c0 40 14 67 53 68 26 1 43-12 49-29l28 8c-11 28-37 45-77 45C44 4 14-33 15-96c1-61 26-98 85-98zm52 81c6-60-76-77-97-28-3 7-6 17-6 28h103" id="aS"/><path fill="#333" d="M135-143c-3-34-86-38-87 0 15 53 115 12 119 90S17 21 10-45l28-5c4 36 97 45 98 0-10-56-113-15-118-90-4-57 82-63 122-42 12 7 21 19 24 35" id="aT"/><g id="t"><use transform="matrix(0.06172839506172839,0,0,0.06172839506172839,0,0)" xlink:href="#aR"/><use transform="matrix(0.06172839506172839,0,0,0.06172839506172839,18.456790123456788,0)" xlink:href="#aS"/><use transform="matrix(0.06172839506172839,0,0,0.06172839506172839,30.80246913580247,0)" xlink:href="#aT"/><use transform="matrix(0.06172839506172839,0,0,0.06172839506172839,41.91358024691358,0)" xlink:href="#aP"/><use transform="matrix(0.06172839506172839,0,0,0.06172839506172839,54.25925925925926,0)" xlink:href="#aQ"/></g><path fill="#333" d="M177-190C167-65 218 103 67 71c-23-6-38-20-44-43l32-5c15 47 100 32 89-28v-30C133-14 115 1 83 1 29 1 15-40 15-95c0-56 16-97 71-98 29-1 48 16 59 35 1-10 0-23 2-32h30zM94-22c36 0 50-32 50-73 0-42-14-75-50-75-39 0-46 34-46 75s6 73 46 73" id="aU"/><g id="u"><use transform="matrix(0.06172839506172839,0,0,0.06172839506172839,0,0)" xlink:href="#aO"/><use transform="matrix(0.06172839506172839,0,0,0.06172839506172839,12.345679012345679,0)" xlink:href="#aU"/><use transform="matrix(0.06172839506172839,0,0,0.06172839506172839,24.691358024691358,0)" xlink:href="#ak"/><use transform="matrix(0.06172839506172839,0,0,0.06172839506172839,37.03703703703704,0)" xlink:href="#an"/><use transform="matrix(0.06172839506172839,0,0,0.06172839506172839,49.382716049382715,0)" xlink:href="#aP"/><use transform="matrix(0.06172839506172839,0,0,0.06172839506172839,61.72839506172839,0)" xlink:href="#aQ"/></g><g id="v"><use transform="matrix(0.06172839506172839,0,0,0.06172839506172839,0,0)" xlink:href="#al"/><use transform="matrix(0.06172839506172839,0,0,0.06172839506172839,4.876543209876543,0)" xlink:href="#ak"/><use transform="matrix(0.06172839506172839,0,0,0.06172839506172839,17.22222222222222,0)" xlink:href="#aM"/></g><path fill="#333" d="M101-251c82-7 93 87 43 132L82-64C71-53 59-42 53-27h129V0H18c2-99 128-94 128-182 0-28-16-43-45-43s-46 15-49 41l-32-3c6-41 34-60 81-64" id="aV"/><g id="w"><use transform="matrix(0.06172839506172839,0,0,0.06172839506172839,0,0)" xlink:href="#aN"/><use transform="matrix(0.06172839506172839,0,0,0.06172839506172839,12.345679012345679,0)" xlink:href="#al"/><use transform="matrix(0.06172839506172839,0,0,0.06172839506172839,17.22222222222222,0)" xlink:href="#aO"/><use transform="matrix(0.06172839506172839,0,0,0.06172839506172839,29.5679012345679,0)" xlink:href="#aV"/><use transform="matrix(0.06172839506172839,0,0,0.06172839506172839,41.913580246913575,0)" xlink:href="#aQ"/></g><g id="x"><use transform="matrix(0.06172839506172839,0,0,0.06172839506172839,0,0)" xlink:href="#aR"/><use transform="matrix(0.06172839506172839,0,0,0.06172839506172839,18.456790123456788,0)" xlink:href="#aS"/><use transform="matrix(0.06172839506172839,0,0,0.06172839506172839,30.80246913580247,0)" xlink:href="#aT"/><use transform="matrix(0.06172839506172839,0,0,0.06172839506172839,41.91358024691358,0)" xlink:href="#aV"/><use transform="matrix(0.06172839506172839,0,0,0.06172839506172839,54.25925925925926,0)" xlink:href="#aQ"/></g><g id="y"><use transform="matrix(0.06172839506172839,0,0,0.06172839506172839,0,0)" xlink:href="#aO"/><use transform="matrix(0.06172839506172839,0,0,0.06172839506172839,12.345679012345679,0)" xlink:href="#aU"/><use transform="matrix(0.06172839506172839,0,0,0.06172839506172839,24.691358024691358,0)" xlink:href="#ak"/><use transform="matrix(0.06172839506172839,0,0,0.06172839506172839,37.03703703703704,0)" xlink:href="#an"/><use transform="matrix(0.06172839506172839,0,0,0.06172839506172839,49.382716049382715,0)" xlink:href="#aV"/></g><g id="z"><use transform="matrix(0.06172839506172839,0,0,0.06172839506172839,0,0)" xlink:href="#aN"/><use transform="matrix(0.06172839506172839,0,0,0.06172839506172839,12.345679012345679,0)" xlink:href="#al"/><use transform="matrix(0.06172839506172839,0,0,0.06172839506172839,17.22222222222222,0)" xlink:href="#aO"/><use transform="matrix(0.06172839506172839,0,0,0.06172839506172839,29.5679012345679,0)" xlink:href="#aP"/></g><g id="A"><use transform="matrix(0.06172839506172839,0,0,0.06172839506172839,0,0)" xlink:href="#aR"/><use transform="matrix(0.06172839506172839,0,0,0.06172839506172839,18.456790123456788,0)" xlink:href="#aS"/><use transform="matrix(0.06172839506172839,0,0,0.06172839506172839,30.80246913580247,0)" xlink:href="#aT"/><use transform="matrix(0.06172839506172839,0,0,0.06172839506172839,41.91358024691358,0)" xlink:href="#aP"/></g><g id="C"><use transform="matrix(0.06172839506172839,0,0,0.06172839506172839,0,0)" xlink:href="#aO"/><use transform="matrix(0.06172839506172839,0,0,0.06172839506172839,12.345679012345679,0)" xlink:href="#aU"/><use transform="matrix(0.06172839506172839,0,0,0.06172839506172839,24.691358024691358,0)" xlink:href="#ak"/><use transform="matrix(0.06172839506172839,0,0,0.06172839506172839,37.03703703703704,0)" xlink:href="#an"/><use transform="matrix(0.06172839506172839,0,0,0.06172839506172839,49.382716049382715,0)" xlink:href="#aP"/></g><path fill="#333" d="M18-150v-26h174v26H18zm0 90v-26h174v26H18" id="aW"/><g id="D"><use transform="matrix(0.06172839506172839,0,0,0.06172839506172839,0,0)" xlink:href="#aW"/><use transform="matrix(0.06172839506172839,0,0,0.06172839506172839,12.962962962962962,0)" xlink:href="#aW"/></g><g id="E"><use transform="matrix(0.06172839506172839,0,0,0.06172839506172839,0,0)" xlink:href="#aO"/><use transform="matrix(0.06172839506172839,0,0,0.06172839506172839,12.345679012345679,0)" xlink:href="#aU"/><use transform="matrix(0.06172839506172839,0,0,0.06172839506172839,24.691358024691358,0)" xlink:href="#ak"/><use transform="matrix(0.06172839506172839,0,0,0.06172839506172839,37.03703703703704,0)" xlink:href="#an"/><use transform="matrix(0.06172839506172839,0,0,0.06172839506172839,49.382716049382715,0)" xlink:href="#aV"/></g><g id="G"><use transform="matrix(0.049382716049382706,0,0,0.049382716049382706,0,0)" xlink:href="#aO"/><use transform="matrix(0.049382716049382706,0,0,0.049382716049382706,9.87654320987654,0)" xlink:href="#aU"/><use transform="matrix(0.049382716049382706,0,0,0.049382716049382706,19.75308641975308,0)" xlink:href="#ak"/><use transform="matrix(0.049382716049382706,0,0,0.049382716049382706,29.629629629629623,0)" xlink:href="#an"/><use transform="matrix(0.049382716049382706,0,0,0.049382716049382706,39.50617283950616,0)" xlink:href="#aP"/></g><path fill="#333" d="M18-100v-36l175-74v27L42-118l151 64v27" id="aX"/><use transform="matrix(0.049382716049382706,0,0,0.049382716049382706,0,0)" xlink:href="#aX" id="H"/><g id="I"><use transform="matrix(0.049382716049382706,0,0,0.049382716049382706,0,0)" xlink:href="#aO"/><use transform="matrix(0.049382716049382706,0,0,0.049382716049382706,9.87654320987654,0)" xlink:href="#aU"/><use transform="matrix(0.049382716049382706,0,0,0.049382716049382706,19.75308641975308,0)" xlink:href="#ak"/><use transform="matrix(0.049382716049382706,0,0,0.049382716049382706,29.629629629629623,0)" xlink:href="#an"/><use transform="matrix(0.049382716049382706,0,0,0.049382716049382706,39.50617283950616,0)" xlink:href="#aV"/></g><path fill="#333" d="M11 0l48-248h34L50-27h125l-5 27H11" id="aY"/><g id="J"><use transform="matrix(0.03703703703703702,0,0,0.03703703703703702,0,0)" xlink:href="#ap"/><use transform="matrix(0.03703703703703702,0,0,0.03703703703703702,4.7037037037037015,0)" xlink:href="#aY"/><use transform="matrix(0.03703703703703702,0,0,0.03703703703703702,12.111111111111105,0)" xlink:href="#ax"/></g><g id="K"><use transform="matrix(0.03703703703703702,0,0,0.03703703703703702,0,0)" xlink:href="#av"/><use transform="matrix(0.03703703703703702,0,0,0.03703703703703702,6.666666666666663,0)" xlink:href="#au"/><use transform="matrix(0.03703703703703702,0,0,0.03703703703703702,14.074074074074067,0)" xlink:href="#as"/><use transform="matrix(0.03703703703703702,0,0,0.03703703703703702,21.481481481481474,0)" xlink:href="#aE"/><use transform="matrix(0.03703703703703702,0,0,0.03703703703703702,28.888888888888875,0)" xlink:href="#ar"/><use transform="matrix(0.03703703703703702,0,0,0.03703703703703702,36.296296296296276,0)" xlink:href="#aI"/><use transform="matrix(0.03703703703703702,0,0,0.03703703703703702,43.70370370370369,0)" xlink:href="#ax"/></g><g id="L"><use transform="matrix(0.03703703703703702,0,0,0.03703703703703702,0,0)" xlink:href="#aB"/><use transform="matrix(0.03703703703703702,0,0,0.03703703703703702,3.703703703703702,0)" xlink:href="#au"/><use transform="matrix(0.03703703703703702,0,0,0.03703703703703702,11.111111111111107,0)" xlink:href="#aC"/><use transform="matrix(0.03703703703703702,0,0,0.03703703703703702,17.777777777777768,0)" xlink:href="#aD"/><use transform="matrix(0.03703703703703702,0,0,0.03703703703703702,25.185185185185173,0)" xlink:href="#ax"/></g><g id="M"><use transform="matrix(0.03703703703703702,0,0,0.03703703703703702,0,0)" xlink:href="#au"/><use transform="matrix(0.03703703703703702,0,0,0.03703703703703702,7.407407407407404,0)" xlink:href="#av"/></g><g id="N"><use transform="matrix(0.03703703703703702,0,0,0.03703703703703702,0,0)" xlink:href="#aw"/><use transform="matrix(0.03703703703703702,0,0,0.03703703703703702,2.9259259259259247,0)" xlink:href="#ax"/></g><g id="O"><use transform="matrix(0.03703703703703702,0,0,0.03703703703703702,0,0)" xlink:href="#aA"/><use transform="matrix(0.03703703703703702,0,0,0.03703703703703702,11.074074074074069,0)" xlink:href="#ax"/><use transform="matrix(0.03703703703703702,0,0,0.03703703703703702,18.481481481481474,0)" xlink:href="#av"/></g><g id="P"><use transform="matrix(0.03703703703703702,0,0,0.03703703703703702,0,0)" xlink:href="#at"/><use transform="matrix(0.03703703703703702,0,0,0.03703703703703702,4.407407407407406,0)" xlink:href="#au"/><use transform="matrix(0.03703703703703702,0,0,0.03703703703703702,11.81481481481481,0)" xlink:href="#aC"/><use transform="matrix(0.03703703703703702,0,0,0.03703703703703702,18.481481481481474,0)" xlink:href="#az"/><use transform="matrix(0.03703703703703702,0,0,0.03703703703703702,21.407407407407398,0)" xlink:href="#au"/><use transform="matrix(0.03703703703703702,0,0,0.03703703703703702,28.814814814814802,0)" xlink:href="#ar"/><use transform="matrix(0.03703703703703702,0,0,0.03703703703703702,36.22222222222221,0)" xlink:href="#aG"/><use transform="matrix(0.03703703703703702,0,0,0.03703703703703702,39.92592592592591,0)" xlink:href="#au"/><use transform="matrix(0.03703703703703702,0,0,0.03703703703703702,47.333333333333314,0)" xlink:href="#ap"/></g><g id="Q"><use transform="matrix(0.03703703703703702,0,0,0.03703703703703702,0,0)" xlink:href="#ay"/><use transform="matrix(0.03703703703703702,0,0,0.03703703703703702,7.407407407407404,0)" xlink:href="#at"/><use transform="matrix(0.03703703703703702,0,0,0.03703703703703702,11.81481481481481,0)" xlink:href="#az"/><use transform="matrix(0.03703703703703702,0,0,0.03703703703703702,14.740740740740735,0)" xlink:href="#aA"/><use transform="matrix(0.03703703703703702,0,0,0.03703703703703702,25.814814814814802,0)" xlink:href="#au"/><use transform="matrix(0.03703703703703702,0,0,0.03703703703703702,33.22222222222221,0)" xlink:href="#at"/></g><g id="R"><use transform="matrix(0.03703703703703702,0,0,0.03703703703703702,0,0)" xlink:href="#at"/><use transform="matrix(0.03703703703703702,0,0,0.03703703703703702,4.407407407407406,0)" xlink:href="#au"/><use transform="matrix(0.03703703703703702,0,0,0.03703703703703702,11.81481481481481,0)" xlink:href="#aC"/><use transform="matrix(0.03703703703703702,0,0,0.03703703703703702,18.481481481481474,0)" xlink:href="#az"/><use transform="matrix(0.03703703703703702,0,0,0.03703703703703702,21.407407407407398,0)" xlink:href="#au"/><use transform="matrix(0.03703703703703702,0,0,0.03703703703703702,28.814814814814802,0)" xlink:href="#ar"/><use transform="matrix(0.03703703703703702,0,0,0.03703703703703702,36.22222222222221,0)" xlink:href="#aG"/><use transform="matrix(0.03703703703703702,0,0,0.03703703703703702,39.92592592592591,0)" xlink:href="#au"/><use transform="matrix(0.03703703703703702,0,0,0.03703703703703702,47.333333333333314,0)" xlink:href="#ap"/></g><g id="S"><use transform="matrix(0.06172839506172839,0,0,0.06172839506172839,0,0)" xlink:href="#aO"/><use transform="matrix(0.06172839506172839,0,0,0.06172839506172839,12.345679012345679,0)" xlink:href="#aU"/><use transform="matrix(0.06172839506172839,0,0,0.06172839506172839,24.691358024691358,0)" xlink:href="#ak"/><use transform="matrix(0.06172839506172839,0,0,0.06172839506172839,37.03703703703704,0)" xlink:href="#an"/><use transform="matrix(0.06172839506172839,0,0,0.06172839506172839,49.382716049382715,0)" xlink:href="#aP"/></g><g id="T"><use transform="matrix(0.06172839506172839,0,0,0.06172839506172839,0,0)" xlink:href="#av"/><use transform="matrix(0.06172839506172839,0,0,0.06172839506172839,11.11111111111111,0)" xlink:href="#au"/><use transform="matrix(0.06172839506172839,0,0,0.06172839506172839,23.45679012345679,0)" xlink:href="#as"/><use transform="matrix(0.06172839506172839,0,0,0.06172839506172839,35.80246913580247,0)" xlink:href="#aE"/><use transform="matrix(0.06172839506172839,0,0,0.06172839506172839,48.148148148148145,0)" xlink:href="#ar"/><use transform="matrix(0.06172839506172839,0,0,0.06172839506172839,60.49382716049382,0)" xlink:href="#aI"/><use transform="matrix(0.06172839506172839,0,0,0.06172839506172839,72.8395061728395,0)" xlink:href="#ax"/></g><g id="U"><use transform="matrix(0.06172839506172839,0,0,0.06172839506172839,0,0)" xlink:href="#aN"/><use transform="matrix(0.06172839506172839,0,0,0.06172839506172839,12.345679012345679,0)" xlink:href="#al"/><use transform="matrix(0.06172839506172839,0,0,0.06172839506172839,17.22222222222222,0)" xlink:href="#aO"/><use transform="matrix(0.06172839506172839,0,0,0.06172839506172839,29.5679012345679,0)" xlink:href="#aV"/></g><g id="V"><use transform="matrix(0.06172839506172839,0,0,0.06172839506172839,0,0)" xlink:href="#aR"/><use transform="matrix(0.06172839506172839,0,0,0.06172839506172839,18.456790123456788,0)" xlink:href="#aS"/><use transform="matrix(0.06172839506172839,0,0,0.06172839506172839,30.80246913580247,0)" xlink:href="#aT"/><use transform="matrix(0.06172839506172839,0,0,0.06172839506172839,41.91358024691358,0)" xlink:href="#aV"/></g><g id="W"><use transform="matrix(0.06172839506172839,0,0,0.06172839506172839,0,0)" xlink:href="#aO"/><use transform="matrix(0.06172839506172839,0,0,0.06172839506172839,12.345679012345679,0)" xlink:href="#aU"/><use transform="matrix(0.06172839506172839,0,0,0.06172839506172839,24.691358024691358,0)" xlink:href="#ak"/><use transform="matrix(0.06172839506172839,0,0,0.06172839506172839,37.03703703703704,0)" xlink:href="#an"/><use transform="matrix(0.06172839506172839,0,0,0.06172839506172839,49.382716049382715,0)" xlink:href="#aV"/></g><g id="X"><use transform="matrix(0.06172839506172839,0,0,0.06172839506172839,0,0)" xlink:href="#aR"/><use transform="matrix(0.06172839506172839,0,0,0.06172839506172839,18.456790123456788,0)" xlink:href="#aS"/><use transform="matrix(0.06172839506172839,0,0,0.06172839506172839,30.80246913580247,0)" xlink:href="#aT"/><use transform="matrix(0.06172839506172839,0,0,0.06172839506172839,41.91358024691358,0)" xlink:href="#aP"/></g><g id="Y"><use transform="matrix(0.06172839506172839,0,0,0.06172839506172839,0,0)" xlink:href="#aR"/><use transform="matrix(0.06172839506172839,0,0,0.06172839506172839,18.456790123456788,0)" xlink:href="#aS"/><use transform="matrix(0.06172839506172839,0,0,0.06172839506172839,30.80246913580247,0)" xlink:href="#aT"/><use transform="matrix(0.06172839506172839,0,0,0.06172839506172839,41.91358024691358,0)" xlink:href="#aV"/></g><g id="Z"><use transform="matrix(0.049382716049382706,0,0,0.049382716049382706,0,0)" xlink:href="#aR"/><use transform="matrix(0.049382716049382706,0,0,0.049382716049382706,14.765432098765428,0)" xlink:href="#aS"/><use transform="matrix(0.049382716049382706,0,0,0.049382716049382706,24.641975308641968,0)" xlink:href="#aT"/><use transform="matrix(0.049382716049382706,0,0,0.049382716049382706,33.53086419753085,0)" xlink:href="#aP"/></g><g id="aa"><use transform="matrix(0.049382716049382706,0,0,0.049382716049382706,0,0)" xlink:href="#aR"/><use transform="matrix(0.049382716049382706,0,0,0.049382716049382706,14.765432098765428,0)" xlink:href="#aS"/><use transform="matrix(0.049382716049382706,0,0,0.049382716049382706,24.641975308641968,0)" xlink:href="#aT"/><use transform="matrix(0.049382716049382706,0,0,0.049382716049382706,33.53086419753085,0)" xlink:href="#aV"/></g><g id="ab"><use transform="matrix(0.06172839506172839,0,0,0.06172839506172839,0,0)" xlink:href="#aN"/><use transform="matrix(0.06172839506172839,0,0,0.06172839506172839,12.345679012345679,0)" xlink:href="#al"/><use transform="matrix(0.06172839506172839,0,0,0.06172839506172839,17.22222222222222,0)" xlink:href="#aO"/><use transform="matrix(0.06172839506172839,0,0,0.06172839506172839,29.5679012345679,0)" xlink:href="#aP"/></g><g id="ac"><use transform="matrix(0.06172839506172839,0,0,0.06172839506172839,0,0)" xlink:href="#aN"/><use transform="matrix(0.06172839506172839,0,0,0.06172839506172839,12.345679012345679,0)" xlink:href="#al"/><use transform="matrix(0.06172839506172839,0,0,0.06172839506172839,17.22222222222222,0)" xlink:href="#aO"/><use transform="matrix(0.06172839506172839,0,0,0.06172839506172839,29.5679012345679,0)" xlink:href="#aV"/></g><g id="ad"><use transform="matrix(0.049382716049382706,0,0,0.049382716049382706,0,0)" xlink:href="#aN"/><use transform="matrix(0.049382716049382706,0,0,0.049382716049382706,9.87654320987654,0)" xlink:href="#al"/><use transform="matrix(0.049382716049382706,0,0,0.049382716049382706,13.777777777777775,0)" xlink:href="#aO"/><use transform="matrix(0.049382716049382706,0,0,0.049382716049382706,23.654320987654316,0)" xlink:href="#aP"/></g><g id="ae"><use transform="matrix(0.049382716049382706,0,0,0.049382716049382706,0,0)" xlink:href="#aN"/><use transform="matrix(0.049382716049382706,0,0,0.049382716049382706,9.87654320987654,0)" xlink:href="#al"/><use transform="matrix(0.049382716049382706,0,0,0.049382716049382706,13.777777777777775,0)" xlink:href="#aO"/><use transform="matrix(0.049382716049382706,0,0,0.049382716049382706,23.654320987654316,0)" xlink:href="#aV"/></g><path fill="#333" d="M187 0l-14-72H61L19 0h-37l149-248h38L221 0h-34zm-19-99l-22-123L76-99h92" id="aZ"/><path fill="#333" d="M68-162c25-46 127-43 121 31C183-60 169 1 98 4 69 5 53-11 43-31L36 0H5l52-261h31zm88 36c2-27-9-43-34-43-55 0-70 51-70 103 0 29 15 45 43 46 52 0 58-58 61-106" id="ba"/><g id="af"><use transform="matrix(0.049382716049382706,0,0,0.049382716049382706,0,0)" xlink:href="#ap"/><use transform="matrix(0.049382716049382706,0,0,0.049382716049382706,6.2716049382716035,0)" xlink:href="#aZ"/><use transform="matrix(0.049382716049382706,0,0,0.049382716049382706,18.123456790123452,0)" xlink:href="#aA"/><use transform="matrix(0.049382716049382706,0,0,0.049382716049382706,32.88888888888888,0)" xlink:href="#ba"/><use transform="matrix(0.049382716049382706,0,0,0.049382716049382706,42.765432098765416,0)" xlink:href="#ax"/><use transform="matrix(0.049382716049382706,0,0,0.049382716049382706,52.64197530864197,0)" xlink:href="#av"/></g><g id="ag"><use transform="matrix(0.049382716049382706,0,0,0.049382716049382706,0,0)" xlink:href="#aB"/><use transform="matrix(0.049382716049382706,0,0,0.049382716049382706,4.93827160493827,0)" xlink:href="#au"/><use transform="matrix(0.049382716049382706,0,0,0.049382716049382706,14.814814814814811,0)" xlink:href="#aC"/><use transform="matrix(0.049382716049382706,0,0,0.049382716049382706,23.7037037037037,0)" xlink:href="#aD"/><use transform="matrix(0.049382716049382706,0,0,0.049382716049382706,33.58024691358024,0)" xlink:href="#ax"/><use transform="matrix(0.049382716049382706,0,0,0.049382716049382706,43.456790123456784,0)" xlink:href="#av"/></g><g id="ah"><use transform="matrix(0.049382716049382706,0,0,0.049382716049382706,0,0)" xlink:href="#av"/><use transform="matrix(0.049382716049382706,0,0,0.049382716049382706,8.888888888888888,0)" xlink:href="#aF"/><use transform="matrix(0.049382716049382706,0,0,0.049382716049382706,18.76543209876543,0)" xlink:href="#ar"/></g><g id="ai"><use transform="matrix(0.049382716049382706,0,0,0.049382716049382706,0,0)" xlink:href="#az"/><use transform="matrix(0.049382716049382706,0,0,0.049382716049382706,3.9012345679012337,0)" xlink:href="#as"/><use transform="matrix(0.049382716049382706,0,0,0.049382716049382706,13.777777777777775,0)" xlink:href="#aE"/><use transform="matrix(0.049382716049382706,0,0,0.049382716049382706,23.654320987654316,0)" xlink:href="#ax"/><use transform="matrix(0.049382716049382706,0,0,0.049382716049382706,33.53086419753086,0)" xlink:href="#aw"/><use transform="matrix(0.049382716049382706,0,0,0.049382716049382706,37.432098765432094,0)" xlink:href="#au"/><use transform="matrix(0.049382716049382706,0,0,0.049382716049382706,47.30864197530863,0)" xlink:href="#av"/><use transform="matrix(0.049382716049382706,0,0,0.049382716049382706,56.19753086419752,0)" xlink:href="#ap"/></g></defs></g></svg>