<svg xmlns="http://www.w3.org/2000/svg" xmlns:xlink="http://www.w3.org/1999/xlink" xmlns:lucid="lucid" width="543.2" height="2273.67"><g transform="translate(-665.4330708661416 -18.49990315990935)" lucid:page-tab-id="qGq-l.r0PKxC"><path d="M0 0h1870.87v2581.67H0z" fill="#fff"/><path d="M1015.43 120c0 44.18-35.8 80-80 80-44.18 0-80-35.82-80-80s35.82-80 80-80c44.2 0 80 35.82 80 80z" stroke="#5e5e5e" stroke-width="3" fill="#fff"/><use xlink:href="#a" transform="matrix(1,0,0,1,860.4330708661416,45) translate(49.1358024691358 78.71527777777777)"/><path d="M710.55 285.8c.86-3.2 4.24-5.8 7.55-5.8h461.33c3.32 0 5.3 2.6 4.46 5.8l-23.6 88.4c-.84 3.2-4.22 5.8-7.53 5.8H691.43c-3.3 0-5.3-2.6-4.45-5.8z" stroke="#5e5e5e" stroke-width="3" fill="#fff"/><use xlink:href="#b" transform="matrix(1,0,0,1,690.4330708661416,285) translate(148.74574074074073 37.46527777777778)"/><use xlink:href="#c" transform="matrix(1,0,0,1,690.4330708661416,285) translate(178.31364197530863 37.46527777777778)"/><use xlink:href="#d" transform="matrix(1,0,0,1,690.4330708661416,285) translate(203.005 37.46527777777778)"/><use xlink:href="#e" transform="matrix(1,0,0,1,690.4330708661416,285) translate(232.5729012345679 37.46527777777778)"/><use xlink:href="#d" transform="matrix(1,0,0,1,690.4330708661416,285) translate(257.26425925925923 37.46527777777778)"/><use xlink:href="#f" transform="matrix(1,0,0,1,690.4330708661416,285) translate(286.83216049382713 37.46527777777778)"/><use xlink:href="#g" transform="matrix(1,0,0,1,690.4330708661416,285) translate(76.37537037037039 64.13194444444446)"/><use xlink:href="#h" transform="matrix(1,0,0,1,690.4330708661416,285) translate(105.94327160493827 64.13194444444446)"/><use xlink:href="#d" transform="matrix(1,0,0,1,690.4330708661416,285) translate(186.12845679012347 64.13194444444446)"/><use xlink:href="#i" transform="matrix(1,0,0,1,690.4330708661416,285) translate(215.69635802469136 64.13194444444446)"/><use xlink:href="#d" transform="matrix(1,0,0,1,690.4330708661416,285) translate(289.7087037037037 64.13194444444446)"/><use xlink:href="#j" transform="matrix(1,0,0,1,690.4330708661416,285) translate(319.2766049382716 64.13194444444446)"/><path d="M1183.9 554.2c.84 3.2-1.15 5.8-4.47 5.8h-488c-3.3 0-5.3-2.6-4.45-5.8l23.57-88.4c.86-3.2 4.24-5.8 7.55-5.8h434.67c3.3 0 6.7 2.6 7.54 5.8z" stroke="#5e5e5e" stroke-width="3" fill="#fff"/><path d="M780 484.33c0-3.3 2.7-6 6-6h292.57c3.3 0 6 2.7 6 6v51.34c0 3.3-2.7 6-6 6H786c-3.3 0-6-2.7-6-6z" stroke="#000" stroke-opacity="0" stroke-width="3" fill="#fff" fill-opacity="0"/><use xlink:href="#k" transform="matrix(1,0,0,1,785,483.3333333333333) translate(15.833333333333371 31.27777777777778)"/><use xlink:href="#l" transform="matrix(1,0,0,1,785,483.3333333333333) translate(103.85802469135805 31.27777777777778)"/><use xlink:href="#m" transform="matrix(1,0,0,1,785,483.3333333333333) translate(127.25308641975312 31.27777777777778)"/><use xlink:href="#n" transform="matrix(1,0,0,1,785,483.3333333333333) translate(196.14197530864197 31.27777777777778)"/><path d="M686.98 645.8c-.85-3.2 1.14-5.8 4.45-5.8h488c3.32 0 5.3 2.6 4.46 5.8l-23.6 88.4c-.84 3.2-4.22 5.8-7.53 5.8H718.1c-3.3 0-6.7-2.6-7.55-5.8z" stroke="#5e5e5e" stroke-width="3" fill="#fff"/><use xlink:href="#o" transform="matrix(1,0,0,1,690.4330708661582,645) translate(238.83216049382716 48.71527777777778)"/><path d="M1185.6 914.2c.84 3.2-1.15 5.8-4.47 5.8h-488c-3.3 0-5.3-2.6-4.45-5.8l23.57-88.4c.86-3.2 4.24-5.8 7.55-5.8h434.67c3.3 0 6.7 2.6 7.54 5.8z" stroke="#5e5e5e" stroke-width="3" fill="#fff"/><path d="M781.7 844.33c0-3.3 2.7-6 6-6h292.57c3.3 0 6 2.7 6 6v51.34c0 3.3-2.7 6-6 6H787.7c-3.3 0-6-2.7-6-6z" stroke="#000" stroke-opacity="0" stroke-width="3" fill="#fff" fill-opacity="0"/><use xlink:href="#k" transform="matrix(1,0,0,1,786.7007874015253,843.3333333333333) translate(4.598765432098787 31.27777777777778)"/><use xlink:href="#l" transform="matrix(1,0,0,1,786.7007874015253,843.3333333333333) translate(92.62345679012347 31.27777777777778)"/><use xlink:href="#p" transform="matrix(1,0,0,1,786.7007874015253,843.3333333333333) translate(116.01851851851853 31.27777777777778)"/><use xlink:href="#n" transform="matrix(1,0,0,1,786.7007874015253,843.3333333333333) translate(207.37654320987656 31.27777777777778)"/><path d="M688.68 1005.8c-.85-3.2 1.14-5.8 4.45-5.8h488c3.32 0 5.3 2.6 4.46 5.8l-23.6 88.4c-.84 3.2-4.22 5.8-7.53 5.8H719.8c-3.3 0-6.7-2.6-7.55-5.8z" stroke="#5e5e5e" stroke-width="3" fill="#fff"/><use xlink:href="#q" transform="matrix(1,0,0,1,692.1338582676835,1005) translate(238.83216049382716 48.71527777777778)"/><path d="M687.13 1186c0-3.3 2.7-6 6-6h488c3.32 0 6 2.7 6 6v118.67c0 3.3-2.68 6-6 6h-488c-3.3 0-6-2.7-6-6z" stroke="#5e5e5e" stroke-width="3" fill="#fff"/><use xlink:href="#r" transform="matrix(1,0,0,1,699.1338582676835,1192) translate(153.5246913580247 17.77777777777778)"/><use xlink:href="#s" transform="matrix(1,0,0,1,699.1338582676835,1192) translate(226.30246913580248 17.77777777777778)"/><use xlink:href="#t" transform="matrix(1,0,0,1,699.1338582676835,1192) translate(272.4753086419753 17.77777777777778)"/><use xlink:href="#u" transform="matrix(1,0,0,1,699.1338582676835,1192) translate(290.9938271604938 17.77777777777778)"/><use xlink:href="#v" transform="matrix(1,0,0,1,699.1338582676835,1192) translate(310.1296296296296 17.77777777777778)"/><use xlink:href="#w" transform="matrix(1,0,0,1,699.1338582676835,1192) translate(152.62962962962962 44.44444444444444)"/><use xlink:href="#s" transform="matrix(1,0,0,1,699.1338582676835,1192) translate(232.81481481481478 44.44444444444444)"/><use xlink:href="#t" transform="matrix(1,0,0,1,699.1338582676835,1192) translate(278.98765432098764 44.44444444444444)"/><use xlink:href="#x" transform="matrix(1,0,0,1,699.1338582676835,1192) translate(297.5061728395062 44.44444444444444)"/><use xlink:href="#v" transform="matrix(1,0,0,1,699.1338582676835,1192) translate(311.0246913580247 44.44444444444444)"/><use xlink:href="#y" transform="matrix(1,0,0,1,699.1338582676835,1192) translate(152.62962962962962 71.11111111111111)"/><use xlink:href="#s" transform="matrix(1,0,0,1,699.1338582676835,1192) translate(232.81481481481478 71.11111111111111)"/><use xlink:href="#z" transform="matrix(1,0,0,1,699.1338582676835,1192) translate(278.98765432098764 71.11111111111111)"/><use xlink:href="#x" transform="matrix(1,0,0,1,699.1338582676835,1192) translate(297.5061728395062 71.11111111111111)"/><use xlink:href="#A" transform="matrix(1,0,0,1,699.1338582676835,1192) translate(311.0246913580247 71.11111111111111)"/><use xlink:href="#B" transform="matrix(1,0,0,1,699.1338582676835,1192) translate(139.6358024691358 97.77777777777777)"/><use xlink:href="#s" transform="matrix(1,0,0,1,699.1338582676835,1192) translate(244.51234567901233 97.77777777777777)"/><use xlink:href="#t" transform="matrix(1,0,0,1,699.1338582676835,1192) translate(290.68518518518516 97.77777777777777)"/><use xlink:href="#C" transform="matrix(1,0,0,1,699.1338582676835,1192) translate(309.2037037037037 97.77777777777777)"/><use xlink:href="#D" transform="matrix(1,0,0,1,699.1338582676835,1192) translate(324.0185185185185 97.77777777777777)"/><path d="M1183.9 1484.87c.84 3.2-1.15 5.8-4.47 5.8h-488c-3.3 0-5.3-2.6-4.45-5.8l23.57-88.4c.86-3.2 4.24-5.8 7.55-5.8h434.67c3.3 0 6.7 2.6 7.54 5.8z" stroke="#5e5e5e" stroke-width="3" fill="#fff"/><path d="M780 1415c0-3.3 2.7-6 6-6h292.57c3.3 0 6 2.7 6 6v51.33c0 3.32-2.7 6-6 6H786c-3.3 0-6-2.68-6-6z" stroke="#000" stroke-opacity="0" stroke-width="3" fill="#fff" fill-opacity="0"/><use xlink:href="#E" transform="matrix(1,0,0,1,784.9999999999834,1414) translate(2.962962962962962 17.77777777777778)"/><use xlink:href="#F" transform="matrix(1,0,0,1,784.9999999999834,1414) translate(41.666666666666664 17.77777777777778)"/><use xlink:href="#G" transform="matrix(1,0,0,1,784.9999999999834,1414) translate(102.09876543209876 17.77777777777778)"/><use xlink:href="#H" transform="matrix(1,0,0,1,784.9999999999834,1414) translate(132.96296296296296 17.77777777777778)"/><use xlink:href="#I" transform="matrix(1,0,0,1,784.9999999999834,1414) translate(205.74074074074073 17.77777777777778)"/><use xlink:href="#J" transform="matrix(1,0,0,1,784.9999999999834,1414) translate(98.54938271604938 44.44444444444444)"/><use xlink:href="#K" transform="matrix(1,0,0,1,784.9999999999834,1414) translate(128.179012345679 44.44444444444444)"/><use xlink:href="#L" transform="matrix(1,0,0,1,784.9999999999834,1414) translate(142.19135802469134 44.44444444444444)"/><path d="M1183.9 1664.87c.84 3.2-1.15 5.8-4.47 5.8h-488c-3.3 0-5.3-2.6-4.45-5.8l23.57-88.4c.86-3.2 4.24-5.8 7.55-5.8h434.67c3.3 0 6.7 2.6 7.54 5.8z" stroke="#5e5e5e" stroke-width="3" fill="#fff"/><path d="M780 1595c0-3.3 2.7-6 6-6h292.57c3.3 0 6 2.7 6 6v51.33c0 3.32-2.7 6-6 6H786c-3.3 0-6-2.68-6-6z" stroke="#000" stroke-opacity="0" stroke-width="3" fill="#fff" fill-opacity="0"/><g><use xlink:href="#E" transform="matrix(1,0,0,1,784.9999999999834,1594) translate(8.611111111111114 17.77777777777778)"/><use xlink:href="#M" transform="matrix(1,0,0,1,784.9999999999834,1594) translate(47.31481481481482 17.77777777777778)"/><use xlink:href="#N" transform="matrix(1,0,0,1,784.9999999999834,1594) translate(102.80864197530865 17.77777777777778)"/><use xlink:href="#O" transform="matrix(1,0,0,1,784.9999999999834,1594) translate(138.5493827160494 17.77777777777778)"/><use xlink:href="#P" transform="matrix(1,0,0,1,784.9999999999834,1594) translate(219.78395061728395 17.77777777777778)"/><use xlink:href="#l" transform="matrix(1,0,0,1,784.9999999999834,1594) translate(37.46913580246914 44.44444444444444)"/><use xlink:href="#p" transform="matrix(1,0,0,1,784.9999999999834,1594) translate(60.8641975308642 44.44444444444444)"/><use xlink:href="#J" transform="matrix(1,0,0,1,784.9999999999834,1594) translate(152.22222222222223 44.44444444444444)"/><use xlink:href="#K" transform="matrix(1,0,0,1,784.9999999999834,1594) translate(181.85185185185185 44.44444444444444)"/><use xlink:href="#Q" transform="matrix(1,0,0,1,784.9999999999834,1594) translate(195.8641975308642 44.44444444444444)"/></g><g><path d="M1185.6 1844.87c.84 3.2-1.15 5.8-4.47 5.8h-488c-3.3 0-5.3-2.6-4.45-5.8l23.57-88.4c.86-3.2 4.24-5.8 7.55-5.8h434.67c3.3 0 6.7 2.6 7.54 5.8z" stroke="#5e5e5e" stroke-width="3" fill="#fff"/></g><path d="M781.7 1775c0-3.3 2.7-6 6-6h292.57c3.3 0 6 2.7 6 6v51.33c0 3.32-2.7 6-6 6H787.7c-3.3 0-6-2.68-6-6z" stroke="#000" stroke-opacity="0" stroke-width="3" fill="#fff" fill-opacity="0"/><g><use xlink:href="#E" transform="matrix(1,0,0,1,786.7007874015253,1774) translate(3.549382716049365 17.77777777777778)"/><use xlink:href="#M" transform="matrix(1,0,0,1,786.7007874015253,1774) translate(42.25308641975307 17.77777777777778)"/><use xlink:href="#N" transform="matrix(1,0,0,1,786.7007874015253,1774) translate(97.7469135802469 17.77777777777778)"/><use xlink:href="#p" transform="matrix(1,0,0,1,786.7007874015253,1774) translate(133.48765432098764 17.77777777777778)"/><use xlink:href="#P" transform="matrix(1,0,0,1,786.7007874015253,1774) translate(224.84567901234567 17.77777777777778)"/><use xlink:href="#l" transform="matrix(1,0,0,1,786.7007874015253,1774) translate(42.530864197530875 44.44444444444444)"/><use xlink:href="#O" transform="matrix(1,0,0,1,786.7007874015253,1774) translate(65.92592592592594 44.44444444444444)"/><use xlink:href="#J" transform="matrix(1,0,0,1,786.7007874015253,1774) translate(147.1604938271605 44.44444444444444)"/><use xlink:href="#K" transform="matrix(1,0,0,1,786.7007874015253,1774) translate(176.79012345679013 44.44444444444444)"/><use xlink:href="#R" transform="matrix(1,0,0,1,786.7007874015253,1774) translate(190.80246913580248 44.44444444444444)"/></g><g><path d="M1185.6 2024.87c.84 3.2-1.15 5.8-4.47 5.8h-488c-3.3 0-5.3-2.6-4.45-5.8l23.57-88.4c.86-3.2 4.24-5.8 7.55-5.8h434.67c3.3 0 6.7 2.6 7.54 5.8z" stroke="#5e5e5e" stroke-width="3" fill="#fff"/></g><path d="M781.7 1955c0-3.3 2.7-6 6-6h292.57c3.3 0 6 2.7 6 6v51.33c0 3.32-2.7 6-6 6H787.7c-3.3 0-6-2.68-6-6z" stroke="#000" stroke-opacity="0" stroke-width="3" fill="#fff" fill-opacity="0"/><g><use xlink:href="#S" transform="matrix(1,0,0,1,786.7007874015253,1954) translate(13.672839506172863 17.77777777777778)"/><use xlink:href="#l" transform="matrix(1,0,0,1,786.7007874015253,1954) translate(42.06790123456793 17.77777777777778)"/><use xlink:href="#T" transform="matrix(1,0,0,1,786.7007874015253,1954) translate(65.46296296296299 17.77777777777778)"/><use xlink:href="#U" transform="matrix(1,0,0,1,786.7007874015253,1954) translate(157.99382716049385 17.77777777777778)"/><use xlink:href="#V" transform="matrix(1,0,0,1,786.7007874015253,1954) translate(214.72222222222223 17.77777777777778)"/><use xlink:href="#W" transform="matrix(1,0,0,1,786.7007874015253,1954) translate(36.26543209876543 44.44444444444444)"/><use xlink:href="#J" transform="matrix(1,0,0,1,786.7007874015253,1954) translate(128.73456790123456 44.44444444444444)"/><use xlink:href="#K" transform="matrix(1,0,0,1,786.7007874015253,1954) translate(158.3641975308642 44.44444444444444)"/><use xlink:href="#j" transform="matrix(1,0,0,1,786.7007874015253,1954) translate(172.37654320987656 44.44444444444444)"/></g><path d="M1017.13 2190.67c0 44.18-35.8 80-80 80-44.18 0-80-35.82-80-80 0-44.2 35.82-80 80-80 44.2 0 80 35.8 80 80z" stroke="#5e5e5e" stroke-width="3" fill="#fff"/><g><use xlink:href="#X" transform="matrix(1,0,0,1,862.1338582676835,2115.666666666667) translate(59.62962962962963 78.71527777777777)"/></g><path d="M935.43 202.5V260" stroke="#5e5e5e" stroke-width="2" fill="none"/><path d="M935.4 201.5h1.04v1.03h-2v-1.06z" stroke="#5e5e5e" stroke-width=".05" fill="#5e5e5e"/><path d="M935.43 275.26L930.8 261h9.27z" stroke="#5e5e5e" stroke-width="2" fill="#5e5e5e"/><path d="M935.43 382.5V440" stroke="#5e5e5e" stroke-width="2" fill="none"/><path d="M936.43 382.53h-2v-1.03h2z" stroke="#5e5e5e" stroke-width=".05" fill="#5e5e5e"/><path d="M935.43 455.26L930.8 441h9.27z" stroke="#5e5e5e" stroke-width="2" fill="#5e5e5e"/><path d="M935.43 562.5V620" stroke="#5e5e5e" stroke-width="2" fill="none"/><path d="M936.43 562.53h-2v-1.03h2z" stroke="#5e5e5e" stroke-width=".05" fill="#5e5e5e"/><path d="M935.43 635.26L930.8 621h9.27z" stroke="#5e5e5e" stroke-width="2" fill="#5e5e5e"/><path d="M935.44 742.5V800" stroke="#5e5e5e" stroke-width="2" fill="none"/><path d="M936.44 742.53h-2v-1.03h2z" stroke="#5e5e5e" stroke-width=".05" fill="#5e5e5e"/><path d="M935.44 815.26L930.8 801h9.27z" stroke="#5e5e5e" stroke-width="2" fill="#5e5e5e"/><path d="M937.13 922.5V980" stroke="#5e5e5e" stroke-width="2" fill="none"/><path d="M938.13 922.53h-2v-1.03h2z" stroke="#5e5e5e" stroke-width=".05" fill="#5e5e5e"/><path d="M937.13 995.26L932.5 981h9.27z" stroke="#5e5e5e" stroke-width="2" fill="#5e5e5e"/><path d="M937.14 1102.5v57.5" stroke="#5e5e5e" stroke-width="2" fill="none"/><path d="M938.14 1102.53h-2v-1.03h2z" stroke="#5e5e5e" stroke-width=".05" fill="#5e5e5e"/><path d="M937.14 1175.26L932.5 1161h9.27z" stroke="#5e5e5e" stroke-width="2" fill="#5e5e5e"/><path d="M937.13 1313.17v57.5" stroke="#5e5e5e" stroke-width="2" fill="none"/><path d="M938.13 1313.2h-2v-1.03h2z" stroke="#5e5e5e" stroke-width=".05" fill="#5e5e5e"/><path d="M937.13 1385.93l-4.63-14.27h9.27z" stroke="#5e5e5e" stroke-width="2" fill="#5e5e5e"/><path d="M935.43 1493.17v57.5" stroke="#5e5e5e" stroke-width="2" fill="none"/><path d="M936.43 1493.2h-2v-1.03h2z" stroke="#5e5e5e" stroke-width=".05" fill="#5e5e5e"/><path d="M935.43 1565.93l-4.63-14.27h9.27z" stroke="#5e5e5e" stroke-width="2" fill="#5e5e5e"/><path d="M935.43 1673.17v57.5" stroke="#5e5e5e" stroke-width="2" fill="none"/><path d="M936.43 1673.2h-2v-1.03h2z" stroke="#5e5e5e" stroke-width=".05" fill="#5e5e5e"/><path d="M935.43 1745.93l-4.63-14.27h9.27z" stroke="#5e5e5e" stroke-width="2" fill="#5e5e5e"/><path d="M937.13 1853.17v57.5" stroke="#5e5e5e" stroke-width="2" fill="none"/><path d="M938.13 1853.2h-2v-1.03h2z" stroke="#5e5e5e" stroke-width=".05" fill="#5e5e5e"/><path d="M937.13 1925.93l-4.63-14.27h9.27z" stroke="#5e5e5e" stroke-width="2" fill="#5e5e5e"/><path d="M937.13 2033.17v57.5" stroke="#5e5e5e" stroke-width="2" fill="none"/><path d="M938.13 2033.2h-2v-1.03h2z" stroke="#5e5e5e" stroke-width=".05" fill="#5e5e5e"/><path d="M937.13 2105.93l-4.63-14.27h9.27z" stroke="#5e5e5e" stroke-width="2" fill="#5e5e5e"/><defs><path fill="#333" d="M33 0v-248h34V0H33" id="Y"/><path fill="#333" d="M117-194c89-4 53 116 60 194h-32v-121c0-31-8-49-39-48C34-167 62-67 57 0H25l-1-190h30c1 10-1 24 2 32 11-22 29-35 61-36" id="Z"/><path fill="#333" d="M24-231v-30h32v30H24zM24 0v-190h32V0H24" id="aa"/><path fill="#333" d="M96-169c-40 0-48 33-48 73s9 75 48 75c24 0 41-14 43-38l32 2c-6 37-31 61-74 61-59 0-76-41-82-99-10-93 101-131 147-64 4 7 5 14 7 22l-32 3c-4-21-16-35-41-35" id="ab"/><path fill="#333" d="M100-194c62-1 85 37 85 99 1 63-27 99-86 99S16-35 15-95c0-66 28-99 85-99zM99-20c44 1 53-31 53-75 0-43-8-75-51-75s-53 32-53 75 10 74 51 75" id="ac"/><g id="a"><use transform="matrix(0.06172839506172839,0,0,0.06172839506172839,0,0)" xlink:href="#Y"/><use transform="matrix(0.06172839506172839,0,0,0.06172839506172839,6.172839506172839,0)" xlink:href="#Z"/><use transform="matrix(0.06172839506172839,0,0,0.06172839506172839,18.51851851851852,0)" xlink:href="#aa"/><use transform="matrix(0.06172839506172839,0,0,0.06172839506172839,23.395061728395063,0)" xlink:href="#ab"/><use transform="matrix(0.06172839506172839,0,0,0.06172839506172839,34.50617283950618,0)" xlink:href="#aa"/><use transform="matrix(0.06172839506172839,0,0,0.06172839506172839,39.38271604938272,0)" xlink:href="#ac"/></g><path fill="#333" d="M59-47c-2 24 18 29 38 22v24C64 9 27 4 27-40v-127H5v-23h24l9-43h21v43h35v23H59v120" id="ad"/><g id="b"><use transform="matrix(0.06172839506172839,0,0,0.06172839506172839,0,0)" xlink:href="#aa"/><use transform="matrix(0.06172839506172839,0,0,0.06172839506172839,4.876543209876543,0)" xlink:href="#Z"/><use transform="matrix(0.06172839506172839,0,0,0.06172839506172839,17.22222222222222,0)" xlink:href="#ad"/></g><path fill="#333" d="M141-36C126-15 110 5 73 4 37 3 15-17 15-53c-1-64 63-63 125-63 3-35-9-54-41-54-24 1-41 7-42 31l-33-3c5-37 33-52 76-52 45 0 72 20 72 64v82c-1 20 7 32 28 27v20c-31 9-61-2-59-35zM48-53c0 20 12 33 32 33 41-3 63-29 60-74-43 2-92-5-92 41" id="ae"/><path fill="#333" d="M68-38c1 34 0 65-14 84H32c9-13 17-26 17-46H33v-38h35" id="af"/><g id="c"><use transform="matrix(0.06172839506172839,0,0,0.06172839506172839,0,0)" xlink:href="#ae"/><use transform="matrix(0.06172839506172839,0,0,0.06172839506172839,12.345679012345679,0)" xlink:href="#af"/></g><g id="d"><use transform="matrix(0.06172839506172839,0,0,0.06172839506172839,0,0)" xlink:href="#aa"/><use transform="matrix(0.06172839506172839,0,0,0.06172839506172839,4.876543209876543,0)" xlink:href="#Z"/><use transform="matrix(0.06172839506172839,0,0,0.06172839506172839,17.22222222222222,0)" xlink:href="#ad"/></g><path fill="#333" d="M115-194c53 0 69 39 70 98 0 66-23 100-70 100C84 3 66-7 56-30L54 0H23l1-261h32v101c10-23 28-34 59-34zm-8 174c40 0 45-34 45-75 0-40-5-75-45-74-42 0-51 32-51 76 0 43 10 73 51 73" id="ag"/><g id="e"><use transform="matrix(0.06172839506172839,0,0,0.06172839506172839,0,0)" xlink:href="#ag"/><use transform="matrix(0.06172839506172839,0,0,0.06172839506172839,12.345679012345679,0)" xlink:href="#af"/></g><path fill="#333" d="M135-143c-3-34-86-38-87 0 15 53 115 12 119 90S17 21 10-45l28-5c4 36 97 45 98 0-10-56-113-15-118-90-4-57 82-63 122-42 12 7 21 19 24 35" id="ah"/><path fill="#333" d="M84 4C-5 8 30-112 23-190h32v120c0 31 7 50 39 49 72-2 45-101 50-169h31l1 190h-30c-1-10 1-25-2-33-11 22-28 36-60 37" id="ai"/><path fill="#333" d="M210-169c-67 3-38 105-44 169h-31v-121c0-29-5-50-35-48C34-165 62-65 56 0H25l-1-190h30c1 10-1 24 2 32 10-44 99-50 107 0 11-21 27-35 58-36 85-2 47 119 55 194h-31v-121c0-29-5-49-35-48" id="aj"/><g id="f"><use transform="matrix(0.06172839506172839,0,0,0.06172839506172839,0,0)" xlink:href="#ah"/><use transform="matrix(0.06172839506172839,0,0,0.06172839506172839,11.11111111111111,0)" xlink:href="#ai"/><use transform="matrix(0.06172839506172839,0,0,0.06172839506172839,23.45679012345679,0)" xlink:href="#aj"/><use transform="matrix(0.06172839506172839,0,0,0.06172839506172839,41.91358024691358,0)" xlink:href="#ae"/><use transform="matrix(0.06172839506172839,0,0,0.06172839506172839,54.25925925925926,0)" xlink:href="#af"/></g><g id="g"><use transform="matrix(0.06172839506172839,0,0,0.06172839506172839,0,0)" xlink:href="#aa"/><use transform="matrix(0.06172839506172839,0,0,0.06172839506172839,4.876543209876543,0)" xlink:href="#Z"/><use transform="matrix(0.06172839506172839,0,0,0.06172839506172839,17.22222222222222,0)" xlink:href="#ad"/></g><path fill="#333" d="M114-163C36-179 61-72 57 0H25l-1-190h30c1 12-1 29 2 39 6-27 23-49 58-41v29" id="ak"/><path fill="#333" d="M100-194c63 0 86 42 84 106H49c0 40 14 67 53 68 26 1 43-12 49-29l28 8c-11 28-37 45-77 45C44 4 14-33 15-96c1-61 26-98 85-98zm52 81c6-60-76-77-97-28-3 7-6 17-6 28h103" id="al"/><path fill="#333" d="M27 0v-27h64v-190l-56 39v-29l58-41h29v221h61V0H27" id="am"/><g id="h"><use transform="matrix(0.06172839506172839,0,0,0.06172839506172839,0,0)" xlink:href="#ak"/><use transform="matrix(0.06172839506172839,0,0,0.06172839506172839,7.345679012345679,0)" xlink:href="#al"/><use transform="matrix(0.06172839506172839,0,0,0.06172839506172839,19.691358024691358,0)" xlink:href="#ah"/><use transform="matrix(0.06172839506172839,0,0,0.06172839506172839,30.80246913580247,0)" xlink:href="#ad"/><use transform="matrix(0.06172839506172839,0,0,0.06172839506172839,36.97530864197531,0)" xlink:href="#ae"/><use transform="matrix(0.06172839506172839,0,0,0.06172839506172839,49.32098765432099,0)" xlink:href="#am"/><use transform="matrix(0.06172839506172839,0,0,0.06172839506172839,61.666666666666664,0)" xlink:href="#af"/></g><path fill="#333" d="M101-251c82-7 93 87 43 132L82-64C71-53 59-42 53-27h129V0H18c2-99 128-94 128-182 0-28-16-43-45-43s-46 15-49 41l-32-3c6-41 34-60 81-64" id="an"/><g id="i"><use transform="matrix(0.06172839506172839,0,0,0.06172839506172839,0,0)" xlink:href="#ak"/><use transform="matrix(0.06172839506172839,0,0,0.06172839506172839,7.345679012345679,0)" xlink:href="#al"/><use transform="matrix(0.06172839506172839,0,0,0.06172839506172839,19.691358024691358,0)" xlink:href="#ah"/><use transform="matrix(0.06172839506172839,0,0,0.06172839506172839,30.80246913580247,0)" xlink:href="#ad"/><use transform="matrix(0.06172839506172839,0,0,0.06172839506172839,36.97530864197531,0)" xlink:href="#ae"/><use transform="matrix(0.06172839506172839,0,0,0.06172839506172839,49.32098765432099,0)" xlink:href="#an"/><use transform="matrix(0.06172839506172839,0,0,0.06172839506172839,61.666666666666664,0)" xlink:href="#af"/></g><path fill="#333" d="M115-194c55 1 70 41 70 98S169 2 115 4C84 4 66-9 55-30l1 105H24l-1-265h31l2 30c10-21 28-34 59-34zm-8 174c40 0 45-34 45-75s-6-73-45-74c-42 0-51 32-51 76 0 43 10 73 51 73" id="ao"/><path fill="#333" d="M85-194c31 0 48 13 60 33l-1-100h32l1 261h-30c-2-10 0-23-3-31C134-8 116 4 85 4 32 4 16-35 15-94c0-66 23-100 70-100zm9 24c-40 0-46 34-46 75 0 40 6 74 45 74 42 0 51-32 51-76 0-42-9-74-50-73" id="ap"/><g id="j"><use transform="matrix(0.06172839506172839,0,0,0.06172839506172839,0,0)" xlink:href="#ao"/><use transform="matrix(0.06172839506172839,0,0,0.06172839506172839,12.345679012345679,0)" xlink:href="#ak"/><use transform="matrix(0.06172839506172839,0,0,0.06172839506172839,19.691358024691358,0)" xlink:href="#ac"/><use transform="matrix(0.06172839506172839,0,0,0.06172839506172839,32.03703703703704,0)" xlink:href="#ap"/><use transform="matrix(0.06172839506172839,0,0,0.06172839506172839,44.382716049382715,0)" xlink:href="#ai"/><use transform="matrix(0.06172839506172839,0,0,0.06172839506172839,56.72839506172839,0)" xlink:href="#ab"/><use transform="matrix(0.06172839506172839,0,0,0.06172839506172839,67.8395061728395,0)" xlink:href="#ad"/><use transform="matrix(0.06172839506172839,0,0,0.06172839506172839,74.01234567901234,0)" xlink:href="#ac"/></g><path fill="#333" d="M109-170H84l-4-78h32zm-65 0H19l-4-78h33" id="aq"/><path fill="#333" d="M177-190C167-65 218 103 67 71c-23-6-38-20-44-43l32-5c15 47 100 32 89-28v-30C133-14 115 1 83 1 29 1 15-40 15-95c0-56 16-97 71-98 29-1 48 16 59 35 1-10 0-23 2-32h30zM94-22c36 0 50-32 50-73 0-42-14-75-50-75-39 0-46 34-46 75s6 73 46 73" id="ar"/><g id="k"><use transform="matrix(0.06172839506172839,0,0,0.06172839506172839,0,0)" xlink:href="#aq"/><use transform="matrix(0.06172839506172839,0,0,0.06172839506172839,7.8395061728395055,0)" xlink:href="#Y"/><use transform="matrix(0.06172839506172839,0,0,0.06172839506172839,14.012345679012345,0)" xlink:href="#Z"/><use transform="matrix(0.06172839506172839,0,0,0.06172839506172839,26.358024691358025,0)" xlink:href="#ar"/><use transform="matrix(0.06172839506172839,0,0,0.06172839506172839,38.7037037037037,0)" xlink:href="#ak"/><use transform="matrix(0.06172839506172839,0,0,0.06172839506172839,46.04938271604938,0)" xlink:href="#al"/><use transform="matrix(0.06172839506172839,0,0,0.06172839506172839,58.395061728395056,0)" xlink:href="#ah"/><use transform="matrix(0.06172839506172839,0,0,0.06172839506172839,69.50617283950616,0)" xlink:href="#al"/></g><path fill="#333" d="M24 0v-261h32V0H24" id="as"/><g id="l"><use transform="matrix(0.06172839506172839,0,0,0.06172839506172839,0,0)" xlink:href="#al"/><use transform="matrix(0.06172839506172839,0,0,0.06172839506172839,12.345679012345679,0)" xlink:href="#as"/></g><g id="m"><use transform="matrix(0.06172839506172839,0,0,0.06172839506172839,0,0)" xlink:href="#ao"/><use transform="matrix(0.06172839506172839,0,0,0.06172839506172839,12.345679012345679,0)" xlink:href="#ak"/><use transform="matrix(0.06172839506172839,0,0,0.06172839506172839,19.691358024691358,0)" xlink:href="#aa"/><use transform="matrix(0.06172839506172839,0,0,0.06172839506172839,24.5679012345679,0)" xlink:href="#aj"/><use transform="matrix(0.06172839506172839,0,0,0.06172839506172839,43.02469135802468,0)" xlink:href="#al"/><use transform="matrix(0.06172839506172839,0,0,0.06172839506172839,55.37037037037036,0)" xlink:href="#ak"/></g><path fill="#333" d="M85 4C-4 8 31-112 24-190h32v120c0 31 7 50 39 49 72-2 45-101 50-169h31l1 190h-30c-1-10 1-25-2-33-11 22-28 36-60 37zM73-211c8-23 27-35 38-54h36v5l-58 49H73" id="at"/><g id="n"><use transform="matrix(0.06172839506172839,0,0,0.06172839506172839,0,0)" xlink:href="#Z"/><use transform="matrix(0.06172839506172839,0,0,0.06172839506172839,12.345679012345679,0)" xlink:href="#at"/><use transform="matrix(0.06172839506172839,0,0,0.06172839506172839,24.691358024691358,0)" xlink:href="#aj"/><use transform="matrix(0.06172839506172839,0,0,0.06172839506172839,43.148148148148145,0)" xlink:href="#al"/><use transform="matrix(0.06172839506172839,0,0,0.06172839506172839,55.49382716049382,0)" xlink:href="#ak"/><use transform="matrix(0.06172839506172839,0,0,0.06172839506172839,62.8395061728395,0)" xlink:href="#ac"/><use transform="matrix(0.06172839506172839,0,0,0.06172839506172839,75.18518518518518,0)" xlink:href="#aq"/></g><use transform="matrix(0.06172839506172839,0,0,0.06172839506172839,0,0)" xlink:href="#ae" id="o"/><g id="p"><use transform="matrix(0.06172839506172839,0,0,0.06172839506172839,0,0)" xlink:href="#ah"/><use transform="matrix(0.06172839506172839,0,0,0.06172839506172839,11.11111111111111,0)" xlink:href="#al"/><use transform="matrix(0.06172839506172839,0,0,0.06172839506172839,23.45679012345679,0)" xlink:href="#ar"/><use transform="matrix(0.06172839506172839,0,0,0.06172839506172839,35.80246913580247,0)" xlink:href="#ai"/><use transform="matrix(0.06172839506172839,0,0,0.06172839506172839,48.148148148148145,0)" xlink:href="#Z"/><use transform="matrix(0.06172839506172839,0,0,0.06172839506172839,60.49382716049382,0)" xlink:href="#ap"/><use transform="matrix(0.06172839506172839,0,0,0.06172839506172839,72.8395061728395,0)" xlink:href="#ac"/></g><use transform="matrix(0.06172839506172839,0,0,0.06172839506172839,0,0)" xlink:href="#ag" id="q"/><g id="r"><use transform="matrix(0.06172839506172839,0,0,0.06172839506172839,0,0)" xlink:href="#ah"/><use transform="matrix(0.06172839506172839,0,0,0.06172839506172839,11.11111111111111,0)" xlink:href="#ai"/><use transform="matrix(0.06172839506172839,0,0,0.06172839506172839,23.45679012345679,0)" xlink:href="#aj"/><use transform="matrix(0.06172839506172839,0,0,0.06172839506172839,41.91358024691358,0)" xlink:href="#ae"/></g><path fill="#333" d="M18-100v-36l175-74v27L42-118l151 64v27" id="au"/><path fill="#333" d="M16-82v-28h88v28H16" id="av"/><g id="s"><use transform="matrix(0.06172839506172839,0,0,0.06172839506172839,0,0)" xlink:href="#au"/><use transform="matrix(0.06172839506172839,0,0,0.06172839506172839,12.962962962962962,0)" xlink:href="#av"/><use transform="matrix(0.06172839506172839,0,0,0.06172839506172839,20.30864197530864,0)" xlink:href="#av"/></g><use transform="matrix(0.06172839506172839,0,0,0.06172839506172839,0,0)" xlink:href="#ae" id="t"/><path fill="#333" d="M118-107v75H92v-75H18v-26h74v-75h26v75h74v26h-74" id="aw"/><use transform="matrix(0.06172839506172839,0,0,0.06172839506172839,0,0)" xlink:href="#aw" id="u"/><use transform="matrix(0.06172839506172839,0,0,0.06172839506172839,0,0)" xlink:href="#ag" id="v"/><g id="w"><use transform="matrix(0.06172839506172839,0,0,0.06172839506172839,0,0)" xlink:href="#ak"/><use transform="matrix(0.06172839506172839,0,0,0.06172839506172839,7.345679012345679,0)" xlink:href="#al"/><use transform="matrix(0.06172839506172839,0,0,0.06172839506172839,19.691358024691358,0)" xlink:href="#ah"/><use transform="matrix(0.06172839506172839,0,0,0.06172839506172839,30.80246913580247,0)" xlink:href="#ad"/><use transform="matrix(0.06172839506172839,0,0,0.06172839506172839,36.97530864197531,0)" xlink:href="#ae"/><use transform="matrix(0.06172839506172839,0,0,0.06172839506172839,49.32098765432099,0)" xlink:href="#am"/></g><use transform="matrix(0.06172839506172839,0,0,0.06172839506172839,0,0)" xlink:href="#av" id="x"/><g id="y"><use transform="matrix(0.06172839506172839,0,0,0.06172839506172839,0,0)" xlink:href="#ak"/><use transform="matrix(0.06172839506172839,0,0,0.06172839506172839,7.345679012345679,0)" xlink:href="#al"/><use transform="matrix(0.06172839506172839,0,0,0.06172839506172839,19.691358024691358,0)" xlink:href="#ah"/><use transform="matrix(0.06172839506172839,0,0,0.06172839506172839,30.80246913580247,0)" xlink:href="#ad"/><use transform="matrix(0.06172839506172839,0,0,0.06172839506172839,36.97530864197531,0)" xlink:href="#ae"/><use transform="matrix(0.06172839506172839,0,0,0.06172839506172839,49.32098765432099,0)" xlink:href="#an"/></g><use transform="matrix(0.06172839506172839,0,0,0.06172839506172839,0,0)" xlink:href="#ag" id="z"/><use transform="matrix(0.06172839506172839,0,0,0.06172839506172839,0,0)" xlink:href="#ae" id="A"/><g id="B"><use transform="matrix(0.06172839506172839,0,0,0.06172839506172839,0,0)" xlink:href="#ao"/><use transform="matrix(0.06172839506172839,0,0,0.06172839506172839,12.345679012345679,0)" xlink:href="#ak"/><use transform="matrix(0.06172839506172839,0,0,0.06172839506172839,19.691358024691358,0)" xlink:href="#ac"/><use transform="matrix(0.06172839506172839,0,0,0.06172839506172839,32.03703703703704,0)" xlink:href="#ap"/><use transform="matrix(0.06172839506172839,0,0,0.06172839506172839,44.382716049382715,0)" xlink:href="#ai"/><use transform="matrix(0.06172839506172839,0,0,0.06172839506172839,56.72839506172839,0)" xlink:href="#ab"/><use transform="matrix(0.06172839506172839,0,0,0.06172839506172839,67.8395061728395,0)" xlink:href="#ad"/><use transform="matrix(0.06172839506172839,0,0,0.06172839506172839,74.01234567901234,0)" xlink:href="#ac"/></g><path fill="#333" d="M80-196l47-18 7 23-49 13 32 44-20 13-27-46-27 45-21-12 33-44-49-13 8-23 47 19-2-53h23" id="ax"/><use transform="matrix(0.06172839506172839,0,0,0.06172839506172839,0,0)" xlink:href="#ax" id="C"/><use transform="matrix(0.06172839506172839,0,0,0.06172839506172839,0,0)" xlink:href="#ag" id="D"/><path fill="#333" d="M30 0v-248h33v221h125V0H30" id="ay"/><g id="E"><use transform="matrix(0.06172839506172839,0,0,0.06172839506172839,0,0)" xlink:href="#aq"/><use transform="matrix(0.06172839506172839,0,0,0.06172839506172839,7.8395061728395055,0)" xlink:href="#ay"/><use transform="matrix(0.06172839506172839,0,0,0.06172839506172839,20.185185185185183,0)" xlink:href="#ae"/></g><g id="F"><use transform="matrix(0.06172839506172839,0,0,0.06172839506172839,0,0)" xlink:href="#ah"/><use transform="matrix(0.06172839506172839,0,0,0.06172839506172839,11.11111111111111,0)" xlink:href="#ai"/><use transform="matrix(0.06172839506172839,0,0,0.06172839506172839,23.45679012345679,0)" xlink:href="#aj"/><use transform="matrix(0.06172839506172839,0,0,0.06172839506172839,41.91358024691358,0)" xlink:href="#ae"/></g><g id="G"><use transform="matrix(0.06172839506172839,0,0,0.06172839506172839,0,0)" xlink:href="#ap"/><use transform="matrix(0.06172839506172839,0,0,0.06172839506172839,12.345679012345679,0)" xlink:href="#al"/></g><g id="H"><use transform="matrix(0.06172839506172839,0,0,0.06172839506172839,0,0)" xlink:href="#ae"/><use transform="matrix(0.06172839506172839,0,0,0.06172839506172839,12.345679012345679,0)" xlink:href="#aj"/><use transform="matrix(0.06172839506172839,0,0,0.06172839506172839,30.80246913580247,0)" xlink:href="#ag"/><use transform="matrix(0.06172839506172839,0,0,0.06172839506172839,43.148148148148145,0)" xlink:href="#ac"/><use transform="matrix(0.06172839506172839,0,0,0.06172839506172839,55.49382716049382,0)" xlink:href="#ah"/></g><g id="I"><use transform="matrix(0.06172839506172839,0,0,0.06172839506172839,0,0)" xlink:href="#Z"/><use transform="matrix(0.06172839506172839,0,0,0.06172839506172839,12.345679012345679,0)" xlink:href="#at"/><use transform="matrix(0.06172839506172839,0,0,0.06172839506172839,24.691358024691358,0)" xlink:href="#aj"/><use transform="matrix(0.06172839506172839,0,0,0.06172839506172839,43.148148148148145,0)" xlink:href="#al"/><use transform="matrix(0.06172839506172839,0,0,0.06172839506172839,55.49382716049382,0)" xlink:href="#ak"/><use transform="matrix(0.06172839506172839,0,0,0.06172839506172839,62.8395061728395,0)" xlink:href="#ac"/><use transform="matrix(0.06172839506172839,0,0,0.06172839506172839,75.18518518518518,0)" xlink:href="#ah"/></g><g id="J"><use transform="matrix(0.06172839506172839,0,0,0.06172839506172839,0,0)" xlink:href="#al"/><use transform="matrix(0.06172839506172839,0,0,0.06172839506172839,12.345679012345679,0)" xlink:href="#ah"/></g><use transform="matrix(0.06172839506172839,0,0,0.06172839506172839,0,0)" xlink:href="#aq" id="K"/><g id="L"><use transform="matrix(0.06172839506172839,0,0,0.06172839506172839,0,0)" xlink:href="#ah"/><use transform="matrix(0.06172839506172839,0,0,0.06172839506172839,11.11111111111111,0)" xlink:href="#ai"/><use transform="matrix(0.06172839506172839,0,0,0.06172839506172839,23.45679012345679,0)" xlink:href="#aj"/><use transform="matrix(0.06172839506172839,0,0,0.06172839506172839,41.91358024691358,0)" xlink:href="#ae"/></g><g id="M"><use transform="matrix(0.06172839506172839,0,0,0.06172839506172839,0,0)" xlink:href="#ak"/><use transform="matrix(0.06172839506172839,0,0,0.06172839506172839,7.345679012345679,0)" xlink:href="#al"/><use transform="matrix(0.06172839506172839,0,0,0.06172839506172839,19.691358024691358,0)" xlink:href="#ah"/><use transform="matrix(0.06172839506172839,0,0,0.06172839506172839,30.80246913580247,0)" xlink:href="#ad"/><use transform="matrix(0.06172839506172839,0,0,0.06172839506172839,36.97530864197531,0)" xlink:href="#ae"/></g><g id="N"><use transform="matrix(0.06172839506172839,0,0,0.06172839506172839,0,0)" xlink:href="#ap"/><use transform="matrix(0.06172839506172839,0,0,0.06172839506172839,12.345679012345679,0)" xlink:href="#al"/><use transform="matrix(0.06172839506172839,0,0,0.06172839506172839,24.691358024691358,0)" xlink:href="#as"/></g><g id="O"><use transform="matrix(0.06172839506172839,0,0,0.06172839506172839,0,0)" xlink:href="#ao"/><use transform="matrix(0.06172839506172839,0,0,0.06172839506172839,12.345679012345679,0)" xlink:href="#ak"/><use transform="matrix(0.06172839506172839,0,0,0.06172839506172839,19.691358024691358,0)" xlink:href="#aa"/><use transform="matrix(0.06172839506172839,0,0,0.06172839506172839,24.5679012345679,0)" xlink:href="#aj"/><use transform="matrix(0.06172839506172839,0,0,0.06172839506172839,43.02469135802468,0)" xlink:href="#al"/><use transform="matrix(0.06172839506172839,0,0,0.06172839506172839,55.37037037037036,0)" xlink:href="#ak"/><use transform="matrix(0.06172839506172839,0,0,0.06172839506172839,62.71604938271604,0)" xlink:href="#ac"/></g><g id="P"><use transform="matrix(0.06172839506172839,0,0,0.06172839506172839,0,0)" xlink:href="#aj"/><use transform="matrix(0.06172839506172839,0,0,0.06172839506172839,18.456790123456788,0)" xlink:href="#al"/><use transform="matrix(0.06172839506172839,0,0,0.06172839506172839,30.80246913580247,0)" xlink:href="#Z"/><use transform="matrix(0.06172839506172839,0,0,0.06172839506172839,43.148148148148145,0)" xlink:href="#ac"/><use transform="matrix(0.06172839506172839,0,0,0.06172839506172839,55.49382716049382,0)" xlink:href="#ah"/></g><g id="Q"><use transform="matrix(0.06172839506172839,0,0,0.06172839506172839,0,0)" xlink:href="#ak"/><use transform="matrix(0.06172839506172839,0,0,0.06172839506172839,7.345679012345679,0)" xlink:href="#al"/><use transform="matrix(0.06172839506172839,0,0,0.06172839506172839,19.691358024691358,0)" xlink:href="#ah"/><use transform="matrix(0.06172839506172839,0,0,0.06172839506172839,30.80246913580247,0)" xlink:href="#ad"/><use transform="matrix(0.06172839506172839,0,0,0.06172839506172839,36.97530864197531,0)" xlink:href="#ae"/><use transform="matrix(0.06172839506172839,0,0,0.06172839506172839,49.32098765432099,0)" xlink:href="#am"/></g><g id="R"><use transform="matrix(0.06172839506172839,0,0,0.06172839506172839,0,0)" xlink:href="#ak"/><use transform="matrix(0.06172839506172839,0,0,0.06172839506172839,7.345679012345679,0)" xlink:href="#al"/><use transform="matrix(0.06172839506172839,0,0,0.06172839506172839,19.691358024691358,0)" xlink:href="#ah"/><use transform="matrix(0.06172839506172839,0,0,0.06172839506172839,30.80246913580247,0)" xlink:href="#ad"/><use transform="matrix(0.06172839506172839,0,0,0.06172839506172839,36.97530864197531,0)" xlink:href="#ae"/><use transform="matrix(0.06172839506172839,0,0,0.06172839506172839,49.32098765432099,0)" xlink:href="#an"/></g><path fill="#333" d="M137-103V0h-34v-103L8-248h37l75 118 75-118h37" id="az"/><g id="S"><use transform="matrix(0.06172839506172839,0,0,0.06172839506172839,0,0)" xlink:href="#aq"/><use transform="matrix(0.06172839506172839,0,0,0.06172839506172839,7.8395061728395055,0)" xlink:href="#az"/></g><g id="T"><use transform="matrix(0.06172839506172839,0,0,0.06172839506172839,0,0)" xlink:href="#ao"/><use transform="matrix(0.06172839506172839,0,0,0.06172839506172839,12.345679012345679,0)" xlink:href="#ak"/><use transform="matrix(0.06172839506172839,0,0,0.06172839506172839,19.691358024691358,0)" xlink:href="#ac"/><use transform="matrix(0.06172839506172839,0,0,0.06172839506172839,32.03703703703704,0)" xlink:href="#ap"/><use transform="matrix(0.06172839506172839,0,0,0.06172839506172839,44.382716049382715,0)" xlink:href="#ai"/><use transform="matrix(0.06172839506172839,0,0,0.06172839506172839,56.72839506172839,0)" xlink:href="#ab"/><use transform="matrix(0.06172839506172839,0,0,0.06172839506172839,67.8395061728395,0)" xlink:href="#ad"/><use transform="matrix(0.06172839506172839,0,0,0.06172839506172839,74.01234567901234,0)" xlink:href="#ac"/></g><g id="U"><use transform="matrix(0.06172839506172839,0,0,0.06172839506172839,0,0)" xlink:href="#al"/><use transform="matrix(0.06172839506172839,0,0,0.06172839506172839,12.345679012345679,0)" xlink:href="#Z"/><use transform="matrix(0.06172839506172839,0,0,0.06172839506172839,24.691358024691358,0)" xlink:href="#ad"/><use transform="matrix(0.06172839506172839,0,0,0.06172839506172839,30.864197530864196,0)" xlink:href="#ak"/><use transform="matrix(0.06172839506172839,0,0,0.06172839506172839,38.20987654320987,0)" xlink:href="#al"/></g><g id="V"><use transform="matrix(0.06172839506172839,0,0,0.06172839506172839,0,0)" xlink:href="#ae"/><use transform="matrix(0.06172839506172839,0,0,0.06172839506172839,12.345679012345679,0)" xlink:href="#aj"/><use transform="matrix(0.06172839506172839,0,0,0.06172839506172839,30.80246913580247,0)" xlink:href="#ag"/><use transform="matrix(0.06172839506172839,0,0,0.06172839506172839,43.148148148148145,0)" xlink:href="#ac"/><use transform="matrix(0.06172839506172839,0,0,0.06172839506172839,55.49382716049382,0)" xlink:href="#ah"/></g><g id="W"><use transform="matrix(0.06172839506172839,0,0,0.06172839506172839,0,0)" xlink:href="#Z"/><use transform="matrix(0.06172839506172839,0,0,0.06172839506172839,12.345679012345679,0)" xlink:href="#at"/><use transform="matrix(0.06172839506172839,0,0,0.06172839506172839,24.691358024691358,0)" xlink:href="#aj"/><use transform="matrix(0.06172839506172839,0,0,0.06172839506172839,43.148148148148145,0)" xlink:href="#al"/><use transform="matrix(0.06172839506172839,0,0,0.06172839506172839,55.49382716049382,0)" xlink:href="#ak"/><use transform="matrix(0.06172839506172839,0,0,0.06172839506172839,62.8395061728395,0)" xlink:href="#ac"/><use transform="matrix(0.06172839506172839,0,0,0.06172839506172839,75.18518518518518,0)" xlink:href="#ah"/></g><path fill="#333" d="M63-220v92h138v28H63V0H30v-248h175v28H63" id="aA"/><g id="X"><use transform="matrix(0.06172839506172839,0,0,0.06172839506172839,0,0)" xlink:href="#aA"/><use transform="matrix(0.06172839506172839,0,0,0.06172839506172839,13.518518518518517,0)" xlink:href="#aa"/><use transform="matrix(0.06172839506172839,0,0,0.06172839506172839,18.39506172839506,0)" xlink:href="#Z"/></g></defs></g></svg>