<svg xmlns="http://www.w3.org/2000/svg" xmlns:xlink="http://www.w3.org/1999/xlink" xmlns:lucid="lucid" width="1360" height="1723"><g transform="translate(-254.58267716537046 1201.5000968400907)" lucid:page-tab-id="6I-b5.jdeftj"><path d="M0-1258.83h1870.87v2581.66H0z" fill="#fff"/><path d="M1014.58-1100c0 44.18-35.8 80-80 80-44.18 0-80-35.82-80-80s35.82-80 80-80c44.2 0 80 35.82 80 80z" stroke="#5e5e5e" stroke-width="3" fill="#fff"/><use xlink:href="#a" transform="matrix(1,0,0,1,859.5826771653706,-1175) translate(49.1358024691358 78.71527777777777)"/><path d="M1016.28 420c0 44.18-35.8 80-80 80-44.18 0-80-35.82-80-80s35.82-80 80-80c44.2 0 80 35.82 80 80z" stroke="#5e5e5e" stroke-width="3" fill="#fff"/><use xlink:href="#b" transform="matrix(1,0,0,1,861.2834645669125,345) translate(59.62962962962963 78.71527777777777)"/><path d="M1183.04-665.8a4.6 4.6 0 0 1-4.46 5.8h-488a4.6 4.6 0 0 1-4.45-5.8l23.57-88.4a7.8 7.8 0 0 1 7.55-5.8h434.67a7.8 7.8 0 0 1 7.54 5.8z" stroke="#5e5e5e" stroke-width="3" fill="#fff"/><path d="M754.58-749a6 6 0 0 1 6-6h348a6 6 0 0 1 6 6v78a6 6 0 0 1-6 6h-348a6 6 0 0 1-6-6z" stroke="#000" stroke-opacity="0" stroke-width="3" fill="#fff" fill-opacity="0"/><use xlink:href="#c" transform="matrix(1,0,0,1,759.5826771653706,-750.0000000000001) translate(80.77160493827161 45.27777777777778)"/><use xlink:href="#d" transform="matrix(1,0,0,1,759.5826771653706,-750.0000000000001) translate(168.7962962962963 45.27777777777778)"/><use xlink:href="#e" transform="matrix(1,0,0,1,759.5826771653706,-750.0000000000001) translate(212.00617283950618 45.27777777777778)"/><path d="M711.4-934.2a7.8 7.8 0 0 1 7.55-5.8h461.33a4.6 4.6 0 0 1 4.46 5.8l-23.58 88.4a7.8 7.8 0 0 1-7.54 5.8H692.28a4.6 4.6 0 0 1-4.45-5.8z" stroke="#5e5e5e" stroke-width="3" fill="#fff"/><use xlink:href="#f" transform="matrix(1,0,0,1,691.2834645669125,-935) translate(205.52969135802468 48.71527777777778)"/><use xlink:href="#g" transform="matrix(1,0,0,1,691.2834645669125,-935) translate(235.09759259259258 48.71527777777778)"/><path d="M686.13-574.2a4.6 4.6 0 0 1 4.45-5.8h488a4.6 4.6 0 0 1 4.46 5.8l-23.58 88.4a7.8 7.8 0 0 1-7.54 5.8H717.25a7.8 7.8 0 0 1-7.55-5.8z" stroke="#5e5e5e" stroke-width="3" fill="#fff"/><use xlink:href="#h" transform="matrix(1,0,0,1,689.5826771653706,-575) translate(220.31364197530863 48.71527777777778)"/><path d="M934.58-1017.5v57.52" stroke="#5e5e5e" stroke-width="2" fill="none"/><path d="M934.56-1018.5h1.01v1.03h-2v-1.06z" stroke="#5e5e5e" stroke-width=".05" fill="#5e5e5e"/><path d="M934.58-944.7l-4.63-14.27h9.27z" stroke="#5e5e5e" stroke-width="2" fill="#5e5e5e"/><path d="M936.28-837.54v57.57" stroke="#5e5e5e" stroke-width="2" fill="none"/><path d="M937.28-837.5h-2v-1.04h2z" stroke="#5e5e5e" stroke-width=".05" fill="#5e5e5e"/><path d="M936.28-764.7l-4.63-14.27h9.27z" stroke="#5e5e5e" stroke-width="2" fill="#5e5e5e"/><path d="M934.58-657.54v57.58" stroke="#5e5e5e" stroke-width="2" fill="none"/><path d="M935.58-657.5h-2v-1.04h2z" stroke="#5e5e5e" stroke-width=".05" fill="#5e5e5e"/><path d="M934.58-584.7l-4.63-14.26h9.27z" stroke="#5e5e5e" stroke-width="2" fill="#5e5e5e"/><path d="M935.43-479V-419.96M935.43-478.97V-480" stroke="#5e5e5e" stroke-width="2" fill="none"/><path d="M935.43-404.7l-4.63-14.26h9.27z" stroke="#5e5e5e" stroke-width="2" fill="#5e5e5e"/><path d="M274.58-243.82a6 6 0 0 1 6-6h1308a6 6 0 0 1 6 6V234a6 6 0 0 1-6 6h-1308a6 6 0 0 1-6-6z" stroke="#5e5e5e" stroke-width="3" fill="#fff"/><path d="M280.43-251.15a.67.67 0 0 0 .15 1.33h1308a.67.67 0 0 0 .15-1.33l-648.3-147.52a26.37 26.37 0 0 0-11.7 0z" stroke="#5e5e5e" stroke-width="3" fill="#fff"/><use xlink:href="#i" transform="matrix(1,0,0,1,279.58267716537057,-395) translate(655.005 61.84027777777778)"/><use xlink:href="#j" transform="matrix(1,0,0,1,279.58267716537057,-395) translate(598.8321604938271 88.50694444444446)"/><use xlink:href="#k" transform="matrix(1,0,0,1,279.58267716537057,-395) translate(654.3877160493827 88.50694444444446)"/><use xlink:href="#l" transform="matrix(1,0,0,1,279.58267716537057,-395) translate(686.4864814814814 88.50694444444446)"/><path d="M714.58-57.75a6 6 0 0 1 6-6h823.3a6 6 0 0 1 6 6V194a6 6 0 0 1-6 6h-823.3a6 6 0 0 1-6-6z" stroke="#5e5e5e" stroke-width="3" fill="#fff"/><path d="M720.2-65.85a1.1 1.1 0 0 0 .38 2.1h823.3a1.1 1.1 0 0 0 .37-2.1l-406.4-152.05a16.04 16.04 0 0 0-11.24 0z" stroke="#5e5e5e" stroke-width="3" fill="#fff"/><use xlink:href="#i" transform="matrix(1,0,0,1,719.5826771653708,-214.99999999999997) translate(412.505 63.71527777777778)"/><use xlink:href="#j" transform="matrix(1,0,0,1,719.5826771653708,-214.99999999999997) translate(356.33216049382713 90.38194444444446)"/><use xlink:href="#k" transform="matrix(1,0,0,1,719.5826771653708,-214.99999999999997) translate(411.8877160493827 90.38194444444446)"/><use xlink:href="#m" transform="matrix(1,0,0,1,719.5826771653708,-214.99999999999997) translate(443.9864814814815 90.38194444444446)"/><path d="M1136.18 28.26a6 6 0 0 1 6-6h361.72a6 6 0 0 1 6 6V154a6 6 0 0 1-6 6h-361.72a6 6 0 0 1-6-6z" stroke="#5e5e5e" stroke-width="3" fill="#fff"/><path d="M1141.86 21.2a1 1 0 0 0 .32 1.95h361.72a1 1 0 0 0 .33-1.96l-175.5-60.5a17.4 17.4 0 0 0-11.36 0z" stroke="#5e5e5e" stroke-width="3" fill="#fff"/><use xlink:href="#n" transform="matrix(1,0,0,1,1141.1849924480866,-36.25000000000017) translate(182.005 21.09722222222222)"/><use xlink:href="#o" transform="matrix(1,0,0,1,1141.1849924480866,-36.25000000000017) translate(136.56672839506172 42.43055555555556)"/><use xlink:href="#p" transform="matrix(1,0,0,1,1141.1849924480866,-36.25000000000017) translate(181.01117283950617 42.43055555555556)"/><use xlink:href="#q" transform="matrix(1,0,0,1,1141.1849924480866,-36.25000000000017) translate(206.6901851851852 42.43055555555556)"/><path d="M1298.2 119.18a4.6 4.6 0 0 1-4.45 5.8h-131.57a4.6 4.6 0 0 1-4.45-5.8l14.96-56.1a7.8 7.8 0 0 1 7.54-5.8h95.45a7.8 7.8 0 0 1 7.54 5.8z" stroke="#5e5e5e" stroke-width="3" fill="#fff"/><path d="M1176.28 60.13a6 6 0 0 1 6-6h91.37a6 6 0 0 1 6 6v62a6 6 0 0 1-6 6h-91.37a6 6 0 0 1-6-6z" stroke="#000" stroke-opacity="0" stroke-width="3" fill="#fff" fill-opacity="0"/><use xlink:href="#r" transform="matrix(1,0,0,1,1181.283464566913,59.12777777777765) translate(23.462962962962973 34.666666666666664)"/><path d="M1091.37-63a.75.75 0 0 1 .75.75V198.5a.75.75 0 0 1-.75.75.75.75 0 0 1-.75-.75V-62.25a.75.75 0 0 1 .75-.75zM1323.04 23.9a.75.75 0 0 1 .75.75V158.5a.75.75 0 0 1-.76.75.75.75 0 0 1-.75-.75V24.65a.75.75 0 0 1 .74-.75z" stroke="#5e5e5e" stroke-width="1.5" fill="none"/><path d="M1488.36 119.18a4.6 4.6 0 0 1-4.46 5.8h-131.56a4.6 4.6 0 0 1-4.45-5.8l14.95-56.1a7.8 7.8 0 0 1 7.54-5.8h95.45a7.8 7.8 0 0 1 7.54 5.8z" stroke="#5e5e5e" stroke-width="3" fill="#fff"/><path d="M1366.44 60.13a6 6 0 0 1 6-6h91.36a6 6 0 0 1 6 6v62a6 6 0 0 1-6 6h-91.36a6 6 0 0 1-6-6z" stroke="#000" stroke-opacity="0" stroke-width="3" fill="#fff" fill-opacity="0"/><g><use xlink:href="#s" transform="matrix(1,0,0,1,1371.4394848655195,59.12777777777765) translate(23.814814814814824 34.666666666666664)"/></g><g><path d="M1048.32 109.5a4.6 4.6 0 0 1-4.45 5.8h-288a4.6 4.6 0 0 1-4.45-5.8l22.06-82.75a7.8 7.8 0 0 1 7.55-5.8h237.68a7.8 7.8 0 0 1 7.56 5.8z" stroke="#5e5e5e" stroke-width="3" fill="#fff"/></g><path d="M791.87 24.12a6 6 0 0 1 6-6h204a6 6 0 0 1 6 6v88a6 6 0 0 1-6 6h-204a6 6 0 0 1-6-6z" stroke="#000" stroke-opacity="0" stroke-width="3" fill="#fff" fill-opacity="0"/><g><use xlink:href="#t" transform="matrix(1,0,0,1,796.8700787401842,23.124999999999893) translate(61.82716049382717 48.71527777777777)"/></g><g><path d="M676.08-249.07a.75.75 0 0 1 .75.75V238.5a.75.75 0 0 1-.75.75.75.75 0 0 1-.75-.75v-486.82a.75.75 0 0 1 .75-.75z" stroke="#5e5e5e" stroke-width="1.5" fill="none"/></g><g><path d="M636.04 42.8a4.6 4.6 0 0 1-4.46 5.8h-308a4.6 4.6 0 0 1-4.45-5.8l22.07-82.76a7.8 7.8 0 0 1 7.54-5.8h257.68a7.8 7.8 0 0 1 7.55 5.8z" stroke="#5e5e5e" stroke-width="3" fill="#fff"/></g><path d="M362.38-42.58a6 6 0 0 1 6-6h218.4a6 6 0 0 1 6 6v88a6 6 0 0 1-6 6h-218.4a6 6 0 0 1-6-6z" stroke="#000" stroke-opacity="0" stroke-width="3" fill="#fff" fill-opacity="0"/><g><use xlink:href="#u" transform="matrix(1,0,0,1,367.38267716537126,-43.582677165354426) translate(71.24074074074075 48.71527777777777)"/></g><path d="M935.43 242.46V320" stroke="#5e5e5e" stroke-width="2" fill="none"/><path d="M936.43 242.5h-2v-1.04h2z" stroke="#5e5e5e" stroke-width=".05" fill="#5e5e5e"/><path d="M935.43 335.27L930.8 321h9.27z" stroke="#5e5e5e" stroke-width="2" fill="#5e5e5e"/><defs><path fill="#333" d="M33 0v-248h34V0H33" id="v"/><path fill="#333" d="M117-194c89-4 53 116 60 194h-32v-121c0-31-8-49-39-48C34-167 62-67 57 0H25l-1-190h30c1 10-1 24 2 32 11-22 29-35 61-36" id="w"/><path fill="#333" d="M24-231v-30h32v30H24zM24 0v-190h32V0H24" id="x"/><path fill="#333" d="M96-169c-40 0-48 33-48 73s9 75 48 75c24 0 41-14 43-38l32 2c-6 37-31 61-74 61-59 0-76-41-82-99-10-93 101-131 147-64 4 7 5 14 7 22l-32 3c-4-21-16-35-41-35" id="y"/><path fill="#333" d="M100-194c62-1 85 37 85 99 1 63-27 99-86 99S16-35 15-95c0-66 28-99 85-99zM99-20c44 1 53-31 53-75 0-43-8-75-51-75s-53 32-53 75 10 74 51 75" id="z"/><g id="a"><use transform="matrix(0.06172839506172839,0,0,0.06172839506172839,0,0)" xlink:href="#v"/><use transform="matrix(0.06172839506172839,0,0,0.06172839506172839,6.172839506172839,0)" xlink:href="#w"/><use transform="matrix(0.06172839506172839,0,0,0.06172839506172839,18.51851851851852,0)" xlink:href="#x"/><use transform="matrix(0.06172839506172839,0,0,0.06172839506172839,23.395061728395063,0)" xlink:href="#y"/><use transform="matrix(0.06172839506172839,0,0,0.06172839506172839,34.50617283950618,0)" xlink:href="#x"/><use transform="matrix(0.06172839506172839,0,0,0.06172839506172839,39.38271604938272,0)" xlink:href="#z"/></g><path fill="#333" d="M63-220v92h138v28H63V0H30v-248h175v28H63" id="A"/><g id="b"><use transform="matrix(0.06172839506172839,0,0,0.06172839506172839,0,0)" xlink:href="#A"/><use transform="matrix(0.06172839506172839,0,0,0.06172839506172839,13.518518518518517,0)" xlink:href="#x"/><use transform="matrix(0.06172839506172839,0,0,0.06172839506172839,18.39506172839506,0)" xlink:href="#w"/></g><path fill="#333" d="M123-170H98l11-78h32zm-65 0H33l11-78h32" id="B"/><path fill="#333" d="M14 0l48-248h34L48 0H14" id="C"/><path fill="#333" d="M67-158c22-48 132-52 116 29L158 0h-32l25-140c3-38-53-32-70-12C52-117 51-52 38 0H6l36-190h30" id="D"/><path fill="#333" d="M103-194c29 0 47 14 56 36 2-11 5-23 8-32h30L160-5C157 61 82 97 21 62 9 55 4 45 1 30l28-7c7 42 83 31 92-3 4-16 9-38 13-55-13 20-29 36-62 36-40 0-60-25-60-64 0-71 23-131 91-131zm4 24c-53 0-58 54-61 104-2 27 10 44 36 44 49 0 65-50 67-102 1-29-15-46-42-46" id="E"/><path fill="#333" d="M66-151c12-25 30-51 66-40l-6 26C45-176 58-65 38 0H6l36-190h30" id="F"/><path fill="#333" d="M111-194c62-3 86 47 72 106H45c-7 38 6 69 45 68 27-1 43-14 53-32l24 11C152-15 129 4 87 4 38 3 12-23 12-71c0-70 32-119 99-123zm44 81c14-66-71-72-95-28-4 8-8 17-11 28h106" id="G"/><path fill="#333" d="M55-144c13 50 104 24 104 88C159 21 15 23 1-39l26-10c6 40 102 42 102-4-13-50-104-23-104-87 0-71 143-71 148-8l-29 4c-5-35-85-37-89 0" id="H"/><g id="c"><use transform="matrix(0.06172839506172839,0,0,0.06172839506172839,0,0)" xlink:href="#B"/><use transform="matrix(0.06172839506172839,0,0,0.06172839506172839,7.8395061728395055,0)" xlink:href="#C"/><use transform="matrix(0.06172839506172839,0,0,0.06172839506172839,14.012345679012345,0)" xlink:href="#D"/><use transform="matrix(0.06172839506172839,0,0,0.06172839506172839,26.358024691358025,0)" xlink:href="#E"/><use transform="matrix(0.06172839506172839,0,0,0.06172839506172839,38.7037037037037,0)" xlink:href="#F"/><use transform="matrix(0.06172839506172839,0,0,0.06172839506172839,46.04938271604938,0)" xlink:href="#G"/><use transform="matrix(0.06172839506172839,0,0,0.06172839506172839,58.395061728395056,0)" xlink:href="#H"/><use transform="matrix(0.06172839506172839,0,0,0.06172839506172839,69.50617283950616,0)" xlink:href="#G"/></g><path fill="#333" d="M67 3c-93-2-31-127-26-193h32L48-50c-3 39 53 32 70 12 30-34 30-101 43-152h32L157 0h-30c1-10 6-24 4-33-14 20-29 37-64 36" id="I"/><path fill="#333" d="M165-48c-4 18 1 34 23 27l-3 20c-29 8-62 0-52-35h-2C116-14 99 4 63 4 30 4 8-16 8-49c0-68 71-67 138-67 10-26 0-56-31-54-26 1-42 9-47 31l-32-5c8-67 160-71 144 15-5 28-9 54-15 81zM42-50c3 52 80 24 89-6 7-12 7-24 11-38-47 1-103-4-100 44" id="J"/><g id="d"><use transform="matrix(0.06172839506172839,0,0,0.06172839506172839,0,0)" xlink:href="#I"/><use transform="matrix(0.06172839506172839,0,0,0.06172839506172839,12.345679012345679,0)" xlink:href="#D"/><use transform="matrix(0.06172839506172839,0,0,0.06172839506172839,24.691358024691358,0)" xlink:href="#J"/></g><path fill="#333" d="M133-28C103 26-5 8 13-77c13-62 24-115 90-117 29-1 46 15 56 35l19-102h32L160 0h-30zM45-64c-2 27 10 43 35 43 54-1 69-50 69-103 0-29-15-46-42-46-53-1-58 58-62 106" id="K"/><g id="e"><use transform="matrix(0.06172839506172839,0,0,0.06172839506172839,0,0)" xlink:href="#G"/><use transform="matrix(0.06172839506172839,0,0,0.06172839506172839,12.345679012345679,0)" xlink:href="#K"/><use transform="matrix(0.06172839506172839,0,0,0.06172839506172839,24.691358024691358,0)" xlink:href="#J"/><use transform="matrix(0.06172839506172839,0,0,0.06172839506172839,37.03703703703704,0)" xlink:href="#K"/><use transform="matrix(0.06172839506172839,0,0,0.06172839506172839,49.382716049382715,0)" xlink:href="#B"/></g><path fill="#333" d="M59-47c-2 24 18 29 38 22v24C64 9 27 4 27-40v-127H5v-23h24l9-43h21v43h35v23H59v120" id="L"/><g id="f"><use transform="matrix(0.06172839506172839,0,0,0.06172839506172839,0,0)" xlink:href="#x"/><use transform="matrix(0.06172839506172839,0,0,0.06172839506172839,4.876543209876543,0)" xlink:href="#w"/><use transform="matrix(0.06172839506172839,0,0,0.06172839506172839,17.22222222222222,0)" xlink:href="#L"/></g><path fill="#333" d="M100-194c63 0 86 42 84 106H49c0 40 14 67 53 68 26 1 43-12 49-29l28 8c-11 28-37 45-77 45C44 4 14-33 15-96c1-61 26-98 85-98zm52 81c6-60-76-77-97-28-3 7-6 17-6 28h103" id="M"/><path fill="#333" d="M85-194c31 0 48 13 60 33l-1-100h32l1 261h-30c-2-10 0-23-3-31C134-8 116 4 85 4 32 4 16-35 15-94c0-66 23-100 70-100zm9 24c-40 0-46 34-46 75 0 40 6 74 45 74 42 0 51-32 51-76 0-42-9-74-50-73" id="N"/><path fill="#333" d="M141-36C126-15 110 5 73 4 37 3 15-17 15-53c-1-64 63-63 125-63 3-35-9-54-41-54-24 1-41 7-42 31l-33-3c5-37 33-52 76-52 45 0 72 20 72 64v82c-1 20 7 32 28 27v20c-31 9-61-2-59-35zM48-53c0 20 12 33 32 33 41-3 63-29 60-74-43 2-92-5-92 41" id="O"/><g id="g"><use transform="matrix(0.06172839506172839,0,0,0.06172839506172839,0,0)" xlink:href="#M"/><use transform="matrix(0.06172839506172839,0,0,0.06172839506172839,12.345679012345679,0)" xlink:href="#N"/><use transform="matrix(0.06172839506172839,0,0,0.06172839506172839,24.691358024691358,0)" xlink:href="#O"/><use transform="matrix(0.06172839506172839,0,0,0.06172839506172839,37.03703703703704,0)" xlink:href="#N"/></g><g id="h"><use transform="matrix(0.06172839506172839,0,0,0.06172839506172839,0,0)" xlink:href="#M"/><use transform="matrix(0.06172839506172839,0,0,0.06172839506172839,12.345679012345679,0)" xlink:href="#N"/><use transform="matrix(0.06172839506172839,0,0,0.06172839506172839,24.691358024691358,0)" xlink:href="#O"/><use transform="matrix(0.06172839506172839,0,0,0.06172839506172839,37.03703703703704,0)" xlink:href="#N"/></g><g id="j"><use transform="matrix(0.06172839506172839,0,0,0.06172839506172839,0,0)" xlink:href="#M"/><use transform="matrix(0.06172839506172839,0,0,0.06172839506172839,12.345679012345679,0)" xlink:href="#N"/><use transform="matrix(0.06172839506172839,0,0,0.06172839506172839,24.691358024691358,0)" xlink:href="#O"/><use transform="matrix(0.06172839506172839,0,0,0.06172839506172839,37.03703703703704,0)" xlink:href="#N"/></g><path fill="#333" d="M18-100v-36l175-74v27L42-118l151 64v27" id="P"/><path fill="#333" d="M18-150v-26h174v26H18zm0 90v-26h174v26H18" id="Q"/><g id="k"><use transform="matrix(0.06172839506172839,0,0,0.06172839506172839,0,0)" xlink:href="#P"/><use transform="matrix(0.06172839506172839,0,0,0.06172839506172839,12.962962962962962,0)" xlink:href="#Q"/></g><path fill="#333" d="M27 0v-27h64v-190l-56 39v-29l58-41h29v221h61V0H27" id="R"/><path fill="#333" d="M101-251c82-7 93 87 43 132L82-64C71-53 59-42 53-27h129V0H18c2-99 128-94 128-182 0-28-16-43-45-43s-46 15-49 41l-32-3c6-41 34-60 81-64" id="S"/><g id="l"><use transform="matrix(0.06172839506172839,0,0,0.06172839506172839,0,0)" xlink:href="#R"/><use transform="matrix(0.06172839506172839,0,0,0.06172839506172839,12.345679012345679,0)" xlink:href="#S"/></g><path fill="#333" d="M134-131c28 9 52 24 51 62-1 50-34 73-85 73S17-19 16-69c0-36 21-54 49-61-75-25-45-126 34-121 46 3 78 18 79 63 0 33-17 51-44 57zm-34-11c31 1 46-15 46-44 0-28-17-43-47-42-29 0-46 13-45 42 1 28 16 44 46 44zm1 122c35 0 51-18 51-52 0-30-18-46-53-46-33 0-51 17-51 47 0 34 19 51 53 51" id="T"/><g id="m"><use transform="matrix(0.06172839506172839,0,0,0.06172839506172839,0,0)" xlink:href="#R"/><use transform="matrix(0.06172839506172839,0,0,0.06172839506172839,12.345679012345679,0)" xlink:href="#T"/></g><g id="o"><use transform="matrix(0.049382716049382706,0,0,0.049382716049382706,0,0)" xlink:href="#M"/><use transform="matrix(0.049382716049382706,0,0,0.049382716049382706,9.87654320987654,0)" xlink:href="#N"/><use transform="matrix(0.049382716049382706,0,0,0.049382716049382706,19.75308641975308,0)" xlink:href="#O"/><use transform="matrix(0.049382716049382706,0,0,0.049382716049382706,29.629629629629623,0)" xlink:href="#N"/></g><g id="p"><use transform="matrix(0.049382716049382706,0,0,0.049382716049382706,0,0)" xlink:href="#P"/><use transform="matrix(0.049382716049382706,0,0,0.049382716049382706,10.370370370370368,0)" xlink:href="#Q"/></g><path fill="#333" d="M110-160c48 1 74 30 74 79 0 53-28 85-80 85-65 0-83-55-86-122-5-90 50-162 133-122 14 7 22 21 27 39l-31 6c-5-40-67-38-82-6-9 19-15 44-15 74 11-20 30-34 60-33zm-7 138c34 0 49-23 49-58s-16-56-50-56c-29 0-50 16-49 49 1 36 15 65 50 65" id="U"/><g id="q"><use transform="matrix(0.049382716049382706,0,0,0.049382716049382706,0,0)" xlink:href="#S"/><use transform="matrix(0.049382716049382706,0,0,0.049382716049382706,9.87654320987654,0)" xlink:href="#U"/></g><path fill="#333" d="M51-231l6-30h31l-6 30H51zM33 24C28 60 2 84-40 72c3-12-1-29 18-22C-5 49-1 37 2 19l41-209h32" id="V"/><path fill="#333" d="M89 0H52L20-190h33L74-25l89-165h34" id="W"/><path fill="#333" d="M50-231l6-30h32l-6 30H50zM6 0l37-190h31L37 0H6" id="X"/><path fill="#333" d="M6 0l50-261h32L37 0H6" id="Y"/><g id="r"><use transform="matrix(0.03703703703703702,0,0,0.03703703703703702,0,0)" xlink:href="#B"/><use transform="matrix(0.03703703703703702,0,0,0.03703703703703702,4.7037037037037015,0)" xlink:href="#V"/><use transform="matrix(0.03703703703703702,0,0,0.03703703703703702,7.629629629629626,0)" xlink:href="#I"/><use transform="matrix(0.03703703703703702,0,0,0.03703703703703702,15.037037037037031,0)" xlink:href="#W"/><use transform="matrix(0.03703703703703702,0,0,0.03703703703703702,21.703703703703695,0)" xlink:href="#G"/><use transform="matrix(0.03703703703703702,0,0,0.03703703703703702,29.1111111111111,0)" xlink:href="#D"/><use transform="matrix(0.03703703703703702,0,0,0.03703703703703702,36.518518518518505,0)" xlink:href="#X"/><use transform="matrix(0.03703703703703702,0,0,0.03703703703703702,39.44444444444443,0)" xlink:href="#Y"/><use transform="matrix(0.03703703703703702,0,0,0.03703703703703702,42.37037037037035,0)" xlink:href="#B"/></g><path fill="#333" d="M248-111c6-24 9-61-24-58-72 9-57 108-77 169h-31l26-142c3-37-50-30-64-10C52-115 50-51 37 0H6l36-190h30c-1 10-6 24-4 32 13-43 101-52 105 5 13-22 29-41 61-41 90 0 28 129 23 194h-31" id="Z"/><path fill="#333" d="M198-190L69 30C53 58 25 83-20 72c4-11-1-27 19-22 33-1 43-29 59-52L20-190h32L79-34l84-156h35" id="aa"/><path fill="#333" d="M30-147c31-64 166-65 159 27C183-49 158 1 86 4 9 8 1-88 30-147zM88-20c53 0 68-48 68-100 0-31-11-51-44-50-52 1-68 46-68 97 0 32 13 53 44 53" id="ab"/><g id="s"><use transform="matrix(0.03703703703703702,0,0,0.03703703703703702,0,0)" xlink:href="#B"/><use transform="matrix(0.03703703703703702,0,0,0.03703703703703702,4.7037037037037015,0)" xlink:href="#Z"/><use transform="matrix(0.03703703703703702,0,0,0.03703703703703702,15.777777777777771,0)" xlink:href="#J"/><use transform="matrix(0.03703703703703702,0,0,0.03703703703703702,23.185185185185176,0)" xlink:href="#aa"/><use transform="matrix(0.03703703703703702,0,0,0.03703703703703702,29.85185185185184,0)" xlink:href="#ab"/><use transform="matrix(0.03703703703703702,0,0,0.03703703703703702,37.259259259259245,0)" xlink:href="#F"/><use transform="matrix(0.03703703703703702,0,0,0.03703703703703702,41.66666666666665,0)" xlink:href="#B"/></g><path fill="#333" d="M44-68c0 29 11 47 38 47 30 0 42-19 51-41l28 9C148-21 126 4 82 4 31 4 10-29 12-85c3-77 74-140 146-93 12 8 15 23 18 40l-31 5c-1-22-13-36-36-36-52 0-65 49-65 101" id="ac"/><path fill="#333" d="M51-54c-9 22 5 41 31 30L79-1C43 14 10-4 19-52l22-115H19l5-23h22l19-43h21l-9 43h35l-4 23H73" id="ad"/><g id="t"><use transform="matrix(0.061728395061728385,0,0,0.061728395061728385,0,0)" xlink:href="#B"/><use transform="matrix(0.061728395061728385,0,0,0.061728395061728385,7.839506172839505,0)" xlink:href="#ac"/><use transform="matrix(0.061728395061728385,0,0,0.061728395061728385,18.950617283950614,0)" xlink:href="#J"/><use transform="matrix(0.061728395061728385,0,0,0.061728395061728385,31.29629629629629,0)" xlink:href="#K"/><use transform="matrix(0.061728395061728385,0,0,0.061728395061728385,43.64197530864197,0)" xlink:href="#G"/><use transform="matrix(0.061728395061728385,0,0,0.061728395061728385,55.987654320987644,0)" xlink:href="#ad"/><use transform="matrix(0.061728395061728385,0,0,0.061728395061728385,62.16049382716048,0)" xlink:href="#G"/><use transform="matrix(0.061728395061728385,0,0,0.061728395061728385,74.50617283950615,0)" xlink:href="#B"/></g><g id="u"><use transform="matrix(0.061728395061728385,0,0,0.061728395061728385,0,0)" xlink:href="#B"/><use transform="matrix(0.061728395061728385,0,0,0.061728395061728385,7.839506172839505,0)" xlink:href="#Z"/><use transform="matrix(0.061728395061728385,0,0,0.061728395061728385,26.29629629629629,0)" xlink:href="#G"/><use transform="matrix(0.061728395061728385,0,0,0.061728395061728385,38.64197530864197,0)" xlink:href="#D"/><use transform="matrix(0.061728395061728385,0,0,0.061728395061728385,50.987654320987644,0)" xlink:href="#ab"/><use transform="matrix(0.061728395061728385,0,0,0.061728395061728385,63.33333333333332,0)" xlink:href="#F"/><use transform="matrix(0.061728395061728385,0,0,0.061728395061728385,70.679012345679,0)" xlink:href="#B"/></g></defs></g></svg>