<svg xmlns="http://www.w3.org/2000/svg" xmlns:xlink="http://www.w3.org/1999/xlink" xmlns:lucid="lucid" width="770" height="3333.76"><g transform="translate(-480 1201.5000968400907)" lucid:page-tab-id="hMvh6Wu8PydE"><path d="M0-1258.83h1870.87v3840.5H0z" fill="#fff"/><path d="M1014.58-1100c0 44.18-35.8 80-80 80-44.18 0-80-35.82-80-80s35.82-80 80-80c44.2 0 80 35.82 80 80z" stroke="#5e5e5e" stroke-width="3" fill="#fff"/><use xlink:href="#a" transform="matrix(1,0,0,1,859.5826771653706,-1175) translate(49.1358024691358 78.71527777777777)"/><path d="M711.4-934.2a7.8 7.8 0 0 1 7.55-5.8h461.33a4.6 4.6 0 0 1 4.46 5.8l-23.58 88.4a7.8 7.8 0 0 1-7.54 5.8H692.28a4.6 4.6 0 0 1-4.45-5.8z" stroke="#5e5e5e" stroke-width="3" fill="#fff"/><use xlink:href="#b" transform="matrix(1,0,0,1,691.2834645669125,-935) translate(97.07290123456791 48.71527777777778)"/><use xlink:href="#c" transform="matrix(1,0,0,1,691.2834645669125,-935) translate(126.64080246913579 48.71527777777778)"/><use xlink:href="#d" transform="matrix(1,0,0,1,691.2834645669125,-935) translate(151.33216049382716 48.71527777777778)"/><use xlink:href="#e" transform="matrix(1,0,0,1,691.2834645669125,-935) translate(180.90006172839506 48.71527777777778)"/><use xlink:href="#f" transform="matrix(1,0,0,1,691.2834645669125,-935) translate(198.1222839506173 48.71527777777778)"/><use xlink:href="#g" transform="matrix(1,0,0,1,691.2834645669125,-935) translate(246.20870370370372 48.71527777777778)"/><path d="M934.58-1017.5v57.52" stroke="#5e5e5e" stroke-width="2" fill="none"/><path d="M934.56-1018.5h1.01v1.03h-2v-1.06z" stroke="#5e5e5e" stroke-width=".05" fill="#5e5e5e"/><path d="M934.58-944.7l-4.63-14.27h9.27z" stroke="#5e5e5e" stroke-width="2" fill="#5e5e5e"/><path d="M934.58-299v56.1" stroke="#5e5e5e" stroke-width="2" fill="none"/><path d="M935.58-298.97h-2V-300h2z" stroke="#5e5e5e" stroke-width=".05" fill="#5e5e5e"/><path d="M934.58-227.62l-4.63-14.27h9.27z" stroke="#5e5e5e" stroke-width="2" fill="#5e5e5e"/><path d="M934.58-839v54.75M934.58-838.97V-840" stroke="#5e5e5e" stroke-width="2" fill="none"/><path d="M934.58-769l-4.63-14.25h9.27z" stroke="#5e5e5e" stroke-width="2" fill="#5e5e5e"/><path d="M934.58-661.82v61.85" stroke="#5e5e5e" stroke-width="2" fill="none"/><path d="M935.58-661.8h-2v-1.02h2z" stroke="#5e5e5e" stroke-width=".05" fill="#5e5e5e"/><path d="M934.58-584.7l-4.63-14.27h9.27z" stroke="#5e5e5e" stroke-width="2" fill="#5e5e5e"/><path d="M934.58-477.54v56.1" stroke="#5e5e5e" stroke-width="2" fill="none"/><path d="M935.58-477.5h-2v-1.04h2z" stroke="#5e5e5e" stroke-width=".05" fill="#5e5e5e"/><path d="M934.58-406.16l-4.63-14.27h9.27z" stroke="#5e5e5e" stroke-width="2" fill="#5e5e5e"/><path d="M684.58-758.3a6 6 0 0 1 6-6h488a6 6 0 0 1 6 6v88a6 6 0 0 1-6 6h-488a6 6 0 0 1-6-6z" stroke="#5e5e5e" stroke-width="3" fill="#fff"/><use xlink:href="#h" transform="matrix(1,0,0,1,696.5826771653706,-752.2855656734546) translate(76.08641975308643 41.52777777777778)"/><use xlink:href="#i" transform="matrix(1,0,0,1,696.5826771653706,-752.2855656734546) translate(124.17283950617286 41.52777777777778)"/><use xlink:href="#j" transform="matrix(1,0,0,1,696.5826771653706,-752.2855656734546) translate(255.5925925925926 41.52777777777778)"/><use xlink:href="#k" transform="matrix(1,0,0,1,696.5826771653706,-752.2855656734546) translate(301.7654320987655 41.52777777777778)"/><path d="M684.58-574a6 6 0 0 1 6-6h488a6 6 0 0 1 6 6v88a6 6 0 0 1-6 6h-488a6 6 0 0 1-6-6z" stroke="#5e5e5e" stroke-width="3" fill="#fff"/><use xlink:href="#h" transform="matrix(1,0,0,1,696.5826771653706,-568) translate(73.03086419753086 41.52777777777778)"/><use xlink:href="#l" transform="matrix(1,0,0,1,696.5826771653706,-568) translate(121.11728395061729 41.52777777777778)"/><use xlink:href="#j" transform="matrix(1,0,0,1,696.5826771653706,-568) translate(251.30246913580248 41.52777777777778)"/><use xlink:href="#m" transform="matrix(1,0,0,1,696.5826771653706,-568) translate(297.4753086419753 41.52777777777778)"/><path d="M684.58-395.46a6 6 0 0 1 6-6h488a6 6 0 0 1 6 6v88a6 6 0 0 1-6 6h-488a6 6 0 0 1-6-6z" stroke="#5e5e5e" stroke-width="3" fill="#fff"/><use xlink:href="#n" transform="matrix(1,0,0,1,696.5826771653706,-389.46146780485014) translate(112.59876543209877 41.52777777777778)"/><use xlink:href="#o" transform="matrix(1,0,0,1,696.5826771653706,-389.46146780485014) translate(142.16666666666669 41.52777777777778)"/><use xlink:href="#j" transform="matrix(1,0,0,1,696.5826771653706,-389.46146780485014) translate(304.88271604938274 41.52777777777778)"/><use xlink:href="#p" transform="matrix(1,0,0,1,696.5826771653706,-389.46146780485014) translate(351.05555555555554 41.52777777777778)"/><path d="M934.58-120.46v57.57" stroke="#5e5e5e" stroke-width="2" fill="none"/><path d="M935.58-120.43h-2v-1.03h2z" stroke="#5e5e5e" stroke-width=".05" fill="#5e5e5e"/><path d="M934.58-47.62l-4.63-14.27h9.27z" stroke="#5e5e5e" stroke-width="2" fill="#5e5e5e"/><path d="M684.58-216.92a6 6 0 0 1 6-6h488a6 6 0 0 1 6 6v88a6 6 0 0 1-6 6h-488a6 6 0 0 1-6-6z" stroke="#5e5e5e" stroke-width="3" fill="#fff"/><use xlink:href="#n" transform="matrix(1,0,0,1,696.5826771653706,-210.9229356097003) translate(113.21604938271606 41.52777777777778)"/><use xlink:href="#q" transform="matrix(1,0,0,1,696.5826771653706,-210.9229356097003) translate(142.78395061728395 41.52777777777778)"/><use xlink:href="#j" transform="matrix(1,0,0,1,696.5826771653706,-210.9229356097003) translate(304.2654320987654 41.52777777777778)"/><use xlink:href="#p" transform="matrix(1,0,0,1,696.5826771653706,-210.9229356097003) translate(350.4382716049383 41.52777777777778)"/><path d="M570 326a6 6 0 0 1 6-6h648a6 6 0 0 1 6 6v1168a6 6 0 0 1-6 6H576a6 6 0 0 1-6-6z" stroke="#5e5e5e" stroke-width="3" fill="#fff"/><path d="M640 904.36c0 34.7-31.34 62.86-70 62.86s-70-28.15-70-62.86c0-34.72 31.34-62.86 70-62.86s70 28.14 70 62.86z" stroke="#5e5e5e" stroke-width="3" fill="#fff"/><path d="M500.75 905.86a.75.75 0 0 1 .75-.75h137a.75.75 0 0 1 .75.76.75.75 0 0 1-.75.75h-137a.75.75 0 0 1-.75-.74zM570 440.06a.75.75 0 0 1 .75.75v67a.75.75 0 0 1-.75.76.75.75 0 0 1-.75-.75v-67a.75.75 0 0 1 .75-.74z" stroke="#5e5e5e" stroke-width="1.5" fill="none"/><path d="M500 868.45a6 6 0 0 1 6-6h68a6 6 0 0 1 6 6v29.9a6 6 0 0 1-6 6h-68a6 6 0 0 1-6-6z" stroke="#000" stroke-opacity="0" stroke-width="3" fill="#fff" fill-opacity="0"/><use xlink:href="#r" transform="matrix(1,0,0,1,505,867.4533155304218) translate(30.061728395061728 20.22222222222222)"/><path d="M568.5 868.45a6 6 0 0 1 6-6h58a6 6 0 0 1 6 6v29.9a6 6 0 0 1-6 6h-58a6 6 0 0 1-6-6z" stroke="#000" stroke-opacity="0" stroke-width="3" fill="#fff" fill-opacity="0"/><use xlink:href="#s" transform="matrix(1,0,0,1,573.5,867.4533155304218) translate(25.061728395061728 20.22222222222222)"/><path d="M530 913.5a6 6 0 0 1 6-6h68a6 6 0 0 1 6 6v29.9a6 6 0 0 1-6 6h-68a6 6 0 0 1-6-6z" stroke="#000" stroke-opacity="0" stroke-width="3" fill="#fff" fill-opacity="0"/><use xlink:href="#t" transform="matrix(1,0,0,1,535,912.5009345780406) translate(33.04938271604939 20.22222222222222)"/><path d="M570 906.54V800v39" stroke="#5e5e5e" stroke-width="2" fill="none"/><path d="M571 907.54h-2v-1.03h2zM571 840.04l-1-.04-1 .04v-1.07h2z" stroke="#5e5e5e" stroke-width=".05" fill="#5e5e5e"/><path d="M894.58 1501v57.53M894.58 1501.03V1500" stroke="#5e5e5e" stroke-width="2" fill="none"/><path d="M894.58 1573.8l-4.63-14.27h9.27z" stroke="#5e5e5e" stroke-width="2" fill="#5e5e5e"/><path d="M1143.04 1674.2a4.6 4.6 0 0 1-4.46 5.8h-488a4.6 4.6 0 0 1-4.45-5.8l23.57-88.4a7.8 7.8 0 0 1 7.55-5.8h434.67a7.8 7.8 0 0 1 7.54 5.8z" stroke="#5e5e5e" stroke-width="3" fill="#fff"/><path d="M739.15 1591a6 6 0 0 1 6-6H1054a6 6 0 0 1 6 6v78a6 6 0 0 1-6 6H745.15a6 6 0 0 1-6-6z" stroke="#000" stroke-opacity="0" stroke-width="3" fill="#fff" fill-opacity="0"/><use xlink:href="#u" transform="matrix(1,0,0,1,744.1496062992123,1590) translate(3.4320987654321016 17.77777777777778)"/><use xlink:href="#v" transform="matrix(1,0,0,1,744.1496062992123,1590) translate(37.135802469135804 17.77777777777778)"/><use xlink:href="#w" transform="matrix(1,0,0,1,744.1496062992123,1590) translate(104.91358024691357 17.77777777777778)"/><use xlink:href="#x" transform="matrix(1,0,0,1,744.1496062992123,1590) translate(159.1111111111111 17.77777777777778)"/><use xlink:href="#y" transform="matrix(1,0,0,1,744.1496062992123,1590) translate(262.69135802469134 17.77777777777778)"/><use xlink:href="#z" transform="matrix(1,0,0,1,744.1496062992123,1590) translate(299.7283950617284 17.77777777777778)"/><use xlink:href="#A" transform="matrix(1,0,0,1,744.1496062992123,1590) translate(11.672839506172835 44.44444444444444)"/><use xlink:href="#B" transform="matrix(1,0,0,1,744.1496062992123,1590) translate(129.51234567901236 44.44444444444444)"/><use xlink:href="#C" transform="matrix(1,0,0,1,744.1496062992123,1590) translate(149.69753086419755 44.44444444444444)"/><use xlink:href="#D" transform="matrix(1,0,0,1,744.1496062992123,1590) translate(180.56172839506175 44.44444444444444)"/><use xlink:href="#E" transform="matrix(1,0,0,1,744.1496062992123,1590) translate(203.9567901234568 44.44444444444444)"/><use xlink:href="#z" transform="matrix(1,0,0,1,744.1496062992123,1590) translate(291.48765432098764 44.44444444444444)"/><use xlink:href="#F" transform="matrix(1,0,0,1,744.1496062992123,1590) translate(84.01851851851852 71.11111111111111)"/><path d="M934.58 240.87v57.58M934.58 240.9v-1.03" stroke="#5e5e5e" stroke-width="2" fill="none"/><path d="M934.58 313.7l-4.63-14.25h9.27z" stroke="#5e5e5e" stroke-width="2" fill="#5e5e5e"/><path d="M1182.2 53.84a4.6 4.6 0 0 1-4.47 5.8h-488a4.6 4.6 0 0 1-4.45-5.8l23.57-88.4a7.8 7.8 0 0 1 7.55-5.8h434.67a7.8 7.8 0 0 1 7.54 5.8z" stroke="#5e5e5e" stroke-width="3" fill="#fff"/><path d="M778.3-42.7a6 6 0 0 1 6-6h292.57a6 6 0 0 1 6 6V61.97a6 6 0 0 1-6 6H784.3a6 6 0 0 1-6-6z" stroke="#000" stroke-opacity="0" stroke-width="3" fill="#fff" fill-opacity="0"/><use xlink:href="#G" transform="matrix(1,0,0,1,783.2992125984413,-43.70050495581316) translate(34.41358024691358 44.52777777777778)"/><use xlink:href="#H" transform="matrix(1,0,0,1,783.2992125984413,-43.70050495581316) translate(122.43827160493827 44.52777777777778)"/><use xlink:href="#I" transform="matrix(1,0,0,1,783.2992125984413,-43.70050495581316) translate(145.83333333333331 44.52777777777778)"/><use xlink:href="#J" transform="matrix(1,0,0,1,783.2992125984413,-43.70050495581316) translate(235.89506172839504 44.52777777777778)"/><use xlink:href="#K" transform="matrix(1,0,0,1,783.2992125984413,-43.70050495581316) translate(49.29012345679013 71.19444444444446)"/><use xlink:href="#L" transform="matrix(1,0,0,1,783.2992125984413,-43.70050495581316) translate(126.94444444444444 71.19444444444446)"/><use xlink:href="#M" transform="matrix(1,0,0,1,783.2992125984413,-43.70050495581316) translate(145.46296296296296 71.19444444444446)"/><use xlink:href="#N" transform="matrix(1,0,0,1,783.2992125984413,-43.70050495581316) translate(237.87037037037038 71.19444444444446)"/><path d="M935.43 60.63V119.67M935.43 60.66v-1.03" stroke="#5e5e5e" stroke-width="2" fill="none"/><path d="M935.43 134.93l-4.63-14.26h9.27z" stroke="#5e5e5e" stroke-width="2" fill="#5e5e5e"/><path d="M686.98 145.43a4.6 4.6 0 0 1 4.45-5.8h488a4.6 4.6 0 0 1 4.46 5.8l-23.6 88.4a7.8 7.8 0 0 1-7.53 5.8H718.1a7.8 7.8 0 0 1-7.55-5.8z" stroke="#5e5e5e" stroke-width="3" fill="#fff"/><use xlink:href="#O" transform="matrix(1,0,0,1,690.4330708661416,144.63282837752016) translate(238.83216049382716 48.71527777777778)"/><path d="M1178.45 437.64a4.6 4.6 0 0 1-4.45 5.8H686a4.6 4.6 0 0 1-4.45-5.8l17.9-67.17a7.8 7.8 0 0 1 7.55-5.8h446a7.8 7.8 0 0 1 7.54 5.8z" stroke="#5e5e5e" stroke-width="3" fill="#fff"/><path d="M774.57 364.1a6 6 0 0 1 6-6h292.56a6 6 0 0 1 6 6V444a6 6 0 0 1-6 6H780.57a6 6 0 0 1-6-6z" stroke="#000" stroke-opacity="0" stroke-width="3" fill="#fff" fill-opacity="0"/><use xlink:href="#G" transform="matrix(1,0,0,1,779.5669291338421,363.1094742981803) translate(53.95061728395062 45.96527777777778)"/><use xlink:href="#P" transform="matrix(1,0,0,1,779.5669291338421,363.1094742981803) translate(141.9753086419753 45.96527777777778)"/><use xlink:href="#Q" transform="matrix(1,0,0,1,779.5669291338421,363.1094742981803) translate(172.8395061728395 45.96527777777778)"/><use xlink:href="#N" transform="matrix(1,0,0,1,779.5669291338421,363.1094742981803) translate(233.20987654320987 45.96527777777778)"/><path d="M930 444.77v42.55M930 444.8v-1.03" stroke="#5e5e5e" stroke-width="2" fill="none"/><path d="M930 502.58l-4.64-14.26h9.28z" stroke="#5e5e5e" stroke-width="2" fill="#5e5e5e"/><path d="M681.55 513.08a4.6 4.6 0 0 1 4.45-5.8h488a4.6 4.6 0 0 1 4.45 5.8l-18.24 68.4a7.8 7.8 0 0 1-7.53 5.8H707.33a7.8 7.8 0 0 1-7.54-5.8z" stroke="#5e5e5e" stroke-width="3" fill="#fff"/><g><use xlink:href="#R" transform="matrix(1,0,0,1,685.0000000000003,512.2823713436127) translate(171.6408024691358 39.65277777777778)"/></g><path d="M680 736.06a6 6 0 0 1 6-6h488a6 6 0 0 1 6 6V1014a6 6 0 0 1-6 6H686a6 6 0 0 1-6-6z" stroke="#5e5e5e" stroke-width="3" fill="#fff"/><path d="M685.72 728.26a.92.92 0 0 0 .28 1.8h488a.92.92 0 0 0 .28-1.8L935.72 653a19.02 19.02 0 0 0-11.44 0z" stroke="#5e5e5e" stroke-width="3" fill="#fff"/><g><use xlink:href="#S" transform="matrix(1,0,0,1,685,656.201257748281) translate(245.005 16.37847222222222)"/><use xlink:href="#T" transform="matrix(1,0,0,1,685,656.201257748281) translate(178.65932098765433 37.71180555555556)"/><use xlink:href="#U" transform="matrix(1,0,0,1,685,656.201257748281) translate(300.9803086419753 37.71180555555556)"/><use xlink:href="#V" transform="matrix(1,0,0,1,685,656.201257748281) translate(200.33833333333337 59.045138888888886)"/></g><path d="M700 777.2a6 6 0 0 1 6-6h448a6 6 0 0 1 6 6v67.08a6 6 0 0 1-6 6H706a6 6 0 0 1-6-6z" stroke="#5e5e5e" stroke-width="3" fill="#fff"/><g><use xlink:href="#W" transform="matrix(1,0,0,1,712.0000000000167,783.201257748281) translate(93.70370370370374 31.72222222222222)"/><use xlink:href="#X" transform="matrix(1,0,0,1,712.0000000000167,783.201257748281) translate(192.91358024691357 31.72222222222222)"/><use xlink:href="#Y" transform="matrix(1,0,0,1,712.0000000000167,783.201257748281) translate(224.91358024691357 31.72222222222222)"/></g><path d="M930 589.75v42.36" stroke="#5e5e5e" stroke-width="2" fill="none"/><path d="M931 589.77h-2v-1.02h2z" stroke="#5e5e5e" stroke-width=".05" fill="#5e5e5e"/><path d="M930 647.4l-4.64-14.28h9.28z" stroke="#5e5e5e" stroke-width="2" fill="#5e5e5e"/><path d="M700 906a6 6 0 0 1 6-6h448a6 6 0 0 1 6 6v67.08a6 6 0 0 1-6 6H706a6 6 0 0 1-6-6z" stroke="#5e5e5e" stroke-width="3" fill="#fff"/><g><use xlink:href="#Z" transform="matrix(1,0,0,1,712.0000000000167,912.0000000000002) translate(137.92592592592592 31.72222222222222)"/><use xlink:href="#X" transform="matrix(1,0,0,1,712.0000000000167,912.0000000000002) translate(262.1728395061728 31.72222222222222)"/><use xlink:href="#aa" transform="matrix(1,0,0,1,712.0000000000167,912.0000000000002) translate(294.1728395061728 31.72222222222222)"/></g><path d="M930 852.75v27.28" stroke="#5e5e5e" stroke-width="2" fill="none"/><path d="M931 852.77h-2v-1.02h2z" stroke="#5e5e5e" stroke-width=".05" fill="#5e5e5e"/><path d="M930 895.3l-4.64-14.27h9.28z" stroke="#5e5e5e" stroke-width="2" fill="#5e5e5e"/><path d="M680 1167.3a6 6 0 0 1 6-6h488a6 6 0 0 1 6 6v277.95a6 6 0 0 1-6 6H686a6 6 0 0 1-6-6z" stroke="#5e5e5e" stroke-width="3" fill="#fff"/><path d="M685.72 1159.5a.92.92 0 0 0 .28 1.8h488a.92.92 0 0 0 .28-1.8l-238.56-75.24a19.02 19.02 0 0 0-11.44 0z" stroke="#5e5e5e" stroke-width="3" fill="#fff"/><g><use xlink:href="#S" transform="matrix(1,0,0,1,685.0000000000164,1087.4523083571596) translate(245.005 16.37847222222222)"/><use xlink:href="#T" transform="matrix(1,0,0,1,685.0000000000164,1087.4523083571596) translate(178.65932098765433 37.71180555555556)"/><use xlink:href="#ab" transform="matrix(1,0,0,1,685.0000000000164,1087.4523083571596) translate(300.9803086419753 37.71180555555556)"/><use xlink:href="#ac" transform="matrix(1,0,0,1,685.0000000000164,1087.4523083571596) translate(199.84450617283954 59.045138888888886)"/></g><path d="M700 1208.45a6 6 0 0 1 6-6h448a6 6 0 0 1 6 6v67.08a6 6 0 0 1-6 6H706a6 6 0 0 1-6-6z" stroke="#5e5e5e" stroke-width="3" fill="#fff"/><g><use xlink:href="#ad" transform="matrix(1,0,0,1,712.0000000000331,1214.4523083571592) translate(93.2098765432099 31.72222222222222)"/><use xlink:href="#X" transform="matrix(1,0,0,1,712.0000000000331,1214.4523083571592) translate(193.4074074074074 31.72222222222222)"/><use xlink:href="#Y" transform="matrix(1,0,0,1,712.0000000000331,1214.4523083571592) translate(225.4074074074074 31.72222222222222)"/></g><path d="M930 1021V1063.37M930 1021.03V1020" stroke="#5e5e5e" stroke-width="2" fill="none"/><path d="M930 1078.64l-4.64-14.27h9.28z" stroke="#5e5e5e" stroke-width="2" fill="#5e5e5e"/><path d="M700 1337.25a6 6 0 0 1 6-6h448a6 6 0 0 1 6 6v67.08a6 6 0 0 1-6 6H706a6 6 0 0 1-6-6z" stroke="#5e5e5e" stroke-width="3" fill="#fff"/><g><use xlink:href="#ae" transform="matrix(1,0,0,1,712.0000000000331,1343.2510506088781) translate(137.4320987654321 31.72222222222222)"/><use xlink:href="#X" transform="matrix(1,0,0,1,712.0000000000331,1343.2510506088781) translate(262.66666666666663 31.72222222222222)"/><use xlink:href="#aa" transform="matrix(1,0,0,1,712.0000000000331,1343.2510506088781) translate(294.66666666666663 31.72222222222222)"/></g><path d="M930 1284v27.3" stroke="#5e5e5e" stroke-width="2" fill="none"/><path d="M931 1284.02h-2V1283h2z" stroke="#5e5e5e" stroke-width=".05" fill="#5e5e5e"/><path d="M930 1326.55l-4.64-14.26h9.28z" stroke="#5e5e5e" stroke-width="2" fill="#5e5e5e"/><path d="M974.58 2030.76c0 44.18-35.8 80-80 80-44.18 0-80-35.82-80-80s35.82-80 80-80c44.2 0 80 35.82 80 80z" stroke="#5e5e5e" stroke-width="3" fill="#fff"/><g><use xlink:href="#af" transform="matrix(1,0,0,1,819.5826771653706,1955.759688506792) translate(59.62962962962963 78.71527777777777)"/></g><path d="M893.73 1853.22v77.55M893.73 1853.25v-1.03" stroke="#5e5e5e" stroke-width="2" fill="none"/><path d="M893.73 1946.03l-4.63-14.26h9.27z" stroke="#5e5e5e" stroke-width="2" fill="#5e5e5e"/><path d="M894.58 1681v57.53M894.58 1681.03V1680" stroke="#5e5e5e" stroke-width="2" fill="none"/><path d="M894.58 1753.8l-4.63-14.27h9.27z" stroke="#5e5e5e" stroke-width="2" fill="#5e5e5e"/><g><path d="M1143.04 1854.2a4.6 4.6 0 0 1-4.46 5.8h-488a4.6 4.6 0 0 1-4.45-5.8l23.57-88.4a7.8 7.8 0 0 1 7.55-5.8h434.67a7.8 7.8 0 0 1 7.54 5.8z" stroke="#5e5e5e" stroke-width="3" fill="#fff"/></g><path d="M739.15 1771a6 6 0 0 1 6-6H1054a6 6 0 0 1 6 6v78a6 6 0 0 1-6 6H745.15a6 6 0 0 1-6-6z" stroke="#000" stroke-opacity="0" stroke-width="3" fill="#fff" fill-opacity="0"/><g><use xlink:href="#u" transform="matrix(1,0,0,1,744.1496062992123,1770) translate(2.814814814814838 17.77777777777778)"/><use xlink:href="#ag" transform="matrix(1,0,0,1,744.1496062992123,1770) translate(36.51851851851854 17.77777777777778)"/><use xlink:href="#w" transform="matrix(1,0,0,1,744.1496062992123,1770) translate(105.53086419753089 17.77777777777778)"/><use xlink:href="#x" transform="matrix(1,0,0,1,744.1496062992123,1770) translate(159.7283950617284 17.77777777777778)"/><use xlink:href="#y" transform="matrix(1,0,0,1,744.1496062992123,1770) translate(263.30864197530866 17.77777777777778)"/><use xlink:href="#z" transform="matrix(1,0,0,1,744.1496062992123,1770) translate(300.34567901234567 17.77777777777778)"/><use xlink:href="#ah" transform="matrix(1,0,0,1,744.1496062992123,1770) translate(11.055555555555543 44.44444444444444)"/><use xlink:href="#B" transform="matrix(1,0,0,1,744.1496062992123,1770) translate(130.12962962962962 44.44444444444444)"/><use xlink:href="#C" transform="matrix(1,0,0,1,744.1496062992123,1770) translate(150.3148148148148 44.44444444444444)"/><use xlink:href="#D" transform="matrix(1,0,0,1,744.1496062992123,1770) translate(181.179012345679 44.44444444444444)"/><use xlink:href="#E" transform="matrix(1,0,0,1,744.1496062992123,1770) translate(204.57407407407408 44.44444444444444)"/><use xlink:href="#z" transform="matrix(1,0,0,1,744.1496062992123,1770) translate(292.10493827160496 44.44444444444444)"/><use xlink:href="#ai" transform="matrix(1,0,0,1,744.1496062992123,1770) translate(83.40123456790123 71.11111111111111)"/></g><defs><path fill="#333" d="M33 0v-248h34V0H33" id="aj"/><path fill="#333" d="M117-194c89-4 53 116 60 194h-32v-121c0-31-8-49-39-48C34-167 62-67 57 0H25l-1-190h30c1 10-1 24 2 32 11-22 29-35 61-36" id="ak"/><path fill="#333" d="M24-231v-30h32v30H24zM24 0v-190h32V0H24" id="al"/><path fill="#333" d="M96-169c-40 0-48 33-48 73s9 75 48 75c24 0 41-14 43-38l32 2c-6 37-31 61-74 61-59 0-76-41-82-99-10-93 101-131 147-64 4 7 5 14 7 22l-32 3c-4-21-16-35-41-35" id="am"/><path fill="#333" d="M100-194c62-1 85 37 85 99 1 63-27 99-86 99S16-35 15-95c0-66 28-99 85-99zM99-20c44 1 53-31 53-75 0-43-8-75-51-75s-53 32-53 75 10 74 51 75" id="an"/><g id="a"><use transform="matrix(0.06172839506172839,0,0,0.06172839506172839,0,0)" xlink:href="#aj"/><use transform="matrix(0.06172839506172839,0,0,0.06172839506172839,6.172839506172839,0)" xlink:href="#ak"/><use transform="matrix(0.06172839506172839,0,0,0.06172839506172839,18.51851851851852,0)" xlink:href="#al"/><use transform="matrix(0.06172839506172839,0,0,0.06172839506172839,23.395061728395063,0)" xlink:href="#am"/><use transform="matrix(0.06172839506172839,0,0,0.06172839506172839,34.50617283950618,0)" xlink:href="#al"/><use transform="matrix(0.06172839506172839,0,0,0.06172839506172839,39.38271604938272,0)" xlink:href="#an"/></g><path fill="#333" d="M59-47c-2 24 18 29 38 22v24C64 9 27 4 27-40v-127H5v-23h24l9-43h21v43h35v23H59v120" id="ao"/><g id="b"><use transform="matrix(0.06172839506172839,0,0,0.06172839506172839,0,0)" xlink:href="#al"/><use transform="matrix(0.06172839506172839,0,0,0.06172839506172839,4.876543209876543,0)" xlink:href="#ak"/><use transform="matrix(0.06172839506172839,0,0,0.06172839506172839,17.22222222222222,0)" xlink:href="#ao"/></g><path fill="#333" d="M68-38c1 34 0 65-14 84H32c9-13 17-26 17-46H33v-38h35" id="ap"/><g id="c"><use transform="matrix(0.06172839506172839,0,0,0.06172839506172839,0,0)" xlink:href="#ak"/><use transform="matrix(0.06172839506172839,0,0,0.06172839506172839,12.345679012345679,0)" xlink:href="#ap"/></g><g id="d"><use transform="matrix(0.06172839506172839,0,0,0.06172839506172839,0,0)" xlink:href="#al"/><use transform="matrix(0.06172839506172839,0,0,0.06172839506172839,4.876543209876543,0)" xlink:href="#ak"/><use transform="matrix(0.06172839506172839,0,0,0.06172839506172839,17.22222222222222,0)" xlink:href="#ao"/></g><g id="e"><use transform="matrix(0.06172839506172839,0,0,0.06172839506172839,0,0)" xlink:href="#al"/><use transform="matrix(0.06172839506172839,0,0,0.06172839506172839,4.876543209876543,0)" xlink:href="#ap"/></g><path fill="#333" d="M101-234c-31-9-42 10-38 44h38v23H63V0H32v-167H5v-23h27c-7-52 17-82 69-68v24" id="aq"/><path fill="#333" d="M24 0v-261h32V0H24" id="ar"/><path fill="#333" d="M141-36C126-15 110 5 73 4 37 3 15-17 15-53c-1-64 63-63 125-63 3-35-9-54-41-54-24 1-41 7-42 31l-33-3c5-37 33-52 76-52 45 0 72 20 72 64v82c-1 20 7 32 28 27v20c-31 9-61-2-59-35zM48-53c0 20 12 33 32 33 41-3 63-29 60-74-43 2-92-5-92 41" id="as"/><g id="f"><use transform="matrix(0.06172839506172839,0,0,0.06172839506172839,0,0)" xlink:href="#aq"/><use transform="matrix(0.06172839506172839,0,0,0.06172839506172839,6.172839506172839,0)" xlink:href="#ar"/><use transform="matrix(0.06172839506172839,0,0,0.06172839506172839,11.049382716049383,0)" xlink:href="#an"/><use transform="matrix(0.06172839506172839,0,0,0.06172839506172839,23.395061728395063,0)" xlink:href="#as"/><use transform="matrix(0.06172839506172839,0,0,0.06172839506172839,35.74074074074074,0)" xlink:href="#ao"/></g><path fill="#333" d="M108 0H70L1-190h34L89-25l56-165h34" id="at"/><path fill="#333" d="M114-163C36-179 61-72 57 0H25l-1-190h30c1 12-1 29 2 39 6-27 23-49 58-41v29" id="au"/><path fill="#333" d="M177-190C167-65 218 103 67 71c-23-6-38-20-44-43l32-5c15 47 100 32 89-28v-30C133-14 115 1 83 1 29 1 15-40 15-95c0-56 16-97 71-98 29-1 48 16 59 35 1-10 0-23 2-32h30zM94-22c36 0 50-32 50-73 0-42-14-75-50-75-39 0-46 34-46 75s6 73 46 73" id="av"/><path fill="#333" d="M100-194c63 0 86 42 84 106H49c0 40 14 67 53 68 26 1 43-12 49-29l28 8c-11 28-37 45-77 45C44 4 14-33 15-96c1-61 26-98 85-98zm52 81c6-60-76-77-97-28-3 7-6 17-6 28h103" id="aw"/><path fill="#333" d="M135-143c-3-34-86-38-87 0 15 53 115 12 119 90S17 21 10-45l28-5c4 36 97 45 98 0-10-56-113-15-118-90-4-57 82-63 122-42 12 7 21 19 24 35" id="ax"/><path fill="#333" d="M85-194c31 0 48 13 60 33l-1-100h32l1 261h-30c-2-10 0-23-3-31C134-8 116 4 85 4 32 4 16-35 15-94c0-66 23-100 70-100zm9 24c-40 0-46 34-46 75 0 40 6 74 45 74 42 0 51-32 51-76 0-42-9-74-50-73" id="ay"/><g id="g"><use transform="matrix(0.06172839506172839,0,0,0.06172839506172839,0,0)" xlink:href="#at"/><use transform="matrix(0.06172839506172839,0,0,0.06172839506172839,11.11111111111111,0)" xlink:href="#as"/><use transform="matrix(0.06172839506172839,0,0,0.06172839506172839,23.45679012345679,0)" xlink:href="#ar"/><use transform="matrix(0.06172839506172839,0,0,0.06172839506172839,28.333333333333336,0)" xlink:href="#an"/><use transform="matrix(0.06172839506172839,0,0,0.06172839506172839,40.67901234567901,0)" xlink:href="#au"/><use transform="matrix(0.06172839506172839,0,0,0.06172839506172839,48.02469135802469,0)" xlink:href="#aj"/><use transform="matrix(0.06172839506172839,0,0,0.06172839506172839,54.19753086419753,0)" xlink:href="#ak"/><use transform="matrix(0.06172839506172839,0,0,0.06172839506172839,66.54320987654322,0)" xlink:href="#av"/><use transform="matrix(0.06172839506172839,0,0,0.06172839506172839,78.8888888888889,0)" xlink:href="#au"/><use transform="matrix(0.06172839506172839,0,0,0.06172839506172839,86.23456790123458,0)" xlink:href="#aw"/><use transform="matrix(0.06172839506172839,0,0,0.06172839506172839,98.58024691358027,0)" xlink:href="#ax"/><use transform="matrix(0.06172839506172839,0,0,0.06172839506172839,109.69135802469138,0)" xlink:href="#as"/><use transform="matrix(0.06172839506172839,0,0,0.06172839506172839,122.03703703703707,0)" xlink:href="#ay"/><use transform="matrix(0.06172839506172839,0,0,0.06172839506172839,134.38271604938274,0)" xlink:href="#an"/></g><g id="h"><use transform="matrix(0.06172839506172839,0,0,0.06172839506172839,0,0)" xlink:href="#aq"/><use transform="matrix(0.06172839506172839,0,0,0.06172839506172839,6.172839506172839,0)" xlink:href="#ar"/><use transform="matrix(0.06172839506172839,0,0,0.06172839506172839,11.049382716049383,0)" xlink:href="#an"/><use transform="matrix(0.06172839506172839,0,0,0.06172839506172839,23.395061728395063,0)" xlink:href="#as"/><use transform="matrix(0.06172839506172839,0,0,0.06172839506172839,35.74074074074074,0)" xlink:href="#ao"/></g><path fill="#333" d="M210-169c-67 3-38 105-44 169h-31v-121c0-29-5-50-35-48C34-165 62-65 56 0H25l-1-190h30c1 10-1 24 2 32 10-44 99-50 107 0 11-21 27-35 58-36 85-2 47 119 55 194h-31v-121c0-29-5-49-35-48" id="az"/><path fill="#333" d="M137 0h-34L2-248h35l83 218 83-218h36" id="aA"/><g id="i"><use transform="matrix(0.06172839506172839,0,0,0.06172839506172839,0,0)" xlink:href="#az"/><use transform="matrix(0.06172839506172839,0,0,0.06172839506172839,18.456790123456788,0)" xlink:href="#aw"/><use transform="matrix(0.06172839506172839,0,0,0.06172839506172839,30.80246913580247,0)" xlink:href="#ak"/><use transform="matrix(0.06172839506172839,0,0,0.06172839506172839,43.148148148148145,0)" xlink:href="#an"/><use transform="matrix(0.06172839506172839,0,0,0.06172839506172839,55.49382716049382,0)" xlink:href="#au"/><use transform="matrix(0.06172839506172839,0,0,0.06172839506172839,62.8395061728395,0)" xlink:href="#aA"/><use transform="matrix(0.06172839506172839,0,0,0.06172839506172839,75.98765432098764,0)" xlink:href="#as"/><use transform="matrix(0.06172839506172839,0,0,0.06172839506172839,88.33333333333333,0)" xlink:href="#ar"/><use transform="matrix(0.06172839506172839,0,0,0.06172839506172839,93.20987654320987,0)" xlink:href="#an"/><use transform="matrix(0.06172839506172839,0,0,0.06172839506172839,105.55555555555556,0)" xlink:href="#au"/></g><path fill="#333" d="M18-100v-36l175-74v27L42-118l151 64v27" id="aB"/><path fill="#333" d="M16-82v-28h88v28H16" id="aC"/><g id="j"><use transform="matrix(0.06172839506172839,0,0,0.06172839506172839,0,0)" xlink:href="#aB"/><use transform="matrix(0.06172839506172839,0,0,0.06172839506172839,12.962962962962962,0)" xlink:href="#aC"/><use transform="matrix(0.06172839506172839,0,0,0.06172839506172839,20.30864197530864,0)" xlink:href="#aC"/></g><path fill="#333" d="M63-220v92h138v28H63V0H30v-248h175v28H63" id="aD"/><path fill="#333" d="M30 0v-248h33v221h125V0H30" id="aE"/><path fill="#333" d="M127-220V0H93v-220H8v-28h204v28h-85" id="aF"/><path fill="#333" d="M-5 72V49h209v23H-5" id="aG"/><path fill="#333" d="M240 0l2-218c-23 76-54 145-80 218h-23L58-218 59 0H30v-248h44l77 211c21-75 51-140 76-211h43V0h-30" id="aH"/><path fill="#333" d="M205 0l-28-72H64L36 0H1l101-248h38L239 0h-34zm-38-99l-47-123c-12 45-31 82-46 123h93" id="aI"/><path fill="#333" d="M195 0l-74-108L45 0H8l94-129-87-119h37l69 98 67-98h37l-84 118L233 0h-38" id="aJ"/><g id="k"><use transform="matrix(0.06172839506172839,0,0,0.06172839506172839,0,0)" xlink:href="#aD"/><use transform="matrix(0.06172839506172839,0,0,0.06172839506172839,13.518518518518517,0)" xlink:href="#aE"/><use transform="matrix(0.06172839506172839,0,0,0.06172839506172839,24.19753086419753,0)" xlink:href="#aF"/><use transform="matrix(0.06172839506172839,0,0,0.06172839506172839,37.71604938271605,0)" xlink:href="#aG"/><use transform="matrix(0.06172839506172839,0,0,0.06172839506172839,50.06172839506173,0)" xlink:href="#aH"/><use transform="matrix(0.06172839506172839,0,0,0.06172839506172839,68.51851851851852,0)" xlink:href="#aI"/><use transform="matrix(0.06172839506172839,0,0,0.06172839506172839,83.33333333333333,0)" xlink:href="#aJ"/></g><path fill="#333" d="M179-190L93 31C79 59 56 82 12 73V49c39 6 53-20 64-50L1-190h34L92-34l54-156h33" id="aK"/><g id="l"><use transform="matrix(0.06172839506172839,0,0,0.06172839506172839,0,0)" xlink:href="#az"/><use transform="matrix(0.06172839506172839,0,0,0.06172839506172839,18.456790123456788,0)" xlink:href="#as"/><use transform="matrix(0.06172839506172839,0,0,0.06172839506172839,30.80246913580247,0)" xlink:href="#aK"/><use transform="matrix(0.06172839506172839,0,0,0.06172839506172839,41.91358024691358,0)" xlink:href="#an"/><use transform="matrix(0.06172839506172839,0,0,0.06172839506172839,54.25925925925926,0)" xlink:href="#au"/><use transform="matrix(0.06172839506172839,0,0,0.06172839506172839,61.60493827160494,0)" xlink:href="#aA"/><use transform="matrix(0.06172839506172839,0,0,0.06172839506172839,74.75308641975309,0)" xlink:href="#as"/><use transform="matrix(0.06172839506172839,0,0,0.06172839506172839,87.09876543209877,0)" xlink:href="#ar"/><use transform="matrix(0.06172839506172839,0,0,0.06172839506172839,91.97530864197532,0)" xlink:href="#an"/><use transform="matrix(0.06172839506172839,0,0,0.06172839506172839,104.320987654321,0)" xlink:href="#au"/></g><g id="m"><use transform="matrix(0.06172839506172839,0,0,0.06172839506172839,0,0)" xlink:href="#aC"/><use transform="matrix(0.06172839506172839,0,0,0.06172839506172839,7.345679012345679,0)" xlink:href="#aD"/><use transform="matrix(0.06172839506172839,0,0,0.06172839506172839,20.864197530864196,0)" xlink:href="#aE"/><use transform="matrix(0.06172839506172839,0,0,0.06172839506172839,31.54320987654321,0)" xlink:href="#aF"/><use transform="matrix(0.06172839506172839,0,0,0.06172839506172839,45.06172839506173,0)" xlink:href="#aG"/><use transform="matrix(0.06172839506172839,0,0,0.06172839506172839,57.407407407407405,0)" xlink:href="#aH"/><use transform="matrix(0.06172839506172839,0,0,0.06172839506172839,75.86419753086419,0)" xlink:href="#aI"/><use transform="matrix(0.06172839506172839,0,0,0.06172839506172839,90.679012345679,0)" xlink:href="#aJ"/></g><g id="n"><use transform="matrix(0.06172839506172839,0,0,0.06172839506172839,0,0)" xlink:href="#al"/><use transform="matrix(0.06172839506172839,0,0,0.06172839506172839,4.876543209876543,0)" xlink:href="#ak"/><use transform="matrix(0.06172839506172839,0,0,0.06172839506172839,17.22222222222222,0)" xlink:href="#ao"/></g><path fill="#333" d="M115-194c55 1 70 41 70 98S169 2 115 4C84 4 66-9 55-30l1 105H24l-1-265h31l2 30c10-21 28-34 59-34zm-8 174c40 0 45-34 45-75s-6-73-45-74c-42 0-51 32-51 76 0 43 10 73 51 73" id="aL"/><g id="o"><use transform="matrix(0.06172839506172839,0,0,0.06172839506172839,0,0)" xlink:href="#aL"/><use transform="matrix(0.06172839506172839,0,0,0.06172839506172839,12.345679012345679,0)" xlink:href="#an"/><use transform="matrix(0.06172839506172839,0,0,0.06172839506172839,24.691358024691358,0)" xlink:href="#ax"/><use transform="matrix(0.06172839506172839,0,0,0.06172839506172839,35.80246913580247,0)" xlink:href="#al"/><use transform="matrix(0.06172839506172839,0,0,0.06172839506172839,40.67901234567901,0)" xlink:href="#am"/><use transform="matrix(0.06172839506172839,0,0,0.06172839506172839,51.79012345679013,0)" xlink:href="#al"/><use transform="matrix(0.06172839506172839,0,0,0.06172839506172839,56.66666666666667,0)" xlink:href="#an"/><use transform="matrix(0.06172839506172839,0,0,0.06172839506172839,69.01234567901236,0)" xlink:href="#ak"/><use transform="matrix(0.06172839506172839,0,0,0.06172839506172839,81.35802469135804,0)" xlink:href="#aH"/><use transform="matrix(0.06172839506172839,0,0,0.06172839506172839,99.81481481481482,0)" xlink:href="#aw"/><use transform="matrix(0.06172839506172839,0,0,0.06172839506172839,112.16049382716051,0)" xlink:href="#ak"/><use transform="matrix(0.06172839506172839,0,0,0.06172839506172839,124.50617283950619,0)" xlink:href="#an"/><use transform="matrix(0.06172839506172839,0,0,0.06172839506172839,136.85185185185188,0)" xlink:href="#au"/></g><path fill="#333" d="M101-251c68 0 85 55 85 127S166 4 100 4C33 4 14-52 14-124c0-73 17-127 87-127zm-1 229c47 0 54-49 54-102s-4-102-53-102c-51 0-55 48-55 102 0 53 5 102 54 102" id="aM"/><use transform="matrix(0.06172839506172839,0,0,0.06172839506172839,0,0)" xlink:href="#aM" id="p"/><g id="q"><use transform="matrix(0.06172839506172839,0,0,0.06172839506172839,0,0)" xlink:href="#aL"/><use transform="matrix(0.06172839506172839,0,0,0.06172839506172839,12.345679012345679,0)" xlink:href="#an"/><use transform="matrix(0.06172839506172839,0,0,0.06172839506172839,24.691358024691358,0)" xlink:href="#ax"/><use transform="matrix(0.06172839506172839,0,0,0.06172839506172839,35.80246913580247,0)" xlink:href="#al"/><use transform="matrix(0.06172839506172839,0,0,0.06172839506172839,40.67901234567901,0)" xlink:href="#am"/><use transform="matrix(0.06172839506172839,0,0,0.06172839506172839,51.79012345679013,0)" xlink:href="#al"/><use transform="matrix(0.06172839506172839,0,0,0.06172839506172839,56.66666666666667,0)" xlink:href="#an"/><use transform="matrix(0.06172839506172839,0,0,0.06172839506172839,69.01234567901236,0)" xlink:href="#ak"/><use transform="matrix(0.06172839506172839,0,0,0.06172839506172839,81.35802469135804,0)" xlink:href="#aH"/><use transform="matrix(0.06172839506172839,0,0,0.06172839506172839,99.81481481481482,0)" xlink:href="#as"/><use transform="matrix(0.06172839506172839,0,0,0.06172839506172839,112.16049382716051,0)" xlink:href="#aK"/><use transform="matrix(0.06172839506172839,0,0,0.06172839506172839,123.27160493827162,0)" xlink:href="#an"/><use transform="matrix(0.06172839506172839,0,0,0.06172839506172839,135.6172839506173,0)" xlink:href="#au"/></g><path fill="#333" d="M27 0v-27h64v-190l-56 39v-29l58-41h29v221h61V0H27" id="aN"/><use transform="matrix(0.049382716049382706,0,0,0.049382716049382706,0,0)" xlink:href="#aN" id="r"/><use transform="matrix(0.049382716049382706,0,0,0.049382716049382706,0,0)" xlink:href="#ak" id="s"/><use transform="matrix(0.049382716049382706,0,0,0.049382716049382706,0,0)" xlink:href="#al" id="t"/><path fill="#333" d="M123-170H98l11-78h32zm-65 0H33l11-78h32" id="aO"/><path fill="#333" d="M11 0l48-248h184l-5 28H87l-15 79h140l-5 27H67L50-27h158l-5 27H11" id="aP"/><path fill="#333" d="M6 0l50-261h32L37 0H6" id="aQ"/><g id="u"><use transform="matrix(0.06172839506172839,0,0,0.06172839506172839,0,0)" xlink:href="#aO"/><use transform="matrix(0.06172839506172839,0,0,0.06172839506172839,7.8395061728395055,0)" xlink:href="#aP"/><use transform="matrix(0.06172839506172839,0,0,0.06172839506172839,22.65432098765432,0)" xlink:href="#aQ"/></g><path fill="#333" d="M248-111c6-24 9-61-24-58-72 9-57 108-77 169h-31l26-142c3-37-50-30-64-10C52-115 50-51 37 0H6l36-190h30c-1 10-6 24-4 32 13-43 101-52 105 5 13-22 29-41 61-41 90 0 28 129 23 194h-31" id="aR"/><path fill="#333" d="M165-48c-4 18 1 34 23 27l-3 20c-29 8-62 0-52-35h-2C116-14 99 4 63 4 30 4 8-16 8-49c0-68 71-67 138-67 10-26 0-56-31-54-26 1-42 9-47 31l-32-5c8-67 160-71 144 15-5 28-9 54-15 81zM42-50c3 52 80 24 89-6 7-12 7-24 11-38-47 1-103-4-100 44" id="aS"/><path fill="#333" d="M198-190L69 30C53 58 25 83-20 72c4-11-1-27 19-22 33-1 43-29 59-52L20-190h32L79-34l84-156h35" id="aT"/><path fill="#333" d="M30-147c31-64 166-65 159 27C183-49 158 1 86 4 9 8 1-88 30-147zM88-20c53 0 68-48 68-100 0-31-11-51-44-50-52 1-68 46-68 97 0 32 13 53 44 53" id="aU"/><path fill="#333" d="M66-151c12-25 30-51 66-40l-6 26C45-176 58-65 38 0H6l36-190h30" id="aV"/><g id="v"><use transform="matrix(0.06172839506172839,0,0,0.06172839506172839,0,0)" xlink:href="#aR"/><use transform="matrix(0.06172839506172839,0,0,0.06172839506172839,18.456790123456788,0)" xlink:href="#aS"/><use transform="matrix(0.06172839506172839,0,0,0.06172839506172839,30.80246913580247,0)" xlink:href="#aT"/><use transform="matrix(0.06172839506172839,0,0,0.06172839506172839,41.91358024691358,0)" xlink:href="#aU"/><use transform="matrix(0.06172839506172839,0,0,0.06172839506172839,54.25925925925926,0)" xlink:href="#aV"/></g><path fill="#333" d="M89 0H52L20-190h33L74-25l89-165h34" id="aW"/><g id="w"><use transform="matrix(0.06172839506172839,0,0,0.06172839506172839,0,0)" xlink:href="#aW"/><use transform="matrix(0.06172839506172839,0,0,0.06172839506172839,11.11111111111111,0)" xlink:href="#aS"/><use transform="matrix(0.06172839506172839,0,0,0.06172839506172839,23.45679012345679,0)" xlink:href="#aQ"/><use transform="matrix(0.06172839506172839,0,0,0.06172839506172839,28.333333333333336,0)" xlink:href="#aU"/><use transform="matrix(0.06172839506172839,0,0,0.06172839506172839,40.67901234567901,0)" xlink:href="#aV"/></g><path fill="#333" d="M50-231l6-30h32l-6 30H50zM6 0l37-190h31L37 0H6" id="aX"/><path fill="#333" d="M67-158c22-48 132-52 116 29L158 0h-32l25-140c3-38-53-32-70-12C52-117 51-52 38 0H6l36-190h30" id="aY"/><path fill="#333" d="M103-194c29 0 47 14 56 36 2-11 5-23 8-32h30L160-5C157 61 82 97 21 62 9 55 4 45 1 30l28-7c7 42 83 31 92-3 4-16 9-38 13-55-13 20-29 36-62 36-40 0-60-25-60-64 0-71 23-131 91-131zm4 24c-53 0-58 54-61 104-2 27 10 44 36 44 49 0 65-50 67-102 1-29-15-46-42-46" id="aZ"/><path fill="#333" d="M111-194c62-3 86 47 72 106H45c-7 38 6 69 45 68 27-1 43-14 53-32l24 11C152-15 129 4 87 4 38 3 12-23 12-71c0-70 32-119 99-123zm44 81c14-66-71-72-95-28-4 8-8 17-11 28h106" id="ba"/><path fill="#333" d="M55-144c13 50 104 24 104 88C159 21 15 23 1-39l26-10c6 40 102 42 102-4-13-50-104-23-104-87 0-71 143-71 148-8l-29 4c-5-35-85-37-89 0" id="bb"/><path fill="#333" d="M133-28C103 26-5 8 13-77c13-62 24-115 90-117 29-1 46 15 56 35l19-102h32L160 0h-30zM45-64c-2 27 10 43 35 43 54-1 69-50 69-103 0-29-15-46-42-46-53-1-58 58-62 106" id="bc"/><g id="x"><use transform="matrix(0.06172839506172839,0,0,0.06172839506172839,0,0)" xlink:href="#aX"/><use transform="matrix(0.06172839506172839,0,0,0.06172839506172839,4.876543209876543,0)" xlink:href="#aY"/><use transform="matrix(0.06172839506172839,0,0,0.06172839506172839,17.22222222222222,0)" xlink:href="#aZ"/><use transform="matrix(0.06172839506172839,0,0,0.06172839506172839,29.5679012345679,0)" xlink:href="#aV"/><use transform="matrix(0.06172839506172839,0,0,0.06172839506172839,36.913580246913575,0)" xlink:href="#ba"/><use transform="matrix(0.06172839506172839,0,0,0.06172839506172839,49.25925925925925,0)" xlink:href="#bb"/><use transform="matrix(0.06172839506172839,0,0,0.06172839506172839,60.37037037037037,0)" xlink:href="#aS"/><use transform="matrix(0.06172839506172839,0,0,0.06172839506172839,72.71604938271605,0)" xlink:href="#bc"/><use transform="matrix(0.06172839506172839,0,0,0.06172839506172839,85.06172839506173,0)" xlink:href="#aU"/></g><path fill="#333" d="M76-167L44 0H12l33-167H18l4-23h27c3-47 25-81 82-69l-4 24c-35-8-44 15-46 45h37l-5 23H76" id="bd"/><path fill="#333" d="M67 3c-93-2-31-127-26-193h32L48-50c-3 39 53 32 70 12 30-34 30-101 43-152h32L157 0h-30c1-10 6-24 4-33-14 20-29 37-64 36" id="be"/><g id="y"><use transform="matrix(0.06172839506172839,0,0,0.06172839506172839,0,0)" xlink:href="#bd"/><use transform="matrix(0.06172839506172839,0,0,0.06172839506172839,6.172839506172839,0)" xlink:href="#be"/><use transform="matrix(0.06172839506172839,0,0,0.06172839506172839,18.51851851851852,0)" xlink:href="#ba"/></g><use transform="matrix(0.06172839506172839,0,0,0.06172839506172839,0,0)" xlink:href="#aO" id="z"/><g id="A"><use transform="matrix(0.06172839506172839,0,0,0.06172839506172839,0,0)" xlink:href="#az"/><use transform="matrix(0.06172839506172839,0,0,0.06172839506172839,18.456790123456788,0)" xlink:href="#as"/><use transform="matrix(0.06172839506172839,0,0,0.06172839506172839,30.80246913580247,0)" xlink:href="#aK"/><use transform="matrix(0.06172839506172839,0,0,0.06172839506172839,41.91358024691358,0)" xlink:href="#an"/><use transform="matrix(0.06172839506172839,0,0,0.06172839506172839,54.25925925925926,0)" xlink:href="#au"/><use transform="matrix(0.06172839506172839,0,0,0.06172839506172839,61.60493827160494,0)" xlink:href="#aA"/><use transform="matrix(0.06172839506172839,0,0,0.06172839506172839,74.75308641975309,0)" xlink:href="#as"/><use transform="matrix(0.06172839506172839,0,0,0.06172839506172839,87.09876543209877,0)" xlink:href="#ar"/><use transform="matrix(0.06172839506172839,0,0,0.06172839506172839,91.97530864197532,0)" xlink:href="#an"/><use transform="matrix(0.06172839506172839,0,0,0.06172839506172839,104.320987654321,0)" xlink:href="#au"/></g><path fill="#333" d="M58-38C53-5 46 26 28 46H7C19 32 27 18 32 0H17l7-38h34" id="bf"/><g id="B"><use transform="matrix(0.06172839506172839,0,0,0.06172839506172839,0,0)" xlink:href="#aO"/><use transform="matrix(0.06172839506172839,0,0,0.06172839506172839,7.8395061728395055,0)" xlink:href="#bf"/></g><g id="C"><use transform="matrix(0.06172839506172839,0,0,0.06172839506172839,0,0)" xlink:href="#ba"/><use transform="matrix(0.06172839506172839,0,0,0.06172839506172839,12.345679012345679,0)" xlink:href="#aY"/></g><g id="D"><use transform="matrix(0.06172839506172839,0,0,0.06172839506172839,0,0)" xlink:href="#aQ"/><use transform="matrix(0.06172839506172839,0,0,0.06172839506172839,4.876543209876543,0)" xlink:href="#aS"/></g><path fill="#333" d="M67-162c32-53 139-36 121 50C175-51 163 2 97 4 68 4 52-11 42-31 38 6 28 39 22 75H-9l50-265h29c-1 10 0 20-3 28zm89 36c0-26-10-43-35-43-54 0-67 50-69 103-1 29 14 45 42 46 53 0 62-58 62-106" id="bg"/><path fill="#333" d="M44-68c0 29 11 47 38 47 30 0 42-19 51-41l28 9C148-21 126 4 82 4 31 4 10-29 12-85c3-77 74-140 146-93 12 8 15 23 18 40l-31 5c-1-22-13-36-36-36-52 0-65 49-65 101" id="bh"/><g id="E"><use transform="matrix(0.06172839506172839,0,0,0.06172839506172839,0,0)" xlink:href="#bg"/><use transform="matrix(0.06172839506172839,0,0,0.06172839506172839,12.345679012345679,0)" xlink:href="#aU"/><use transform="matrix(0.06172839506172839,0,0,0.06172839506172839,24.691358024691358,0)" xlink:href="#bb"/><use transform="matrix(0.06172839506172839,0,0,0.06172839506172839,35.80246913580247,0)" xlink:href="#aX"/><use transform="matrix(0.06172839506172839,0,0,0.06172839506172839,40.67901234567901,0)" xlink:href="#bh"/><use transform="matrix(0.06172839506172839,0,0,0.06172839506172839,51.79012345679013,0)" xlink:href="#aX"/><use transform="matrix(0.06172839506172839,0,0,0.06172839506172839,56.66666666666667,0)" xlink:href="#aU"/><use transform="matrix(0.06172839506172839,0,0,0.06172839506172839,69.01234567901236,0)" xlink:href="#aY"/></g><g id="F"><use transform="matrix(0.06172839506172839,0,0,0.06172839506172839,0,0)" xlink:href="#aL"/><use transform="matrix(0.06172839506172839,0,0,0.06172839506172839,12.345679012345679,0)" xlink:href="#an"/><use transform="matrix(0.06172839506172839,0,0,0.06172839506172839,24.691358024691358,0)" xlink:href="#ax"/><use transform="matrix(0.06172839506172839,0,0,0.06172839506172839,35.80246913580247,0)" xlink:href="#al"/><use transform="matrix(0.06172839506172839,0,0,0.06172839506172839,40.67901234567901,0)" xlink:href="#am"/><use transform="matrix(0.06172839506172839,0,0,0.06172839506172839,51.79012345679013,0)" xlink:href="#al"/><use transform="matrix(0.06172839506172839,0,0,0.06172839506172839,56.66666666666667,0)" xlink:href="#an"/><use transform="matrix(0.06172839506172839,0,0,0.06172839506172839,69.01234567901236,0)" xlink:href="#ak"/><use transform="matrix(0.06172839506172839,0,0,0.06172839506172839,81.35802469135804,0)" xlink:href="#aH"/><use transform="matrix(0.06172839506172839,0,0,0.06172839506172839,99.81481481481482,0)" xlink:href="#as"/><use transform="matrix(0.06172839506172839,0,0,0.06172839506172839,112.16049382716051,0)" xlink:href="#aK"/><use transform="matrix(0.06172839506172839,0,0,0.06172839506172839,123.27160493827162,0)" xlink:href="#an"/><use transform="matrix(0.06172839506172839,0,0,0.06172839506172839,135.6172839506173,0)" xlink:href="#au"/></g><path fill="#333" d="M109-170H84l-4-78h32zm-65 0H19l-4-78h33" id="bi"/><path fill="#333" d="M14 0l48-248h34L48 0H14" id="bj"/><g id="G"><use transform="matrix(0.06172839506172839,0,0,0.06172839506172839,0,0)" xlink:href="#bi"/><use transform="matrix(0.06172839506172839,0,0,0.06172839506172839,7.8395061728395055,0)" xlink:href="#bj"/><use transform="matrix(0.06172839506172839,0,0,0.06172839506172839,14.012345679012345,0)" xlink:href="#aY"/><use transform="matrix(0.06172839506172839,0,0,0.06172839506172839,26.358024691358025,0)" xlink:href="#aZ"/><use transform="matrix(0.06172839506172839,0,0,0.06172839506172839,38.7037037037037,0)" xlink:href="#aV"/><use transform="matrix(0.06172839506172839,0,0,0.06172839506172839,46.04938271604938,0)" xlink:href="#ba"/><use transform="matrix(0.06172839506172839,0,0,0.06172839506172839,58.395061728395056,0)" xlink:href="#bb"/><use transform="matrix(0.06172839506172839,0,0,0.06172839506172839,69.50617283950616,0)" xlink:href="#ba"/></g><g id="H"><use transform="matrix(0.06172839506172839,0,0,0.06172839506172839,0,0)" xlink:href="#aQ"/><use transform="matrix(0.06172839506172839,0,0,0.06172839506172839,4.876543209876543,0)" xlink:href="#aS"/></g><path fill="#333" d="M51-54c-9 22 5 41 31 30L79-1C43 14 10-4 19-52l22-115H19l5-23h22l19-43h21l-9 43h35l-4 23H73" id="bk"/><g id="I"><use transform="matrix(0.06172839506172839,0,0,0.06172839506172839,0,0)" xlink:href="#bh"/><use transform="matrix(0.06172839506172839,0,0,0.06172839506172839,11.11111111111111,0)" xlink:href="#aS"/><use transform="matrix(0.06172839506172839,0,0,0.06172839506172839,23.45679012345679,0)" xlink:href="#aY"/><use transform="matrix(0.06172839506172839,0,0,0.06172839506172839,35.80246913580247,0)" xlink:href="#bk"/><use transform="matrix(0.06172839506172839,0,0,0.06172839506172839,41.97530864197531,0)" xlink:href="#aX"/><use transform="matrix(0.06172839506172839,0,0,0.06172839506172839,46.851851851851855,0)" xlink:href="#bc"/><use transform="matrix(0.06172839506172839,0,0,0.06172839506172839,59.19753086419753,0)" xlink:href="#aS"/><use transform="matrix(0.06172839506172839,0,0,0.06172839506172839,71.54320987654322,0)" xlink:href="#bc"/></g><g id="J"><use transform="matrix(0.06172839506172839,0,0,0.06172839506172839,0,0)" xlink:href="#bc"/><use transform="matrix(0.06172839506172839,0,0,0.06172839506172839,12.345679012345679,0)" xlink:href="#ba"/></g><g id="K"><use transform="matrix(0.06172839506172839,0,0,0.06172839506172839,0,0)" xlink:href="#aW"/><use transform="matrix(0.06172839506172839,0,0,0.06172839506172839,11.11111111111111,0)" xlink:href="#aS"/><use transform="matrix(0.06172839506172839,0,0,0.06172839506172839,23.45679012345679,0)" xlink:href="#aQ"/><use transform="matrix(0.06172839506172839,0,0,0.06172839506172839,28.333333333333336,0)" xlink:href="#aU"/><use transform="matrix(0.06172839506172839,0,0,0.06172839506172839,40.67901234567901,0)" xlink:href="#aV"/><use transform="matrix(0.06172839506172839,0,0,0.06172839506172839,48.02469135802469,0)" xlink:href="#ba"/><use transform="matrix(0.06172839506172839,0,0,0.06172839506172839,60.37037037037037,0)" xlink:href="#bb"/></g><use transform="matrix(0.06172839506172839,0,0,0.06172839506172839,0,0)" xlink:href="#aS" id="L"/><path fill="#333" d="M44-154l7-36h35l-8 36H44zM14 0l7-36h35L49 0H14" id="bl"/><g id="M"><use transform="matrix(0.06172839506172839,0,0,0.06172839506172839,0,0)" xlink:href="#aX"/><use transform="matrix(0.06172839506172839,0,0,0.06172839506172839,4.876543209876543,0)" xlink:href="#aY"/><use transform="matrix(0.06172839506172839,0,0,0.06172839506172839,17.22222222222222,0)" xlink:href="#aZ"/><use transform="matrix(0.06172839506172839,0,0,0.06172839506172839,29.5679012345679,0)" xlink:href="#aV"/><use transform="matrix(0.06172839506172839,0,0,0.06172839506172839,36.913580246913575,0)" xlink:href="#ba"/><use transform="matrix(0.06172839506172839,0,0,0.06172839506172839,49.25925925925925,0)" xlink:href="#bb"/><use transform="matrix(0.06172839506172839,0,0,0.06172839506172839,60.37037037037037,0)" xlink:href="#aS"/><use transform="matrix(0.06172839506172839,0,0,0.06172839506172839,72.71604938271605,0)" xlink:href="#aV"/><use transform="matrix(0.06172839506172839,0,0,0.06172839506172839,80.06172839506173,0)" xlink:href="#bl"/></g><use transform="matrix(0.06172839506172839,0,0,0.06172839506172839,0,0)" xlink:href="#bi" id="N"/><use transform="matrix(0.06172839506172839,0,0,0.06172839506172839,0,0)" xlink:href="#ak" id="O"/><g id="P"><use transform="matrix(0.06172839506172839,0,0,0.06172839506172839,0,0)" xlink:href="#be"/><use transform="matrix(0.06172839506172839,0,0,0.06172839506172839,12.345679012345679,0)" xlink:href="#aY"/></g><g id="Q"><use transform="matrix(0.06172839506172839,0,0,0.06172839506172839,0,0)" xlink:href="#aW"/><use transform="matrix(0.06172839506172839,0,0,0.06172839506172839,11.11111111111111,0)" xlink:href="#aS"/><use transform="matrix(0.06172839506172839,0,0,0.06172839506172839,23.45679012345679,0)" xlink:href="#aQ"/><use transform="matrix(0.06172839506172839,0,0,0.06172839506172839,28.333333333333336,0)" xlink:href="#aU"/><use transform="matrix(0.06172839506172839,0,0,0.06172839506172839,40.67901234567901,0)" xlink:href="#aV"/><use transform="matrix(0.06172839506172839,0,0,0.06172839506172839,48.02469135802469,0)" xlink:href="#bl"/></g><g id="R"><use transform="matrix(0.06172839506172839,0,0,0.06172839506172839,0,0)" xlink:href="#at"/><use transform="matrix(0.06172839506172839,0,0,0.06172839506172839,11.11111111111111,0)" xlink:href="#as"/><use transform="matrix(0.06172839506172839,0,0,0.06172839506172839,23.45679012345679,0)" xlink:href="#ar"/><use transform="matrix(0.06172839506172839,0,0,0.06172839506172839,28.333333333333336,0)" xlink:href="#an"/><use transform="matrix(0.06172839506172839,0,0,0.06172839506172839,40.67901234567901,0)" xlink:href="#au"/><use transform="matrix(0.06172839506172839,0,0,0.06172839506172839,48.02469135802469,0)" xlink:href="#aj"/><use transform="matrix(0.06172839506172839,0,0,0.06172839506172839,54.19753086419753,0)" xlink:href="#ak"/><use transform="matrix(0.06172839506172839,0,0,0.06172839506172839,66.54320987654322,0)" xlink:href="#av"/><use transform="matrix(0.06172839506172839,0,0,0.06172839506172839,78.8888888888889,0)" xlink:href="#au"/><use transform="matrix(0.06172839506172839,0,0,0.06172839506172839,86.23456790123458,0)" xlink:href="#aw"/><use transform="matrix(0.06172839506172839,0,0,0.06172839506172839,98.58024691358027,0)" xlink:href="#ax"/><use transform="matrix(0.06172839506172839,0,0,0.06172839506172839,109.69135802469138,0)" xlink:href="#as"/><use transform="matrix(0.06172839506172839,0,0,0.06172839506172839,122.03703703703707,0)" xlink:href="#ay"/><use transform="matrix(0.06172839506172839,0,0,0.06172839506172839,134.38271604938274,0)" xlink:href="#an"/></g><g id="T"><use transform="matrix(0.049382716049382706,0,0,0.049382716049382706,0,0)" xlink:href="#at"/><use transform="matrix(0.049382716049382706,0,0,0.049382716049382706,8.888888888888888,0)" xlink:href="#as"/><use transform="matrix(0.049382716049382706,0,0,0.049382716049382706,18.76543209876543,0)" xlink:href="#ar"/><use transform="matrix(0.049382716049382706,0,0,0.049382716049382706,22.666666666666664,0)" xlink:href="#an"/><use transform="matrix(0.049382716049382706,0,0,0.049382716049382706,32.5432098765432,0)" xlink:href="#au"/><use transform="matrix(0.049382716049382706,0,0,0.049382716049382706,38.419753086419746,0)" xlink:href="#aj"/><use transform="matrix(0.049382716049382706,0,0,0.049382716049382706,43.35802469135802,0)" xlink:href="#ak"/><use transform="matrix(0.049382716049382706,0,0,0.049382716049382706,53.234567901234556,0)" xlink:href="#av"/><use transform="matrix(0.049382716049382706,0,0,0.049382716049382706,63.1111111111111,0)" xlink:href="#au"/><use transform="matrix(0.049382716049382706,0,0,0.049382716049382706,68.98765432098764,0)" xlink:href="#aw"/><use transform="matrix(0.049382716049382706,0,0,0.049382716049382706,78.86419753086419,0)" xlink:href="#ax"/><use transform="matrix(0.049382716049382706,0,0,0.049382716049382706,87.75308641975307,0)" xlink:href="#as"/><use transform="matrix(0.049382716049382706,0,0,0.049382716049382706,97.62962962962962,0)" xlink:href="#ay"/><use transform="matrix(0.049382716049382706,0,0,0.049382716049382706,107.50617283950618,0)" xlink:href="#an"/></g><path fill="#333" d="M18-27v-27l151-64-151-65v-27l175 74v36" id="bm"/><use transform="matrix(0.049382716049382706,0,0,0.049382716049382706,0,0)" xlink:href="#bm" id="U"/><g id="V"><use transform="matrix(0.049382716049382706,0,0,0.049382716049382706,0,0)" xlink:href="#az"/><use transform="matrix(0.049382716049382706,0,0,0.049382716049382706,14.765432098765428,0)" xlink:href="#as"/><use transform="matrix(0.049382716049382706,0,0,0.049382716049382706,24.641975308641968,0)" xlink:href="#aK"/><use transform="matrix(0.049382716049382706,0,0,0.049382716049382706,33.53086419753085,0)" xlink:href="#an"/><use transform="matrix(0.049382716049382706,0,0,0.049382716049382706,43.40740740740739,0)" xlink:href="#au"/><use transform="matrix(0.049382716049382706,0,0,0.049382716049382706,49.283950617283935,0)" xlink:href="#aA"/><use transform="matrix(0.049382716049382706,0,0,0.049382716049382706,59.80246913580245,0)" xlink:href="#as"/><use transform="matrix(0.049382716049382706,0,0,0.049382716049382706,69.67901234567898,0)" xlink:href="#ar"/><use transform="matrix(0.049382716049382706,0,0,0.049382716049382706,73.58024691358021,0)" xlink:href="#an"/><use transform="matrix(0.049382716049382706,0,0,0.049382716049382706,83.45679012345676,0)" xlink:href="#au"/></g><g id="W"><use transform="matrix(0.049382716049382706,0,0,0.049382716049382706,0,0)" xlink:href="#az"/><use transform="matrix(0.049382716049382706,0,0,0.049382716049382706,14.765432098765428,0)" xlink:href="#as"/><use transform="matrix(0.049382716049382706,0,0,0.049382716049382706,24.641975308641968,0)" xlink:href="#aK"/><use transform="matrix(0.049382716049382706,0,0,0.049382716049382706,33.53086419753085,0)" xlink:href="#an"/><use transform="matrix(0.049382716049382706,0,0,0.049382716049382706,43.40740740740739,0)" xlink:href="#au"/><use transform="matrix(0.049382716049382706,0,0,0.049382716049382706,49.283950617283935,0)" xlink:href="#aA"/><use transform="matrix(0.049382716049382706,0,0,0.049382716049382706,59.80246913580245,0)" xlink:href="#as"/><use transform="matrix(0.049382716049382706,0,0,0.049382716049382706,69.67901234567898,0)" xlink:href="#ar"/><use transform="matrix(0.049382716049382706,0,0,0.049382716049382706,73.58024691358021,0)" xlink:href="#an"/><use transform="matrix(0.049382716049382706,0,0,0.049382716049382706,83.45679012345676,0)" xlink:href="#au"/></g><g id="X"><use transform="matrix(0.049382716049382706,0,0,0.049382716049382706,0,0)" xlink:href="#aB"/><use transform="matrix(0.049382716049382706,0,0,0.049382716049382706,10.370370370370368,0)" xlink:href="#aC"/><use transform="matrix(0.049382716049382706,0,0,0.049382716049382706,16.24691358024691,0)" xlink:href="#aC"/></g><g id="Y"><use transform="matrix(0.049382716049382706,0,0,0.049382716049382706,0,0)" xlink:href="#at"/><use transform="matrix(0.049382716049382706,0,0,0.049382716049382706,8.888888888888888,0)" xlink:href="#as"/><use transform="matrix(0.049382716049382706,0,0,0.049382716049382706,18.76543209876543,0)" xlink:href="#ar"/><use transform="matrix(0.049382716049382706,0,0,0.049382716049382706,22.666666666666664,0)" xlink:href="#an"/><use transform="matrix(0.049382716049382706,0,0,0.049382716049382706,32.5432098765432,0)" xlink:href="#au"/><use transform="matrix(0.049382716049382706,0,0,0.049382716049382706,38.419753086419746,0)" xlink:href="#aj"/><use transform="matrix(0.049382716049382706,0,0,0.049382716049382706,43.35802469135802,0)" xlink:href="#ak"/><use transform="matrix(0.049382716049382706,0,0,0.049382716049382706,53.234567901234556,0)" xlink:href="#av"/><use transform="matrix(0.049382716049382706,0,0,0.049382716049382706,63.1111111111111,0)" xlink:href="#au"/><use transform="matrix(0.049382716049382706,0,0,0.049382716049382706,68.98765432098764,0)" xlink:href="#aw"/><use transform="matrix(0.049382716049382706,0,0,0.049382716049382706,78.86419753086419,0)" xlink:href="#ax"/><use transform="matrix(0.049382716049382706,0,0,0.049382716049382706,87.75308641975307,0)" xlink:href="#as"/><use transform="matrix(0.049382716049382706,0,0,0.049382716049382706,97.62962962962962,0)" xlink:href="#ay"/><use transform="matrix(0.049382716049382706,0,0,0.049382716049382706,107.50617283950618,0)" xlink:href="#an"/></g><g id="Z"><use transform="matrix(0.049382716049382706,0,0,0.049382716049382706,0,0)" xlink:href="#aL"/><use transform="matrix(0.049382716049382706,0,0,0.049382716049382706,9.87654320987654,0)" xlink:href="#an"/><use transform="matrix(0.049382716049382706,0,0,0.049382716049382706,19.75308641975308,0)" xlink:href="#ax"/><use transform="matrix(0.049382716049382706,0,0,0.049382716049382706,28.64197530864197,0)" xlink:href="#al"/><use transform="matrix(0.049382716049382706,0,0,0.049382716049382706,32.5432098765432,0)" xlink:href="#am"/><use transform="matrix(0.049382716049382706,0,0,0.049382716049382706,41.43209876543209,0)" xlink:href="#al"/><use transform="matrix(0.049382716049382706,0,0,0.049382716049382706,45.33333333333332,0)" xlink:href="#an"/><use transform="matrix(0.049382716049382706,0,0,0.049382716049382706,55.20987654320985,0)" xlink:href="#ak"/><use transform="matrix(0.049382716049382706,0,0,0.049382716049382706,65.0864197530864,0)" xlink:href="#aH"/><use transform="matrix(0.049382716049382706,0,0,0.049382716049382706,79.85185185185183,0)" xlink:href="#as"/><use transform="matrix(0.049382716049382706,0,0,0.049382716049382706,89.72839506172838,0)" xlink:href="#aK"/><use transform="matrix(0.049382716049382706,0,0,0.049382716049382706,98.61728395061726,0)" xlink:href="#an"/><use transform="matrix(0.049382716049382706,0,0,0.049382716049382706,108.49382716049381,0)" xlink:href="#au"/></g><use transform="matrix(0.049382716049382706,0,0,0.049382716049382706,0,0)" xlink:href="#al" id="aa"/><use transform="matrix(0.049382716049382706,0,0,0.049382716049382706,0,0)" xlink:href="#aB" id="ab"/><g id="ac"><use transform="matrix(0.049382716049382706,0,0,0.049382716049382706,0,0)" xlink:href="#az"/><use transform="matrix(0.049382716049382706,0,0,0.049382716049382706,14.765432098765428,0)" xlink:href="#aw"/><use transform="matrix(0.049382716049382706,0,0,0.049382716049382706,24.641975308641968,0)" xlink:href="#ak"/><use transform="matrix(0.049382716049382706,0,0,0.049382716049382706,34.518518518518505,0)" xlink:href="#an"/><use transform="matrix(0.049382716049382706,0,0,0.049382716049382706,44.39506172839505,0)" xlink:href="#au"/><use transform="matrix(0.049382716049382706,0,0,0.049382716049382706,50.271604938271594,0)" xlink:href="#aA"/><use transform="matrix(0.049382716049382706,0,0,0.049382716049382706,60.7901234567901,0)" xlink:href="#as"/><use transform="matrix(0.049382716049382706,0,0,0.049382716049382706,70.66666666666664,0)" xlink:href="#ar"/><use transform="matrix(0.049382716049382706,0,0,0.049382716049382706,74.56790123456787,0)" xlink:href="#an"/><use transform="matrix(0.049382716049382706,0,0,0.049382716049382706,84.44444444444441,0)" xlink:href="#au"/></g><g id="ad"><use transform="matrix(0.049382716049382706,0,0,0.049382716049382706,0,0)" xlink:href="#az"/><use transform="matrix(0.049382716049382706,0,0,0.049382716049382706,14.765432098765428,0)" xlink:href="#aw"/><use transform="matrix(0.049382716049382706,0,0,0.049382716049382706,24.641975308641968,0)" xlink:href="#ak"/><use transform="matrix(0.049382716049382706,0,0,0.049382716049382706,34.518518518518505,0)" xlink:href="#an"/><use transform="matrix(0.049382716049382706,0,0,0.049382716049382706,44.39506172839505,0)" xlink:href="#au"/><use transform="matrix(0.049382716049382706,0,0,0.049382716049382706,50.271604938271594,0)" xlink:href="#aA"/><use transform="matrix(0.049382716049382706,0,0,0.049382716049382706,60.7901234567901,0)" xlink:href="#as"/><use transform="matrix(0.049382716049382706,0,0,0.049382716049382706,70.66666666666664,0)" xlink:href="#ar"/><use transform="matrix(0.049382716049382706,0,0,0.049382716049382706,74.56790123456787,0)" xlink:href="#an"/><use transform="matrix(0.049382716049382706,0,0,0.049382716049382706,84.44444444444441,0)" xlink:href="#au"/></g><g id="ae"><use transform="matrix(0.049382716049382706,0,0,0.049382716049382706,0,0)" xlink:href="#aL"/><use transform="matrix(0.049382716049382706,0,0,0.049382716049382706,9.87654320987654,0)" xlink:href="#an"/><use transform="matrix(0.049382716049382706,0,0,0.049382716049382706,19.75308641975308,0)" xlink:href="#ax"/><use transform="matrix(0.049382716049382706,0,0,0.049382716049382706,28.64197530864197,0)" xlink:href="#al"/><use transform="matrix(0.049382716049382706,0,0,0.049382716049382706,32.5432098765432,0)" xlink:href="#am"/><use transform="matrix(0.049382716049382706,0,0,0.049382716049382706,41.43209876543209,0)" xlink:href="#al"/><use transform="matrix(0.049382716049382706,0,0,0.049382716049382706,45.33333333333332,0)" xlink:href="#an"/><use transform="matrix(0.049382716049382706,0,0,0.049382716049382706,55.20987654320985,0)" xlink:href="#ak"/><use transform="matrix(0.049382716049382706,0,0,0.049382716049382706,65.0864197530864,0)" xlink:href="#aH"/><use transform="matrix(0.049382716049382706,0,0,0.049382716049382706,79.85185185185183,0)" xlink:href="#aw"/><use transform="matrix(0.049382716049382706,0,0,0.049382716049382706,89.72839506172838,0)" xlink:href="#ak"/><use transform="matrix(0.049382716049382706,0,0,0.049382716049382706,99.60493827160492,0)" xlink:href="#an"/><use transform="matrix(0.049382716049382706,0,0,0.049382716049382706,109.48148148148147,0)" xlink:href="#au"/></g><g id="af"><use transform="matrix(0.06172839506172839,0,0,0.06172839506172839,0,0)" xlink:href="#aD"/><use transform="matrix(0.06172839506172839,0,0,0.06172839506172839,13.518518518518517,0)" xlink:href="#al"/><use transform="matrix(0.06172839506172839,0,0,0.06172839506172839,18.39506172839506,0)" xlink:href="#ak"/></g><g id="ag"><use transform="matrix(0.06172839506172839,0,0,0.06172839506172839,0,0)" xlink:href="#aR"/><use transform="matrix(0.06172839506172839,0,0,0.06172839506172839,18.456790123456788,0)" xlink:href="#ba"/><use transform="matrix(0.06172839506172839,0,0,0.06172839506172839,30.80246913580247,0)" xlink:href="#aY"/><use transform="matrix(0.06172839506172839,0,0,0.06172839506172839,43.148148148148145,0)" xlink:href="#aU"/><use transform="matrix(0.06172839506172839,0,0,0.06172839506172839,55.49382716049382,0)" xlink:href="#aV"/></g><g id="ah"><use transform="matrix(0.06172839506172839,0,0,0.06172839506172839,0,0)" xlink:href="#az"/><use transform="matrix(0.06172839506172839,0,0,0.06172839506172839,18.456790123456788,0)" xlink:href="#aw"/><use transform="matrix(0.06172839506172839,0,0,0.06172839506172839,30.80246913580247,0)" xlink:href="#ak"/><use transform="matrix(0.06172839506172839,0,0,0.06172839506172839,43.148148148148145,0)" xlink:href="#an"/><use transform="matrix(0.06172839506172839,0,0,0.06172839506172839,55.49382716049382,0)" xlink:href="#au"/><use transform="matrix(0.06172839506172839,0,0,0.06172839506172839,62.8395061728395,0)" xlink:href="#aA"/><use transform="matrix(0.06172839506172839,0,0,0.06172839506172839,75.98765432098764,0)" xlink:href="#as"/><use transform="matrix(0.06172839506172839,0,0,0.06172839506172839,88.33333333333333,0)" xlink:href="#ar"/><use transform="matrix(0.06172839506172839,0,0,0.06172839506172839,93.20987654320987,0)" xlink:href="#an"/><use transform="matrix(0.06172839506172839,0,0,0.06172839506172839,105.55555555555556,0)" xlink:href="#au"/></g><g id="ai"><use transform="matrix(0.06172839506172839,0,0,0.06172839506172839,0,0)" xlink:href="#aL"/><use transform="matrix(0.06172839506172839,0,0,0.06172839506172839,12.345679012345679,0)" xlink:href="#an"/><use transform="matrix(0.06172839506172839,0,0,0.06172839506172839,24.691358024691358,0)" xlink:href="#ax"/><use transform="matrix(0.06172839506172839,0,0,0.06172839506172839,35.80246913580247,0)" xlink:href="#al"/><use transform="matrix(0.06172839506172839,0,0,0.06172839506172839,40.67901234567901,0)" xlink:href="#am"/><use transform="matrix(0.06172839506172839,0,0,0.06172839506172839,51.79012345679013,0)" xlink:href="#al"/><use transform="matrix(0.06172839506172839,0,0,0.06172839506172839,56.66666666666667,0)" xlink:href="#an"/><use transform="matrix(0.06172839506172839,0,0,0.06172839506172839,69.01234567901236,0)" xlink:href="#ak"/><use transform="matrix(0.06172839506172839,0,0,0.06172839506172839,81.35802469135804,0)" xlink:href="#aH"/><use transform="matrix(0.06172839506172839,0,0,0.06172839506172839,99.81481481481482,0)" xlink:href="#aw"/><use transform="matrix(0.06172839506172839,0,0,0.06172839506172839,112.16049382716051,0)" xlink:href="#ak"/><use transform="matrix(0.06172839506172839,0,0,0.06172839506172839,124.50617283950619,0)" xlink:href="#an"/><use transform="matrix(0.06172839506172839,0,0,0.06172839506172839,136.85185185185188,0)" xlink:href="#au"/></g></defs></g></svg>