<svg xmlns="http://www.w3.org/2000/svg" xmlns:xlink="http://www.w3.org/1999/xlink" xmlns:lucid="lucid" width="770" height="2049.39"><g transform="translate(-520 1201.5000968400907)" lucid:page-tab-id="2xrhp1BvFpiL"><path d="M0-1258.83h1870.87v2581.66H0z" fill="#fff"/><path d="M1014.58-1100c0 44.18-35.8 80-80 80-44.18 0-80-35.82-80-80s35.82-80 80-80c44.2 0 80 35.82 80 80z" stroke="#5e5e5e" stroke-width="3" fill="#fff"/><use xlink:href="#a" transform="matrix(1,0,0,1,859.5826771653706,-1175) translate(49.1358024691358 78.71527777777777)"/><path d="M711.4-934.2a7.8 7.8 0 0 1 7.55-5.8h461.33a4.6 4.6 0 0 1 4.46 5.8l-23.58 88.4a7.8 7.8 0 0 1-7.54 5.8H692.28a4.6 4.6 0 0 1-4.45-5.8z" stroke="#5e5e5e" stroke-width="3" fill="#fff"/><use xlink:href="#b" transform="matrix(1,0,0,1,691.2834645669125,-935) translate(227.78277777777777 48.71527777777778)"/><use xlink:href="#c" transform="matrix(1,0,0,1,691.2834645669125,-935) translate(257.35067901234567 48.71527777777778)"/><path d="M934.58-1017.5v57.52" stroke="#5e5e5e" stroke-width="2" fill="none"/><path d="M934.56-1018.5h1.01v1.03h-2v-1.06z" stroke="#5e5e5e" stroke-width=".05" fill="#5e5e5e"/><path d="M934.58-944.7l-4.63-14.27h9.27z" stroke="#5e5e5e" stroke-width="2" fill="#5e5e5e"/><path d="M1016.28 746.4c0 44.17-35.8 80-80 80-44.18 0-80-35.83-80-80 0-44.2 35.82-80 80-80 44.2 0 80 35.8 80 80z" stroke="#5e5e5e" stroke-width="3" fill="#fff"/><use xlink:href="#d" transform="matrix(1,0,0,1,861.2834645669126,671.3862628423744) translate(59.62962962962963 78.71527777777777)"/><path d="M935.43 568.85v77.54M935.43 568.87v-1.02" stroke="#5e5e5e" stroke-width="2" fill="none"/><path d="M935.43 661.66l-4.63-14.27h9.27z" stroke="#5e5e5e" stroke-width="2" fill="#5e5e5e"/><path d="M934.58-299v57.58M934.58-298.97V-300" stroke="#5e5e5e" stroke-width="2" fill="none"/><path d="M934.58-226.16l-4.63-14.26h9.27z" stroke="#5e5e5e" stroke-width="2" fill="#5e5e5e"/><path d="M610-215.46a6 6 0 0 1 6-6h648a6 6 0 0 1 6 6v597.3a6 6 0 0 1-6 6H616a6 6 0 0 1-6-6z" stroke="#5e5e5e" stroke-width="3" fill="#fff"/><path d="M680 67.1c0 34.73-31.34 62.87-70 62.87s-70-28.14-70-62.86c0-34.7 31.34-62.85 70-62.85s70 28.14 70 62.86z" stroke="#5e5e5e" stroke-width="3" fill="#fff"/><path d="M540.75 68.6a.75.75 0 0 1 .75-.74h137a.75.75 0 0 1 .75.75.75.75 0 0 1-.75.76h-137a.75.75 0 0 1-.75-.75zM610-101.4a.75.75 0 0 1 .75.75v67a.75.75 0 0 1-.75.75.75.75 0 0 1-.75-.75v-67a.75.75 0 0 1 .75-.75z" stroke="#5e5e5e" stroke-width="1.5" fill="none"/><path d="M540 31.2a6 6 0 0 1 6-6h68a6 6 0 0 1 6 6v29.9a6 6 0 0 1-6 6h-68a6 6 0 0 1-6-6z" stroke="#000" stroke-opacity="0" stroke-width="3" fill="#fff" fill-opacity="0"/><use xlink:href="#e" transform="matrix(1,0,0,1,545,30.205198861816612) translate(30.061728395061728 20.22222222222222)"/><path d="M608.5 31.2a6 6 0 0 1 6-6h58a6 6 0 0 1 6 6v29.9a6 6 0 0 1-6 6h-58a6 6 0 0 1-6-6z" stroke="#000" stroke-opacity="0" stroke-width="3" fill="#fff" fill-opacity="0"/><use xlink:href="#f" transform="matrix(1,0,0,1,613.5,30.205198861816612) translate(25.061728395061728 20.22222222222222)"/><path d="M570 76.25a6 6 0 0 1 6-6h68a6 6 0 0 1 6 6v29.9a6 6 0 0 1-6 6h-68a6 6 0 0 1-6-6z" stroke="#000" stroke-opacity="0" stroke-width="3" fill="#fff" fill-opacity="0"/><use xlink:href="#g" transform="matrix(1,0,0,1,575,75.25281790943554) translate(33.04938271604939 20.22222222222222)"/><path d="M610 69.3V-37.26v39" stroke="#5e5e5e" stroke-width="2" fill="none"/><path d="M611 70.3h-2v-1.04h2zM611 2.8l-1-.05-1 .04V1.72h2z" stroke="#5e5e5e" stroke-width=".05" fill="#5e5e5e"/><path d="M934.58 388.85v57.53M934.58 388.87v-1.02" stroke="#5e5e5e" stroke-width="2" fill="none"/><path d="M934.58 461.65l-4.63-14.27h9.27z" stroke="#5e5e5e" stroke-width="2" fill="#5e5e5e"/><path d="M1183.04 562.05a4.6 4.6 0 0 1-4.46 5.8h-488a4.6 4.6 0 0 1-4.45-5.8l23.57-88.4a7.8 7.8 0 0 1 7.55-5.8h434.67a7.8 7.8 0 0 1 7.54 5.8z" stroke="#5e5e5e" stroke-width="3" fill="#fff"/><path d="M779.15 492.18a6 6 0 0 1 6-6H1094a6 6 0 0 1 6 6v51.34a6 6 0 0 1-6 6H785.15a6 6 0 0 1-6-6z" stroke="#000" stroke-opacity="0" stroke-width="3" fill="#fff" fill-opacity="0"/><use xlink:href="#h" transform="matrix(1,0,0,1,784.1496062992123,491.1825975749446) translate(3.4320987654321016 17.77777777777778)"/><use xlink:href="#i" transform="matrix(1,0,0,1,784.1496062992123,491.1825975749446) translate(37.135802469135804 17.77777777777778)"/><use xlink:href="#j" transform="matrix(1,0,0,1,784.1496062992123,491.1825975749446) translate(104.91358024691357 17.77777777777778)"/><use xlink:href="#k" transform="matrix(1,0,0,1,784.1496062992123,491.1825975749446) translate(159.1111111111111 17.77777777777778)"/><use xlink:href="#l" transform="matrix(1,0,0,1,784.1496062992123,491.1825975749446) translate(262.69135802469134 17.77777777777778)"/><use xlink:href="#m" transform="matrix(1,0,0,1,784.1496062992123,491.1825975749446) translate(299.7283950617284 17.77777777777778)"/><use xlink:href="#n" transform="matrix(1,0,0,1,784.1496062992123,491.1825975749446) translate(99.66666666666666 44.44444444444444)"/><path d="M711.4-755.7a7.8 7.8 0 0 1 7.55-5.8h461.33a4.6 4.6 0 0 1 4.46 5.8l-23.58 88.4a7.8 7.8 0 0 1-7.54 5.8H692.28a4.6 4.6 0 0 1-4.45-5.8z" stroke="#5e5e5e" stroke-width="3" fill="#fff"/><use xlink:href="#o" transform="matrix(1,0,0,1,691.2834645669126,-756.5000128469654) translate(61.54820987654319 48.71527777777778)"/><use xlink:href="#p" transform="matrix(1,0,0,1,691.2834645669126,-756.5000128469654) translate(109.63462962962961 48.71527777777778)"/><use xlink:href="#q" transform="matrix(1,0,0,1,691.2834645669126,-756.5000128469654) translate(268.7087037037037 48.71527777777778)"/><use xlink:href="#n" transform="matrix(1,0,0,1,691.2834645669126,-756.5000128469654) translate(316.7951234567901 48.71527777777778)"/><path d="M934.58-839v57.52M934.58-838.97V-840" stroke="#5e5e5e" stroke-width="2" fill="none"/><path d="M934.58-766.2l-4.63-14.27h9.27z" stroke="#5e5e5e" stroke-width="2" fill="#5e5e5e"/><path d="M934.58-660.5v60.3M934.58-660.47v-1.03" stroke="#5e5e5e" stroke-width="2" fill="none"/><path d="M934.58-584.94l-4.63-14.27h9.27z" stroke="#5e5e5e" stroke-width="2" fill="#5e5e5e"/><path d="M1182.2-486.04a4.6 4.6 0 0 1-4.47 5.8h-488a4.6 4.6 0 0 1-4.45-5.8l23.57-88.4a7.8 7.8 0 0 1 7.55-5.8h434.67a7.8 7.8 0 0 1 7.54 5.8z" stroke="#5e5e5e" stroke-width="3" fill="#fff"/><path d="M778.3-582.57a6 6 0 0 1 6-6h292.57a6 6 0 0 1 6 6v104.67a6 6 0 0 1-6 6H784.3a6 6 0 0 1-6-6z" stroke="#000" stroke-opacity="0" stroke-width="3" fill="#fff" fill-opacity="0"/><use xlink:href="#r" transform="matrix(1,0,0,1,783.2992125984414,-583.5711313469093) translate(53.95061728395062 57.90277777777778)"/><use xlink:href="#s" transform="matrix(1,0,0,1,783.2992125984414,-583.5711313469093) translate(141.9753086419753 57.90277777777778)"/><use xlink:href="#t" transform="matrix(1,0,0,1,783.2992125984414,-583.5711313469093) translate(172.8395061728395 57.90277777777778)"/><use xlink:href="#u" transform="matrix(1,0,0,1,783.2992125984414,-583.5711313469093) translate(233.20987654320987 57.90277777777778)"/><path d="M935.43-479.24V-420.2M935.43-479.2v-1.04" stroke="#5e5e5e" stroke-width="2" fill="none"/><path d="M935.43-404.94l-4.63-14.26h9.27z" stroke="#5e5e5e" stroke-width="2" fill="#5e5e5e"/><path d="M686.98-394.44a4.6 4.6 0 0 1 4.45-5.8h488a4.6 4.6 0 0 1 4.46 5.8l-23.6 88.4a7.8 7.8 0 0 1-7.53 5.8H718.1a7.8 7.8 0 0 1-7.55-5.8z" stroke="#5e5e5e" stroke-width="3" fill="#fff"/><use xlink:href="#v" transform="matrix(1,0,0,1,690.4330708661417,-395.23779801357597) translate(189.17166666666665 48.71527777777778)"/><path d="M1218.45-103.83a4.6 4.6 0 0 1-4.45 5.8H726a4.6 4.6 0 0 1-4.45-5.8l17.9-67.16a7.8 7.8 0 0 1 7.55-5.8h446a7.8 7.8 0 0 1 7.54 5.8z" stroke="#5e5e5e" stroke-width="3" fill="#fff"/><path d="M814.57-177.35a6 6 0 0 1 6-6h292.56a6 6 0 0 1 6 6v79.9a6 6 0 0 1-6 6H820.57a6 6 0 0 1-6-6z" stroke="#000" stroke-opacity="0" stroke-width="3" fill="#fff" fill-opacity="0"/><use xlink:href="#r" transform="matrix(1,0,0,1,819.5669291338418,-178.35199350666971) translate(53.95061728395062 45.96527777777778)"/><use xlink:href="#s" transform="matrix(1,0,0,1,819.5669291338418,-178.35199350666971) translate(141.9753086419753 45.96527777777778)"/><use xlink:href="#t" transform="matrix(1,0,0,1,819.5669291338418,-178.35199350666971) translate(172.8395061728395 45.96527777777778)"/><use xlink:href="#u" transform="matrix(1,0,0,1,819.5669291338418,-178.35199350666971) translate(233.20987654320987 45.96527777777778)"/><path d="M970-96.7v42.56M970-96.67v-1.02" stroke="#5e5e5e" stroke-width="2" fill="none"/><path d="M970-38.88l-4.64-14.26h9.28z" stroke="#5e5e5e" stroke-width="2" fill="#5e5e5e"/><path d="M721.55-28.38a4.6 4.6 0 0 1 4.45-5.8h488a4.6 4.6 0 0 1 4.45 5.8l-18.24 68.4a7.8 7.8 0 0 1-7.53 5.8H747.33a7.8 7.8 0 0 1-7.54-5.8z" stroke="#5e5e5e" stroke-width="3" fill="#fff"/><g><use xlink:href="#w" transform="matrix(1,0,0,1,725,-29.179096461237442) translate(171.6408024691358 39.65277777777778)"/></g><path d="M720 194.6a6 6 0 0 1 6-6h488a6 6 0 0 1 6 6v149.14a6 6 0 0 1-6 6H726a6 6 0 0 1-6-6z" stroke="#5e5e5e" stroke-width="3" fill="#fff"/><path d="M725.72 186.8a.92.92 0 0 0 .28 1.8h488a.92.92 0 0 0 .28-1.8l-238.56-75.26a19.02 19.02 0 0 0-11.44 0z" stroke="#5e5e5e" stroke-width="3" fill="#fff"/><g><use xlink:href="#x" transform="matrix(1,0,0,1,724.9999999999999,114.73978994343088) translate(245.005 16.37847222222222)"/><use xlink:href="#y" transform="matrix(1,0,0,1,724.9999999999999,114.73978994343088) translate(178.65932098765433 37.71180555555556)"/><use xlink:href="#z" transform="matrix(1,0,0,1,724.9999999999999,114.73978994343088) translate(300.9803086419753 37.71180555555556)"/><use xlink:href="#A" transform="matrix(1,0,0,1,724.9999999999999,114.73978994343088) translate(200.33833333333337 59.045138888888886)"/></g><path d="M740 235.74a6 6 0 0 1 6-6h448a6 6 0 0 1 6 6v67.08a6 6 0 0 1-6 6H746a6 6 0 0 1-6-6z" stroke="#5e5e5e" stroke-width="3" fill="#fff"/><g><use xlink:href="#B" transform="matrix(1,0,0,1,752.0000000000164,241.73978994343085) translate(93.70370370370374 31.72222222222222)"/><use xlink:href="#C" transform="matrix(1,0,0,1,752.0000000000164,241.73978994343085) translate(192.91358024691357 31.72222222222222)"/><use xlink:href="#D" transform="matrix(1,0,0,1,752.0000000000164,241.73978994343085) translate(224.91358024691357 31.72222222222222)"/></g><path d="M970 48.3v42.36" stroke="#5e5e5e" stroke-width="2" fill="none"/><path d="M971 48.3h-2v-1h2z" stroke="#5e5e5e" stroke-width=".05" fill="#5e5e5e"/><path d="M970 105.93l-4.64-14.27h9.28z" stroke="#5e5e5e" stroke-width="2" fill="#5e5e5e"/><defs><path fill="#333" d="M33 0v-248h34V0H33" id="E"/><path fill="#333" d="M117-194c89-4 53 116 60 194h-32v-121c0-31-8-49-39-48C34-167 62-67 57 0H25l-1-190h30c1 10-1 24 2 32 11-22 29-35 61-36" id="F"/><path fill="#333" d="M24-231v-30h32v30H24zM24 0v-190h32V0H24" id="G"/><path fill="#333" d="M96-169c-40 0-48 33-48 73s9 75 48 75c24 0 41-14 43-38l32 2c-6 37-31 61-74 61-59 0-76-41-82-99-10-93 101-131 147-64 4 7 5 14 7 22l-32 3c-4-21-16-35-41-35" id="H"/><path fill="#333" d="M100-194c62-1 85 37 85 99 1 63-27 99-86 99S16-35 15-95c0-66 28-99 85-99zM99-20c44 1 53-31 53-75 0-43-8-75-51-75s-53 32-53 75 10 74 51 75" id="I"/><g id="a"><use transform="matrix(0.06172839506172839,0,0,0.06172839506172839,0,0)" xlink:href="#E"/><use transform="matrix(0.06172839506172839,0,0,0.06172839506172839,6.172839506172839,0)" xlink:href="#F"/><use transform="matrix(0.06172839506172839,0,0,0.06172839506172839,18.51851851851852,0)" xlink:href="#G"/><use transform="matrix(0.06172839506172839,0,0,0.06172839506172839,23.395061728395063,0)" xlink:href="#H"/><use transform="matrix(0.06172839506172839,0,0,0.06172839506172839,34.50617283950618,0)" xlink:href="#G"/><use transform="matrix(0.06172839506172839,0,0,0.06172839506172839,39.38271604938272,0)" xlink:href="#I"/></g><path fill="#333" d="M59-47c-2 24 18 29 38 22v24C64 9 27 4 27-40v-127H5v-23h24l9-43h21v43h35v23H59v120" id="J"/><g id="b"><use transform="matrix(0.06172839506172839,0,0,0.06172839506172839,0,0)" xlink:href="#G"/><use transform="matrix(0.06172839506172839,0,0,0.06172839506172839,4.876543209876543,0)" xlink:href="#F"/><use transform="matrix(0.06172839506172839,0,0,0.06172839506172839,17.22222222222222,0)" xlink:href="#J"/></g><use transform="matrix(0.06172839506172839,0,0,0.06172839506172839,0,0)" xlink:href="#G" id="c"/><path fill="#333" d="M63-220v92h138v28H63V0H30v-248h175v28H63" id="K"/><g id="d"><use transform="matrix(0.06172839506172839,0,0,0.06172839506172839,0,0)" xlink:href="#K"/><use transform="matrix(0.06172839506172839,0,0,0.06172839506172839,13.518518518518517,0)" xlink:href="#G"/><use transform="matrix(0.06172839506172839,0,0,0.06172839506172839,18.39506172839506,0)" xlink:href="#F"/></g><path fill="#333" d="M27 0v-27h64v-190l-56 39v-29l58-41h29v221h61V0H27" id="L"/><use transform="matrix(0.049382716049382706,0,0,0.049382716049382706,0,0)" xlink:href="#L" id="e"/><path fill="#333" d="M99-251c64 0 84 50 84 122C183-37 130 33 47-8c-14-7-20-23-25-40l30-5c6 39 69 39 84 7 9-19 16-44 16-74-10 22-31 35-62 35-49 0-73-33-73-83 0-54 28-83 82-83zm-1 141c31-1 51-18 51-49 0-36-14-67-51-67-34 0-49 23-49 58 0 34 15 58 49 58" id="M"/><use transform="matrix(0.049382716049382706,0,0,0.049382716049382706,0,0)" xlink:href="#M" id="f"/><use transform="matrix(0.049382716049382706,0,0,0.049382716049382706,0,0)" xlink:href="#G" id="g"/><path fill="#333" d="M123-170H98l11-78h32zm-65 0H33l11-78h32" id="N"/><path fill="#333" d="M11 0l48-248h184l-5 28H87l-15 79h140l-5 27H67L50-27h158l-5 27H11" id="O"/><path fill="#333" d="M6 0l50-261h32L37 0H6" id="P"/><g id="h"><use transform="matrix(0.06172839506172839,0,0,0.06172839506172839,0,0)" xlink:href="#N"/><use transform="matrix(0.06172839506172839,0,0,0.06172839506172839,7.8395061728395055,0)" xlink:href="#O"/><use transform="matrix(0.06172839506172839,0,0,0.06172839506172839,22.65432098765432,0)" xlink:href="#P"/></g><path fill="#333" d="M248-111c6-24 9-61-24-58-72 9-57 108-77 169h-31l26-142c3-37-50-30-64-10C52-115 50-51 37 0H6l36-190h30c-1 10-6 24-4 32 13-43 101-52 105 5 13-22 29-41 61-41 90 0 28 129 23 194h-31" id="Q"/><path fill="#333" d="M165-48c-4 18 1 34 23 27l-3 20c-29 8-62 0-52-35h-2C116-14 99 4 63 4 30 4 8-16 8-49c0-68 71-67 138-67 10-26 0-56-31-54-26 1-42 9-47 31l-32-5c8-67 160-71 144 15-5 28-9 54-15 81zM42-50c3 52 80 24 89-6 7-12 7-24 11-38-47 1-103-4-100 44" id="R"/><path fill="#333" d="M198-190L69 30C53 58 25 83-20 72c4-11-1-27 19-22 33-1 43-29 59-52L20-190h32L79-34l84-156h35" id="S"/><path fill="#333" d="M30-147c31-64 166-65 159 27C183-49 158 1 86 4 9 8 1-88 30-147zM88-20c53 0 68-48 68-100 0-31-11-51-44-50-52 1-68 46-68 97 0 32 13 53 44 53" id="T"/><path fill="#333" d="M66-151c12-25 30-51 66-40l-6 26C45-176 58-65 38 0H6l36-190h30" id="U"/><g id="i"><use transform="matrix(0.06172839506172839,0,0,0.06172839506172839,0,0)" xlink:href="#Q"/><use transform="matrix(0.06172839506172839,0,0,0.06172839506172839,18.456790123456788,0)" xlink:href="#R"/><use transform="matrix(0.06172839506172839,0,0,0.06172839506172839,30.80246913580247,0)" xlink:href="#S"/><use transform="matrix(0.06172839506172839,0,0,0.06172839506172839,41.91358024691358,0)" xlink:href="#T"/><use transform="matrix(0.06172839506172839,0,0,0.06172839506172839,54.25925925925926,0)" xlink:href="#U"/></g><path fill="#333" d="M89 0H52L20-190h33L74-25l89-165h34" id="V"/><g id="j"><use transform="matrix(0.06172839506172839,0,0,0.06172839506172839,0,0)" xlink:href="#V"/><use transform="matrix(0.06172839506172839,0,0,0.06172839506172839,11.11111111111111,0)" xlink:href="#R"/><use transform="matrix(0.06172839506172839,0,0,0.06172839506172839,23.45679012345679,0)" xlink:href="#P"/><use transform="matrix(0.06172839506172839,0,0,0.06172839506172839,28.333333333333336,0)" xlink:href="#T"/><use transform="matrix(0.06172839506172839,0,0,0.06172839506172839,40.67901234567901,0)" xlink:href="#U"/></g><path fill="#333" d="M50-231l6-30h32l-6 30H50zM6 0l37-190h31L37 0H6" id="W"/><path fill="#333" d="M67-158c22-48 132-52 116 29L158 0h-32l25-140c3-38-53-32-70-12C52-117 51-52 38 0H6l36-190h30" id="X"/><path fill="#333" d="M103-194c29 0 47 14 56 36 2-11 5-23 8-32h30L160-5C157 61 82 97 21 62 9 55 4 45 1 30l28-7c7 42 83 31 92-3 4-16 9-38 13-55-13 20-29 36-62 36-40 0-60-25-60-64 0-71 23-131 91-131zm4 24c-53 0-58 54-61 104-2 27 10 44 36 44 49 0 65-50 67-102 1-29-15-46-42-46" id="Y"/><path fill="#333" d="M111-194c62-3 86 47 72 106H45c-7 38 6 69 45 68 27-1 43-14 53-32l24 11C152-15 129 4 87 4 38 3 12-23 12-71c0-70 32-119 99-123zm44 81c14-66-71-72-95-28-4 8-8 17-11 28h106" id="Z"/><path fill="#333" d="M55-144c13 50 104 24 104 88C159 21 15 23 1-39l26-10c6 40 102 42 102-4-13-50-104-23-104-87 0-71 143-71 148-8l-29 4c-5-35-85-37-89 0" id="aa"/><path fill="#333" d="M133-28C103 26-5 8 13-77c13-62 24-115 90-117 29-1 46 15 56 35l19-102h32L160 0h-30zM45-64c-2 27 10 43 35 43 54-1 69-50 69-103 0-29-15-46-42-46-53-1-58 58-62 106" id="ab"/><g id="k"><use transform="matrix(0.06172839506172839,0,0,0.06172839506172839,0,0)" xlink:href="#W"/><use transform="matrix(0.06172839506172839,0,0,0.06172839506172839,4.876543209876543,0)" xlink:href="#X"/><use transform="matrix(0.06172839506172839,0,0,0.06172839506172839,17.22222222222222,0)" xlink:href="#Y"/><use transform="matrix(0.06172839506172839,0,0,0.06172839506172839,29.5679012345679,0)" xlink:href="#U"/><use transform="matrix(0.06172839506172839,0,0,0.06172839506172839,36.913580246913575,0)" xlink:href="#Z"/><use transform="matrix(0.06172839506172839,0,0,0.06172839506172839,49.25925925925925,0)" xlink:href="#aa"/><use transform="matrix(0.06172839506172839,0,0,0.06172839506172839,60.37037037037037,0)" xlink:href="#R"/><use transform="matrix(0.06172839506172839,0,0,0.06172839506172839,72.71604938271605,0)" xlink:href="#ab"/><use transform="matrix(0.06172839506172839,0,0,0.06172839506172839,85.06172839506173,0)" xlink:href="#T"/></g><path fill="#333" d="M76-167L44 0H12l33-167H18l4-23h27c3-47 25-81 82-69l-4 24c-35-8-44 15-46 45h37l-5 23H76" id="ac"/><path fill="#333" d="M67 3c-93-2-31-127-26-193h32L48-50c-3 39 53 32 70 12 30-34 30-101 43-152h32L157 0h-30c1-10 6-24 4-33-14 20-29 37-64 36" id="ad"/><g id="l"><use transform="matrix(0.06172839506172839,0,0,0.06172839506172839,0,0)" xlink:href="#ac"/><use transform="matrix(0.06172839506172839,0,0,0.06172839506172839,6.172839506172839,0)" xlink:href="#ad"/><use transform="matrix(0.06172839506172839,0,0,0.06172839506172839,18.51851851851852,0)" xlink:href="#Z"/></g><use transform="matrix(0.06172839506172839,0,0,0.06172839506172839,0,0)" xlink:href="#N" id="m"/><path fill="#333" d="M210-169c-67 3-38 105-44 169h-31v-121c0-29-5-50-35-48C34-165 62-65 56 0H25l-1-190h30c1 10-1 24 2 32 10-44 99-50 107 0 11-21 27-35 58-36 85-2 47 119 55 194h-31v-121c0-29-5-49-35-48" id="ae"/><path fill="#333" d="M141-36C126-15 110 5 73 4 37 3 15-17 15-53c-1-64 63-63 125-63 3-35-9-54-41-54-24 1-41 7-42 31l-33-3c5-37 33-52 76-52 45 0 72 20 72 64v82c-1 20 7 32 28 27v20c-31 9-61-2-59-35zM48-53c0 20 12 33 32 33 41-3 63-29 60-74-43 2-92-5-92 41" id="af"/><path fill="#333" d="M179-190L93 31C79 59 56 82 12 73V49c39 6 53-20 64-50L1-190h34L92-34l54-156h33" id="ag"/><path fill="#333" d="M114-163C36-179 61-72 57 0H25l-1-190h30c1 12-1 29 2 39 6-27 23-49 58-41v29" id="ah"/><path fill="#333" d="M137 0h-34L2-248h35l83 218 83-218h36" id="ai"/><path fill="#333" d="M24 0v-261h32V0H24" id="aj"/><g id="n"><use transform="matrix(0.06172839506172839,0,0,0.06172839506172839,0,0)" xlink:href="#ae"/><use transform="matrix(0.06172839506172839,0,0,0.06172839506172839,18.456790123456788,0)" xlink:href="#af"/><use transform="matrix(0.06172839506172839,0,0,0.06172839506172839,30.80246913580247,0)" xlink:href="#ag"/><use transform="matrix(0.06172839506172839,0,0,0.06172839506172839,41.91358024691358,0)" xlink:href="#I"/><use transform="matrix(0.06172839506172839,0,0,0.06172839506172839,54.25925925925926,0)" xlink:href="#ah"/><use transform="matrix(0.06172839506172839,0,0,0.06172839506172839,61.60493827160494,0)" xlink:href="#ai"/><use transform="matrix(0.06172839506172839,0,0,0.06172839506172839,74.75308641975309,0)" xlink:href="#af"/><use transform="matrix(0.06172839506172839,0,0,0.06172839506172839,87.09876543209877,0)" xlink:href="#aj"/><use transform="matrix(0.06172839506172839,0,0,0.06172839506172839,91.97530864197532,0)" xlink:href="#I"/><use transform="matrix(0.06172839506172839,0,0,0.06172839506172839,104.320987654321,0)" xlink:href="#ah"/></g><path fill="#333" d="M101-234c-31-9-42 10-38 44h38v23H63V0H32v-167H5v-23h27c-7-52 17-82 69-68v24" id="ak"/><g id="o"><use transform="matrix(0.06172839506172839,0,0,0.06172839506172839,0,0)" xlink:href="#ak"/><use transform="matrix(0.06172839506172839,0,0,0.06172839506172839,6.172839506172839,0)" xlink:href="#aj"/><use transform="matrix(0.06172839506172839,0,0,0.06172839506172839,11.049382716049383,0)" xlink:href="#I"/><use transform="matrix(0.06172839506172839,0,0,0.06172839506172839,23.395061728395063,0)" xlink:href="#af"/><use transform="matrix(0.06172839506172839,0,0,0.06172839506172839,35.74074074074074,0)" xlink:href="#J"/></g><path fill="#333" d="M108 0H70L1-190h34L89-25l56-165h34" id="al"/><path fill="#333" d="M177-190C167-65 218 103 67 71c-23-6-38-20-44-43l32-5c15 47 100 32 89-28v-30C133-14 115 1 83 1 29 1 15-40 15-95c0-56 16-97 71-98 29-1 48 16 59 35 1-10 0-23 2-32h30zM94-22c36 0 50-32 50-73 0-42-14-75-50-75-39 0-46 34-46 75s6 73 46 73" id="am"/><path fill="#333" d="M100-194c63 0 86 42 84 106H49c0 40 14 67 53 68 26 1 43-12 49-29l28 8c-11 28-37 45-77 45C44 4 14-33 15-96c1-61 26-98 85-98zm52 81c6-60-76-77-97-28-3 7-6 17-6 28h103" id="an"/><path fill="#333" d="M135-143c-3-34-86-38-87 0 15 53 115 12 119 90S17 21 10-45l28-5c4 36 97 45 98 0-10-56-113-15-118-90-4-57 82-63 122-42 12 7 21 19 24 35" id="ao"/><path fill="#333" d="M85-194c31 0 48 13 60 33l-1-100h32l1 261h-30c-2-10 0-23-3-31C134-8 116 4 85 4 32 4 16-35 15-94c0-66 23-100 70-100zm9 24c-40 0-46 34-46 75 0 40 6 74 45 74 42 0 51-32 51-76 0-42-9-74-50-73" id="ap"/><path fill="#333" d="M68-38c1 34 0 65-14 84H32c9-13 17-26 17-46H33v-38h35" id="aq"/><g id="p"><use transform="matrix(0.06172839506172839,0,0,0.06172839506172839,0,0)" xlink:href="#al"/><use transform="matrix(0.06172839506172839,0,0,0.06172839506172839,11.11111111111111,0)" xlink:href="#af"/><use transform="matrix(0.06172839506172839,0,0,0.06172839506172839,23.45679012345679,0)" xlink:href="#aj"/><use transform="matrix(0.06172839506172839,0,0,0.06172839506172839,28.333333333333336,0)" xlink:href="#I"/><use transform="matrix(0.06172839506172839,0,0,0.06172839506172839,40.67901234567901,0)" xlink:href="#ah"/><use transform="matrix(0.06172839506172839,0,0,0.06172839506172839,48.02469135802469,0)" xlink:href="#E"/><use transform="matrix(0.06172839506172839,0,0,0.06172839506172839,54.19753086419753,0)" xlink:href="#F"/><use transform="matrix(0.06172839506172839,0,0,0.06172839506172839,66.54320987654322,0)" xlink:href="#am"/><use transform="matrix(0.06172839506172839,0,0,0.06172839506172839,78.8888888888889,0)" xlink:href="#ah"/><use transform="matrix(0.06172839506172839,0,0,0.06172839506172839,86.23456790123458,0)" xlink:href="#an"/><use transform="matrix(0.06172839506172839,0,0,0.06172839506172839,98.58024691358027,0)" xlink:href="#ao"/><use transform="matrix(0.06172839506172839,0,0,0.06172839506172839,109.69135802469138,0)" xlink:href="#af"/><use transform="matrix(0.06172839506172839,0,0,0.06172839506172839,122.03703703703707,0)" xlink:href="#ap"/><use transform="matrix(0.06172839506172839,0,0,0.06172839506172839,134.38271604938274,0)" xlink:href="#I"/><use transform="matrix(0.06172839506172839,0,0,0.06172839506172839,146.7283950617284,0)" xlink:href="#aq"/></g><g id="q"><use transform="matrix(0.06172839506172839,0,0,0.06172839506172839,0,0)" xlink:href="#ak"/><use transform="matrix(0.06172839506172839,0,0,0.06172839506172839,6.172839506172839,0)" xlink:href="#aj"/><use transform="matrix(0.06172839506172839,0,0,0.06172839506172839,11.049382716049383,0)" xlink:href="#I"/><use transform="matrix(0.06172839506172839,0,0,0.06172839506172839,23.395061728395063,0)" xlink:href="#af"/><use transform="matrix(0.06172839506172839,0,0,0.06172839506172839,35.74074074074074,0)" xlink:href="#J"/></g><path fill="#333" d="M109-170H84l-4-78h32zm-65 0H19l-4-78h33" id="ar"/><path fill="#333" d="M14 0l48-248h34L48 0H14" id="as"/><g id="r"><use transform="matrix(0.06172839506172839,0,0,0.06172839506172839,0,0)" xlink:href="#ar"/><use transform="matrix(0.06172839506172839,0,0,0.06172839506172839,7.8395061728395055,0)" xlink:href="#as"/><use transform="matrix(0.06172839506172839,0,0,0.06172839506172839,14.012345679012345,0)" xlink:href="#X"/><use transform="matrix(0.06172839506172839,0,0,0.06172839506172839,26.358024691358025,0)" xlink:href="#Y"/><use transform="matrix(0.06172839506172839,0,0,0.06172839506172839,38.7037037037037,0)" xlink:href="#U"/><use transform="matrix(0.06172839506172839,0,0,0.06172839506172839,46.04938271604938,0)" xlink:href="#Z"/><use transform="matrix(0.06172839506172839,0,0,0.06172839506172839,58.395061728395056,0)" xlink:href="#aa"/><use transform="matrix(0.06172839506172839,0,0,0.06172839506172839,69.50617283950616,0)" xlink:href="#Z"/></g><g id="s"><use transform="matrix(0.06172839506172839,0,0,0.06172839506172839,0,0)" xlink:href="#ad"/><use transform="matrix(0.06172839506172839,0,0,0.06172839506172839,12.345679012345679,0)" xlink:href="#X"/></g><path fill="#333" d="M44-154l7-36h35l-8 36H44zM14 0l7-36h35L49 0H14" id="at"/><g id="t"><use transform="matrix(0.06172839506172839,0,0,0.06172839506172839,0,0)" xlink:href="#V"/><use transform="matrix(0.06172839506172839,0,0,0.06172839506172839,11.11111111111111,0)" xlink:href="#R"/><use transform="matrix(0.06172839506172839,0,0,0.06172839506172839,23.45679012345679,0)" xlink:href="#P"/><use transform="matrix(0.06172839506172839,0,0,0.06172839506172839,28.333333333333336,0)" xlink:href="#T"/><use transform="matrix(0.06172839506172839,0,0,0.06172839506172839,40.67901234567901,0)" xlink:href="#U"/><use transform="matrix(0.06172839506172839,0,0,0.06172839506172839,48.02469135802469,0)" xlink:href="#at"/></g><use transform="matrix(0.06172839506172839,0,0,0.06172839506172839,0,0)" xlink:href="#ar" id="u"/><g id="v"><use transform="matrix(0.06172839506172839,0,0,0.06172839506172839,0,0)" xlink:href="#ae"/><use transform="matrix(0.06172839506172839,0,0,0.06172839506172839,18.456790123456788,0)" xlink:href="#af"/><use transform="matrix(0.06172839506172839,0,0,0.06172839506172839,30.80246913580247,0)" xlink:href="#ag"/><use transform="matrix(0.06172839506172839,0,0,0.06172839506172839,41.91358024691358,0)" xlink:href="#I"/><use transform="matrix(0.06172839506172839,0,0,0.06172839506172839,54.25925925925926,0)" xlink:href="#ah"/><use transform="matrix(0.06172839506172839,0,0,0.06172839506172839,61.60493827160494,0)" xlink:href="#ai"/><use transform="matrix(0.06172839506172839,0,0,0.06172839506172839,74.75308641975309,0)" xlink:href="#af"/><use transform="matrix(0.06172839506172839,0,0,0.06172839506172839,87.09876543209877,0)" xlink:href="#aj"/><use transform="matrix(0.06172839506172839,0,0,0.06172839506172839,91.97530864197532,0)" xlink:href="#I"/><use transform="matrix(0.06172839506172839,0,0,0.06172839506172839,104.320987654321,0)" xlink:href="#ah"/></g><g id="w"><use transform="matrix(0.06172839506172839,0,0,0.06172839506172839,0,0)" xlink:href="#al"/><use transform="matrix(0.06172839506172839,0,0,0.06172839506172839,11.11111111111111,0)" xlink:href="#af"/><use transform="matrix(0.06172839506172839,0,0,0.06172839506172839,23.45679012345679,0)" xlink:href="#aj"/><use transform="matrix(0.06172839506172839,0,0,0.06172839506172839,28.333333333333336,0)" xlink:href="#I"/><use transform="matrix(0.06172839506172839,0,0,0.06172839506172839,40.67901234567901,0)" xlink:href="#ah"/><use transform="matrix(0.06172839506172839,0,0,0.06172839506172839,48.02469135802469,0)" xlink:href="#E"/><use transform="matrix(0.06172839506172839,0,0,0.06172839506172839,54.19753086419753,0)" xlink:href="#F"/><use transform="matrix(0.06172839506172839,0,0,0.06172839506172839,66.54320987654322,0)" xlink:href="#am"/><use transform="matrix(0.06172839506172839,0,0,0.06172839506172839,78.8888888888889,0)" xlink:href="#ah"/><use transform="matrix(0.06172839506172839,0,0,0.06172839506172839,86.23456790123458,0)" xlink:href="#an"/><use transform="matrix(0.06172839506172839,0,0,0.06172839506172839,98.58024691358027,0)" xlink:href="#ao"/><use transform="matrix(0.06172839506172839,0,0,0.06172839506172839,109.69135802469138,0)" xlink:href="#af"/><use transform="matrix(0.06172839506172839,0,0,0.06172839506172839,122.03703703703707,0)" xlink:href="#ap"/><use transform="matrix(0.06172839506172839,0,0,0.06172839506172839,134.38271604938274,0)" xlink:href="#I"/></g><g id="y"><use transform="matrix(0.049382716049382706,0,0,0.049382716049382706,0,0)" xlink:href="#al"/><use transform="matrix(0.049382716049382706,0,0,0.049382716049382706,8.888888888888888,0)" xlink:href="#af"/><use transform="matrix(0.049382716049382706,0,0,0.049382716049382706,18.76543209876543,0)" xlink:href="#aj"/><use transform="matrix(0.049382716049382706,0,0,0.049382716049382706,22.666666666666664,0)" xlink:href="#I"/><use transform="matrix(0.049382716049382706,0,0,0.049382716049382706,32.5432098765432,0)" xlink:href="#ah"/><use transform="matrix(0.049382716049382706,0,0,0.049382716049382706,38.419753086419746,0)" xlink:href="#E"/><use transform="matrix(0.049382716049382706,0,0,0.049382716049382706,43.35802469135802,0)" xlink:href="#F"/><use transform="matrix(0.049382716049382706,0,0,0.049382716049382706,53.234567901234556,0)" xlink:href="#am"/><use transform="matrix(0.049382716049382706,0,0,0.049382716049382706,63.1111111111111,0)" xlink:href="#ah"/><use transform="matrix(0.049382716049382706,0,0,0.049382716049382706,68.98765432098764,0)" xlink:href="#an"/><use transform="matrix(0.049382716049382706,0,0,0.049382716049382706,78.86419753086419,0)" xlink:href="#ao"/><use transform="matrix(0.049382716049382706,0,0,0.049382716049382706,87.75308641975307,0)" xlink:href="#af"/><use transform="matrix(0.049382716049382706,0,0,0.049382716049382706,97.62962962962962,0)" xlink:href="#ap"/><use transform="matrix(0.049382716049382706,0,0,0.049382716049382706,107.50617283950618,0)" xlink:href="#I"/></g><path fill="#333" d="M18-27v-27l151-64-151-65v-27l175 74v36" id="au"/><use transform="matrix(0.049382716049382706,0,0,0.049382716049382706,0,0)" xlink:href="#au" id="z"/><g id="A"><use transform="matrix(0.049382716049382706,0,0,0.049382716049382706,0,0)" xlink:href="#ae"/><use transform="matrix(0.049382716049382706,0,0,0.049382716049382706,14.765432098765428,0)" xlink:href="#af"/><use transform="matrix(0.049382716049382706,0,0,0.049382716049382706,24.641975308641968,0)" xlink:href="#ag"/><use transform="matrix(0.049382716049382706,0,0,0.049382716049382706,33.53086419753085,0)" xlink:href="#I"/><use transform="matrix(0.049382716049382706,0,0,0.049382716049382706,43.40740740740739,0)" xlink:href="#ah"/><use transform="matrix(0.049382716049382706,0,0,0.049382716049382706,49.283950617283935,0)" xlink:href="#ai"/><use transform="matrix(0.049382716049382706,0,0,0.049382716049382706,59.80246913580245,0)" xlink:href="#af"/><use transform="matrix(0.049382716049382706,0,0,0.049382716049382706,69.67901234567898,0)" xlink:href="#aj"/><use transform="matrix(0.049382716049382706,0,0,0.049382716049382706,73.58024691358021,0)" xlink:href="#I"/><use transform="matrix(0.049382716049382706,0,0,0.049382716049382706,83.45679012345676,0)" xlink:href="#ah"/></g><g id="B"><use transform="matrix(0.049382716049382706,0,0,0.049382716049382706,0,0)" xlink:href="#ae"/><use transform="matrix(0.049382716049382706,0,0,0.049382716049382706,14.765432098765428,0)" xlink:href="#af"/><use transform="matrix(0.049382716049382706,0,0,0.049382716049382706,24.641975308641968,0)" xlink:href="#ag"/><use transform="matrix(0.049382716049382706,0,0,0.049382716049382706,33.53086419753085,0)" xlink:href="#I"/><use transform="matrix(0.049382716049382706,0,0,0.049382716049382706,43.40740740740739,0)" xlink:href="#ah"/><use transform="matrix(0.049382716049382706,0,0,0.049382716049382706,49.283950617283935,0)" xlink:href="#ai"/><use transform="matrix(0.049382716049382706,0,0,0.049382716049382706,59.80246913580245,0)" xlink:href="#af"/><use transform="matrix(0.049382716049382706,0,0,0.049382716049382706,69.67901234567898,0)" xlink:href="#aj"/><use transform="matrix(0.049382716049382706,0,0,0.049382716049382706,73.58024691358021,0)" xlink:href="#I"/><use transform="matrix(0.049382716049382706,0,0,0.049382716049382706,83.45679012345676,0)" xlink:href="#ah"/></g><path fill="#333" d="M18-100v-36l175-74v27L42-118l151 64v27" id="av"/><path fill="#333" d="M16-82v-28h88v28H16" id="aw"/><g id="C"><use transform="matrix(0.049382716049382706,0,0,0.049382716049382706,0,0)" xlink:href="#av"/><use transform="matrix(0.049382716049382706,0,0,0.049382716049382706,10.370370370370368,0)" xlink:href="#aw"/><use transform="matrix(0.049382716049382706,0,0,0.049382716049382706,16.24691358024691,0)" xlink:href="#aw"/></g><g id="D"><use transform="matrix(0.049382716049382706,0,0,0.049382716049382706,0,0)" xlink:href="#al"/><use transform="matrix(0.049382716049382706,0,0,0.049382716049382706,8.888888888888888,0)" xlink:href="#af"/><use transform="matrix(0.049382716049382706,0,0,0.049382716049382706,18.76543209876543,0)" xlink:href="#aj"/><use transform="matrix(0.049382716049382706,0,0,0.049382716049382706,22.666666666666664,0)" xlink:href="#I"/><use transform="matrix(0.049382716049382706,0,0,0.049382716049382706,32.5432098765432,0)" xlink:href="#ah"/><use transform="matrix(0.049382716049382706,0,0,0.049382716049382706,38.419753086419746,0)" xlink:href="#E"/><use transform="matrix(0.049382716049382706,0,0,0.049382716049382706,43.35802469135802,0)" xlink:href="#F"/><use transform="matrix(0.049382716049382706,0,0,0.049382716049382706,53.234567901234556,0)" xlink:href="#am"/><use transform="matrix(0.049382716049382706,0,0,0.049382716049382706,63.1111111111111,0)" xlink:href="#ah"/><use transform="matrix(0.049382716049382706,0,0,0.049382716049382706,68.98765432098764,0)" xlink:href="#an"/><use transform="matrix(0.049382716049382706,0,0,0.049382716049382706,78.86419753086419,0)" xlink:href="#ao"/><use transform="matrix(0.049382716049382706,0,0,0.049382716049382706,87.75308641975307,0)" xlink:href="#af"/><use transform="matrix(0.049382716049382706,0,0,0.049382716049382706,97.62962962962962,0)" xlink:href="#ap"/><use transform="matrix(0.049382716049382706,0,0,0.049382716049382706,107.50617283950618,0)" xlink:href="#I"/></g></defs></g></svg>